<?xml version="1.0" encoding="utf-8"?>
<!-- Generator: Adobe Illustrator 22.0.0, SVG Export Plug-In . SVG Version: 6.00 Build 0)  -->
<svg version="1.1" xmlns="http://www.w3.org/2000/svg" xmlns:xlink="http://www.w3.org/1999/xlink" x="0px" y="0px"
	 viewBox="0 0 3710 3710" style="enable-background:new 0 0 3710 3710;" xml:space="preserve">
<style type="text/css">
	.st0{fill:#F4F7FA;}
	.st1{fill:url(#SVGID_1_);}
	.st2{opacity:0.8;}
	.st3{fill:#FFFFFF;}
	.st4{fill:url(#SVGID_2_);}
	.st5{opacity:0.7;fill:#D8DEE8;}
	.st6{fill:url(#SVGID_3_);}
	.st7{fill:url(#SVGID_4_);}
	.st8{fill:url(#SVGID_5_);}
	.st9{fill:url(#SVGID_6_);}
	.st10{fill:url(#SVGID_7_);}
	.st11{opacity:0.3;fill:url(#SVGID_8_);}
	.st12{fill:url(#SVGID_9_);}
	.st13{fill:url(#SVGID_10_);}
	.st14{fill:url(#SVGID_11_);}
	.st15{opacity:0.3;fill:url(#SVGID_12_);}
	.st16{fill:url(#SVGID_13_);}
	.st17{fill:url(#SVGID_14_);}
	.st18{fill:url(#SVGID_15_);}
	.st19{fill:url(#SVGID_16_);}
	.st20{fill:url(#SVGID_17_);}
	.st21{opacity:0.3;fill:url(#SVGID_18_);}
	.st22{fill:url(#SVGID_19_);}
	.st23{fill:url(#SVGID_20_);}
	.st24{fill:url(#SVGID_21_);}
	.st25{fill:url(#SVGID_22_);}
	.st26{fill:#26264F;}
	.st27{fill:#D8DEE8;}
	.st28{opacity:0.3;}
	.st29{fill:url(#SVGID_23_);}
	.st30{fill:url(#SVGID_24_);}
	.st31{fill:url(#SVGID_25_);}
	.st32{fill:url(#SVGID_26_);}
	.st33{fill:url(#SVGID_27_);}
	.st34{fill:url(#SVGID_28_);}
	.st35{opacity:0.2;fill:url(#SVGID_29_);}
	.st36{fill:url(#SVGID_30_);}
	.st37{fill:url(#SVGID_31_);}
	.st38{opacity:0.7;}
	.st39{fill:url(#SVGID_32_);}
	.st40{fill:url(#SVGID_33_);}
	.st41{fill:url(#SVGID_34_);}
	.st42{fill:url(#SVGID_35_);}
	.st43{fill:url(#SVGID_36_);}
	.st44{fill:#FEC045;}
	.st45{fill:url(#SVGID_37_);}
	.st46{opacity:0.15;fill:url(#SVGID_38_);}
	.st47{opacity:0.42;}
	.st48{fill:url(#SVGID_39_);}
	.st49{fill:url(#SVGID_40_);}
	.st50{opacity:0.26;fill:url(#SVGID_41_);}
	.st51{opacity:0.53;}
	.st52{fill:url(#SVGID_42_);}
	.st53{fill:url(#SVGID_43_);}
	.st54{fill:url(#SVGID_44_);}
	.st55{fill:url(#SVGID_45_);}
	.st56{fill:url(#SVGID_46_);}
	.st57{opacity:0.3;fill:url(#SVGID_47_);}
	.st58{fill:url(#SVGID_48_);}
	.st59{fill:url(#SVGID_49_);}
	.st60{fill:url(#SVGID_50_);}
	.st61{fill:url(#SVGID_51_);}
	.st62{fill:url(#SVGID_52_);}
	.st63{opacity:0.3;fill:url(#SVGID_53_);}
	.st64{fill:url(#SVGID_54_);}
	.st65{opacity:0.2;fill:url(#SVGID_55_);}
	.st66{fill:url(#SVGID_56_);}
	.st67{fill:url(#SVGID_57_);}
</style>
<g id="Background">
</g>
<g id="Illustration">
	<g>
		<path class="st0" d="M1623.6,3166.1C929,3060.9,364.5,2404.1,467.1,1674.2c87.5-622.5,633.3-1107,1287.8-1152.7
			c47.4-3.3,95.3-4.3,143.7-2.9c365.1,10.5,689.5,156.6,929.5,377.6c238.8,219.9,394,514.1,422.2,822.7
			C3325.5,2540,2487.6,3296.9,1623.6,3166.1z"/>
		<g>
			<g>
				
					<linearGradient id="SVGID_1_" gradientUnits="userSpaceOnUse" x1="203.8116" y1="1764.8186" x2="-214.4299" y2="5002.7969" gradientTransform="matrix(-1 0 0 1 976.0522 0)">
					<stop  offset="0" style="stop-color:#FF9085"/>
					<stop  offset="1" style="stop-color:#FB6FBB"/>
				</linearGradient>
				<path class="st1" d="M971.7,3128.3c-162.4-20.9-368.4-75.7-451.1-230.3c-19.7-36.8-39.4-108.2,10.2-135.2
					c45.4-24.6,104.1,1.4,137.9,33.4c24.8,23.5,44.2,76.1,72,92.7c40.8,24.3,62.8-42,61.9-69.4c-1.9-61.2-77.2-86.3-127.2-99.6
					c-83.1-22.1-179.8-41-174.6-134.6c5.2-93.6,96.5-149.7,166.7-108.8c57.8,33.7,49.7,105.8,89.2,149c35.1,38.4,47.3-23.9,45-54.5
					c-5.1-66.4-63.4-114.3-106.4-158.8c-48.5-50.3-102.2-151.4-50.4-217.9c29.8-38.2,105.4-47.2,150.1-40.8
					c218.8,31.6,73.7,314.7,113.5,346.3c39.8,31.6,77.4-23.7,77.3-107.8c-0.1-84.1,12.8-146.1,100.5-119.2
					c87.7,26.9,104.5,246.5,4.3,330.9c-100.2,84.4,6.3,176.5,33.2,116c19.4-43.7,36.5-158.1,92.6-170.6
					c93.5-20.9,92.1,170.1,65.2,214.5c-37.7,62.3-123,75.8-170.7,129.6c-13.8,15.6-45.1,54.3-32.9,77.1c16.9,31.8,64.2-2.2,81.5-17
					c39-33.2,93-145.9,148-71C1375.4,2975,1261.9,3112,971.7,3128.3z"/>
				<g class="st2">
					<path class="st3" d="M948.4,3114.6c3.8,0,6.9-4.4,7-8.2c0.1-3.3,4.6-336.9-140.8-733c-1.3-3.6-5.4-5.8-9-4.5
						c-3.6,1.3-5.5,5.2-4.2,8.8c144.5,393.6,140,725.1,140,728.4c-0.1,3.9,3,8.4,6.9,8.4C948.3,3114.6,948.3,3114.6,948.4,3114.6z"
						/>
				</g>
			</g>
			
				<linearGradient id="SVGID_2_" gradientUnits="userSpaceOnUse" x1="4547.0303" y1="918.9907" x2="4277.0415" y2="3009.2131" gradientTransform="matrix(-0.7599 0.65 0.65 0.7599 3327.0662 -1195.7555)">
				<stop  offset="0" style="stop-color:#AA80F9"/>
				<stop  offset="0.9964" style="stop-color:#6165D7"/>
			</linearGradient>
			<path class="st4" d="M842.5,3100.9c5.4-34.1,70.7-43.9,97-48.8c15.3-2.9,37-5.8,44.8-21.6c8.2-16.6-4.3-29.4-20.3-32.3
				c-28.7-5.2-59.7,13-86.4,21.3c-28.7,8.9-58.4,13.1-86.9,0.8c-22.7-9.8-45.9-33.2-50.8-57.7c-13.7-68,54.4-64.1,98.8-54.5
				c21.5,4.6,63.9,8.1,67.7-22.3c4-32.4-37.2-48.7-62.6-49.7c-33.3-1.3-66,6-99,8.4c-29.8,2.2-65-1.1-73.2-35.3
				c-6.4-26.4,8.5-56.8,30-72.5c49.7-36.3,115.2,25.6,168.3,25.5c18.8,0,49.7-13.8,54.9-34c5.3-20.5-21.4-34.3-36-41.8
				c-43.3-22.2-242.3-50.6-171-136.5c17.9-21.6,52.6-39.8,80.6-40.6c52.8-1.4,112.1,34.4,152.8,65.3
				c64,48.6,119.9,115.5,156.3,187.2c80.3,158.4,41.4,264.6,41.4,264.6c-23.3,38.4-59.3,78.3-99,99.9
				c-46.6,25.4-118.9,36.6-169.6,16.8C863.8,3136.7,839.1,3122,842.5,3100.9z"/>
		</g>
		<path class="st5" d="M3014.5,2156.8l-67.4,4.5c-7.7-30.1-17.9-59.1-30.5-86.8l55.9-37.5c15.3-10.2,19.2-31,8.8-46.3l-65.2-96
			c-10.4-15.4-31.3-19.5-46.6-9.3l-56.7,37.8c-21.5-22.1-44.9-42.3-69.9-60.4l29.9-61.4c8.1-16.5,1-36.6-15.8-44.9l-105-51.7
			c-16.8-8.3-37-1.6-45.1,15l-30.1,61.6c-29.4-8.6-59.9-14.6-91.1-18l-5.2-69c-1.4-18.5-17.7-32.7-36.5-31.6l-117.4,6.9
			c-18.8,1.1-32.9,17.1-31.5,35.7l5.3,69.2c-30.6,7.2-60.1,16.9-88.3,29l-39.6-57.7c-10.7-15.6-32-19.8-47.7-9.5l-98.3,64.5
			c-15.7,10.3-19.8,31.4-9.1,47l39.7,57.7c-22.6,21.3-43.2,44.6-61.7,69.5l-63.6-30.7c-17.2-8.3-37.9-1.4-46.2,15.4l-52,105.2
			c-8.3,16.8-1.1,37.2,16.2,45.5l63.1,30.3c-8.6,29.6-14.5,60.2-17.8,91.5l-69.9,4.7c-19.1,1.3-33.5,17.5-32.1,36.3l8.9,117.3
			c1.4,18.7,18.1,32.9,37.2,31.5l69.3-4.9c7.8,30.8,18.2,60.4,31.1,88.7l-57,38c-15.8,10.6-19.9,31.7-9.1,47.2l67.4,97
			c10.8,15.5,32.3,19.5,48,8.9l56.6-38c22.2,22.5,46.4,43,72.2,61.3l-29.6,60.5c-8.3,16.9-1.1,37.2,16.1,45.2l107,50.4
			c17.1,8,37.6,0.9,45.8-16l29.2-59.9c30.2,8.4,61.4,14,93.3,17l5,66.2c1.4,18.6,17.8,32.5,36.6,31l117.2-9.2
			c18.7-1.5,32.7-17.7,31.3-36.2l-5-66c30.8-7.8,60.6-18.1,88.8-30.9l37.4,54.4c10.5,15.3,31.5,19.2,46.9,8.7l96.1-65.5
			c15.3-10.5,19.3-31.3,8.8-46.6l-37.5-54.7c22.2-21.7,42.5-45.2,60.6-70.4l60,28.8c16.7,8,36.7,1,44.7-15.6l50.1-103.9
			c8-16.6,1-36.6-15.7-44.6l-60.1-29c8.2-29.3,13.8-59.6,16.7-90.6l66.9-4.7c18.4-1.3,32.2-17.2,30.8-35.6l-8.7-114.9
			C3048.9,2169.5,3032.9,2155.6,3014.5,2156.8z M2406.8,1950.3c188.9-12,352.7,129.5,366.9,315.9
			c14.1,186.4-126.6,348.9-315.4,362.9c-189.9,14.1-356.3-127.1-370.6-315.6C2073.4,2125,2216.7,1962.4,2406.8,1950.3z"/>
		<path class="st5" d="M2801.4,1137.2l-37.1,2.5c-4.3-16.5-9.8-32.5-16.8-47.7l30.7-20.6c8.4-5.6,10.5-17,4.8-25.5l-35.9-52.8
			c-5.7-8.4-17.2-10.7-25.6-5.1l-31.2,20.8c-11.8-12.1-24.7-23.2-38.4-33.2l16.4-33.7c4.4-9.1,0.6-20.1-8.7-24.7l-57.7-28.4
			c-9.3-4.6-20.4-0.9-24.8,8.3l-16.5,33.8c-16.2-4.7-32.9-8-50.1-9.9l-2.9-38c-0.8-10.2-9.7-18-20-17.4l-64.5,3.8
			c-10.3,0.6-18.1,9.4-17.3,19.6l2.9,38.1c-16.8,4-33,9.3-48.5,16l-21.8-31.7c-5.9-8.6-17.6-10.9-26.2-5.2l-54,35.5
			c-8.7,5.7-10.9,17.2-5,25.8l21.8,31.7c-12.4,11.7-23.7,24.5-33.9,38.2l-34.9-16.9c-9.5-4.6-20.8-0.8-25.4,8.5l-28.6,57.8
			c-4.6,9.3-0.6,20.5,8.9,25l34.7,16.7c-4.7,16.3-8,33.1-9.8,50.3l-38.4,2.6c-10.5,0.7-18.4,9.6-17.6,19.9l4.9,64.5
			c0.8,10.3,9.9,18.1,20.5,17.3l38.1-2.7c4.3,16.9,10,33.2,17.1,48.8l-31.3,20.9c-8.7,5.8-11,17.4-5,26l37,53.3
			c5.9,8.5,17.7,10.7,26.4,4.9l31.1-20.9c12.2,12.4,25.5,23.6,39.7,33.7l-16.3,33.2c-4.5,9.3-0.6,20.4,8.8,24.9l58.8,27.7
			c9.4,4.4,20.7,0.5,25.2-8.8l16-32.9c16.6,4.6,33.8,7.7,51.3,9.3l2.8,36.4c0.8,10.2,9.8,17.8,20.1,17l64.4-5.1
			c10.3-0.8,18-9.7,17.2-19.9l-2.8-36.3c17-4.3,33.3-10,48.8-17l20.6,29.9c5.8,8.4,17.3,10.5,25.8,4.8l52.9-36
			c8.4-5.8,10.6-17.2,4.8-25.6l-20.6-30.1c12.2-11.9,23.4-24.9,33.3-38.7l33,15.8c9.2,4.4,20.2,0.6,24.6-8.6l27.5-57.1
			c4.4-9.1,0.5-20.1-8.6-24.5l-33-16c4.5-16.1,7.6-32.8,9.2-49.8l36.8-2.6c10.1-0.7,17.7-9.5,16.9-19.6l-4.8-63.2
			C2820.4,1144.1,2811.6,1136.5,2801.4,1137.2z M2467.4,1023.6c103.9-6.6,193.9,71.2,201.7,173.7c7.8,102.5-69.6,191.8-173.4,199.5
			c-104.4,7.8-195.9-69.9-203.8-173.5C2284.1,1119.7,2362.9,1030.3,2467.4,1023.6z"/>
		<g>
			
				<linearGradient id="SVGID_3_" gradientUnits="userSpaceOnUse" x1="1582.4163" y1="3093.3374" x2="1696.2988" y2="3093.3374" gradientTransform="matrix(0.9989 4.640000e-02 -4.640000e-02 0.9989 1331.4767 -58.4637)">
				<stop  offset="0" style="stop-color:#444B8C"/>
				<stop  offset="0.9964" style="stop-color:#26264F"/>
			</linearGradient>
			<path class="st6" d="M2862.8,3050.4c20.3,16.4,21.4,28,20.8,33.7c-1.1,9.1-7.9,12.7-24.4,29.9c-22.3,23.3-18.9,26.5-30.3,34.9
				c-25.1,18.6-60.5,17.4-62.7,11.1c-1.5-4.4,14.5-8.1,32.8-29.2c16.8-19.5,22.5-38.8,24.1-44.5c2.8-10.3,3.5-19.2,3.6-25.4
				L2862.8,3050.4z"/>
			
				<linearGradient id="SVGID_4_" gradientUnits="userSpaceOnUse" x1="1670.9293" y1="2957.136" x2="1613.7238" y2="3061.7803" gradientTransform="matrix(0.9989 4.640000e-02 -4.640000e-02 0.9989 1331.4767 -58.4637)">
				<stop  offset="0" style="stop-color:#FFC444"/>
				<stop  offset="0.9964" style="stop-color:#F36F56"/>
			</linearGradient>
			<path class="st7" d="M2794.9,3000.5l39.9,69.5c9.6,4.3,18.8,2.1,27.3-10.3l-15.6-84.5L2794.9,3000.5z"/>
			
				<linearGradient id="SVGID_5_" gradientUnits="userSpaceOnUse" x1="1457.511" y1="3078.9724" x2="1658.9058" y2="2200.5449" gradientTransform="matrix(0.9989 4.640000e-02 -4.640000e-02 0.9989 1331.4767 -58.4637)">
				<stop  offset="0" style="stop-color:#AA80F9"/>
				<stop  offset="0.9964" style="stop-color:#6165D7"/>
			</linearGradient>
			<path class="st8" d="M2746.6,2108.8c-38.9,65.6-101.9,192.3-114.7,363.5c-12.6,169,30,297.8,47.9,345.9
				c33.5,90,91.7,184.5,125.5,229.6c22.8-9.5,36.2-24.5,59-34c-3.4-12.4-14-53.4-20.7-77.8c-5.2-18.9-14.7-53.9-16.6-61.4
				c-16.4-62.6-3.4-109.6-8-187c-5.3-90.3-25.9-79.8-22.8-134c4.6-80.9,50.5-99.8,103.2-217c36-80.2,73.9-164.4,39.1-210.5
				C2894.7,2068.1,2761.4,2104.6,2746.6,2108.8z"/>
			
				<linearGradient id="SVGID_6_" gradientUnits="userSpaceOnUse" x1="1712.3245" y1="3150.9487" x2="1869.037" y2="3150.9487" gradientTransform="matrix(1 0 0 1 1174.6333 0)">
				<stop  offset="0" style="stop-color:#444B8C"/>
				<stop  offset="0.9964" style="stop-color:#26264F"/>
			</linearGradient>
			<path class="st9" d="M3027.8,3114c12.2,7.7,19.5,26.1,14,37.7c-5.4,11.4-19.3,7.8-53,18.1c-36.1,11.1-43.2,22.3-69.8,22.3
				c-10.8,0-30.2-1.9-31.9-9.1c-1.1-5.1,7.1-10.1,34.4-28.4c38.7-26,38.3-26.7,46.9-30.7C2990,3113.9,3011.8,3103.8,3027.8,3114z"/>
			
				<linearGradient id="SVGID_7_" gradientUnits="userSpaceOnUse" x1="1797.609" y1="3142.9907" x2="1858.0024" y2="3017.9902" gradientTransform="matrix(1 0 0 1 1174.6333 0)">
				<stop  offset="0" style="stop-color:#FFC444"/>
				<stop  offset="0.9964" style="stop-color:#F36F56"/>
			</linearGradient>
			<path class="st10" d="M2970.1,3059l14.8,67.7c2.1,3,23.2,10.3,37.9,0l-5.4-67.7H2970.1z"/>
			
				<linearGradient id="SVGID_8_" gradientUnits="userSpaceOnUse" x1="1460.3002" y1="3079.6118" x2="1661.6951" y2="2201.1843" gradientTransform="matrix(0.9989 4.640000e-02 -4.640000e-02 0.9989 1331.4767 -58.4637)">
				<stop  offset="0" style="stop-color:#AA80F9"/>
				<stop  offset="0.9964" style="stop-color:#6165D7"/>
			</linearGradient>
			<path class="st11" d="M2938.5,2126.1c-43.8-58-177.1-21.5-191.9-17.3c-16,27-36,64.4-55,110.8c47.2-9.3,67.7-0.9,77.3,10.3
				c37.1,43.5-79,139.5-55.1,285.2c9.3,57,33.7,82.6,29.2,152.2c-3.3,51.8-19.4,78-30.5,115.9c-6.7,22.7-11.8,50.7-12.1,84.5
				c33.4,73.4,77.3,143.2,104.9,180c22.8-9.5,36.2-24.5,59-34c-3.4-12.4-14-53.4-20.7-77.8c-5.2-18.9-14.7-53.9-16.6-61.4
				c-16.4-62.6-3.4-109.6-8-187c-5.3-90.3-25.9-79.8-22.8-134c4.6-80.9,50.5-99.8,103.2-217
				C2935.4,2256.4,2973.3,2172.1,2938.5,2126.1z"/>
			
				<linearGradient id="SVGID_9_" gradientUnits="userSpaceOnUse" x1="1705.1895" y1="2705.4426" x2="2060.9678" y2="2144.5684" gradientTransform="matrix(1 0 0 1 1174.6333 0)">
				<stop  offset="0" style="stop-color:#AA80F9"/>
				<stop  offset="0.9964" style="stop-color:#6165D7"/>
			</linearGradient>
			<path class="st12" d="M2850.7,2144.4c-3.8,151,1.9,326,26.8,518.8c20.2,157,49.6,298.7,82,422.9c4.5,2.5,20.2,10.7,40.3,6.9
				c14.3-2.7,23.8-10.1,28-13.8c-3.5-25.4-7.1-63.8-4.2-110.2c5-79.8,23.8-96.1,31.9-178.6c7.1-72.4-0.4-131.6-4-159
				c-11.1-84.4-26.2-86.2-26.5-136.7c-0.5-77.9,35.1-105.7,54.7-179.9c13.1-49.5,20-123.4-12.9-224.7
				C2994.8,2108.1,2922.7,2126.2,2850.7,2144.4z"/>
			
				<linearGradient id="SVGID_10_" gradientUnits="userSpaceOnUse" x1="1437.9287" y1="1478.8383" x2="1553.5222" y2="1888.8331" gradientTransform="matrix(1 0 0 1 1174.6333 0)">
				<stop  offset="0" style="stop-color:#311944"/>
				<stop  offset="1" style="stop-color:#893976"/>
			</linearGradient>
			<path class="st13" d="M2773.6,1541.9c-26.5,14.9-63.2,39.5-97.5,78.7c-79,90.5-127.9,239.5-77.1,288.2
				c34.6,33.2,116.5,23.1,144.8-16.2c20.8-28.9,5.8-64.5-1.4-115C2734.7,1723.2,2735,1644.4,2773.6,1541.9z"/>
			
				<linearGradient id="SVGID_11_" gradientUnits="userSpaceOnUse" x1="1637.5684" y1="1423.4045" x2="1864.6121" y2="2228.699" gradientTransform="matrix(1 0 0 1 1174.6333 0)">
				<stop  offset="0" style="stop-color:#311944"/>
				<stop  offset="1" style="stop-color:#893976"/>
			</linearGradient>
			<path class="st14" d="M3080.6,2126.4c-29.3-385.8-122.6-543.7-114.4-590.6c-11.7-8.4-58.1-21.9-163.3-8c-9,3.3-33,13-56.7,34.7
				c0,0-5.5,5-13.1,13.9c73.8,13.9,149.1,56,176.2,115.6c46.9,113.9-40.2,241.2,0,341.8c21.1,52.8,54.9,99.6,95.3,143.4
				C3050.6,2165.6,3082.3,2148.6,3080.6,2126.4z"/>
			
				<linearGradient id="SVGID_12_" gradientUnits="userSpaceOnUse" x1="1751.019" y1="2734.5142" x2="2106.7976" y2="2173.6394" gradientTransform="matrix(1 0 0 1 1174.6333 0)">
				<stop  offset="0" style="stop-color:#AA80F9"/>
				<stop  offset="0.9964" style="stop-color:#6165D7"/>
			</linearGradient>
			<path class="st15" d="M3066.9,2090c-21.1,5.3-42.2,10.6-63.3,15.9c11,38,21.6,95.1,8.9,159.9c-17.6,89.5-63.1,109.1-69.8,189.8
				c-6,72.6,28.2,87.4,44.6,184.2c16.8,99.2-8.6,145.8-14,228.8c-3.6,56.8,2.3,131.1,36.8,221.5c8.5-3.4,14.5-8,17.6-10.8
				c-3.5-25.4-7.1-63.8-4.2-110.2c5-79.8,23.8-96.1,31.9-178.6c7.1-72.4-0.4-131.6-4-159c-11.1-84.4-26.2-86.2-26.5-136.7
				c-0.5-77.9,35.1-105.7,54.7-179.9C3092.8,2265.1,3099.7,2191.3,3066.9,2090z"/>
			
				<linearGradient id="SVGID_13_" gradientUnits="userSpaceOnUse" x1="1507.036" y1="1348.8601" x2="1734.0854" y2="2154.1748" gradientTransform="matrix(1 0 0 1 1174.6333 0)">
				<stop  offset="0" style="stop-color:#311944"/>
				<stop  offset="1" style="stop-color:#893976"/>
			</linearGradient>
			<path class="st16" d="M2746.1,1562.4c0,0-28,25.5-44.3,62.8c-24.6,56.3,1.9,104.7,9.8,196.7c8.7,100.9-3.6,269-32,329.3
				c-0.5,1-1.7,4-1.2,7.8c7.7,58.2,408,45,402.1-32.7c-29.3-385.8-122.6-543.7-114.4-590.6c-11.7-8.4-58.1-21.9-163.3-8
				C2793.9,1531,2769.9,1540.7,2746.1,1562.4z"/>
			<g>
				
					<linearGradient id="SVGID_14_" gradientUnits="userSpaceOnUse" x1="788.0228" y1="1585.7703" x2="795.2729" y2="1392.6499" gradientTransform="matrix(-0.917 0.3988 0.3988 0.917 2982.0386 -184.8945)">
					<stop  offset="0" style="stop-color:#FFC444"/>
					<stop  offset="0.9964" style="stop-color:#F36F56"/>
				</linearGradient>
				<path class="st17" d="M2865.1,1430.8c0,0,25.9,81.1,34.2,90.9c8.4,9.8-33.6,35.3-65.8,23.8c-29.5-10.6,0-55.6,0-55.6
					L2865.1,1430.8z"/>
				<g>
					
						<linearGradient id="SVGID_15_" gradientUnits="userSpaceOnUse" x1="2168.4031" y1="1408.8275" x2="2261.7437" y2="1527.3953" gradientTransform="matrix(0.8225 0.5688 -0.5688 0.8225 1858.2712 -1085.3732)">
						<stop  offset="0" style="stop-color:#444B8C"/>
						<stop  offset="0.9964" style="stop-color:#26264F"/>
					</linearGradient>
					<path class="st18" d="M2784.9,1411.9c-10.1-16-8.7-42.4,5.7-57.9c12.4-13.4,30.3-14,41-14.4c31-1.1,68.7,14.9,79.9,44.2
						c6.6,17.4-13.4,50.8-16.7,56.9c-3.6,6.8-9.4,8.8-15,13.7c-7.7,6.8-19.8,17.7-39.6,36c-0.9-5.9-2.5-13.3-5.3-21.4
						c-1.1-3.1-5.4-15.3-12.6-25.7C2807.9,1422.5,2794.5,1427,2784.9,1411.9z"/>
					
						<linearGradient id="SVGID_16_" gradientUnits="userSpaceOnUse" x1="403.165" y1="1708.8701" x2="398.9681" y2="2047.0103" gradientTransform="matrix(-0.9894 -0.1449 -0.1449 0.9894 3485.9355 -215.3695)">
						<stop  offset="0" style="stop-color:#FFC444"/>
						<stop  offset="0.9964" style="stop-color:#F36F56"/>
					</linearGradient>
					<path class="st19" d="M2867.6,1475.9c0,0-22.9,31.5-62.9,25.6c-35.8-5.2-34.6-86.4-10.2-101.7c8.1-5.1,23.7-6.2,35.9-1.7
						c7.2,2.7,9.5,5.9,21.3,10.1c10.9,3.8,14.2,2.8,17.4,5.9c3.9,3.9,6.3,12.9-2.6,35.9c7.4-6.4,15.9-8.4,21.5-5.2
						c0.9,0.5,3.2,2.4,4.4,5.1C2896.7,1459.5,2887.3,1470.6,2867.6,1475.9z"/>
					
						<linearGradient id="SVGID_17_" gradientUnits="userSpaceOnUse" x1="963.3474" y1="1769.3481" x2="968.0975" y2="1811.6946" gradientTransform="matrix(0.9965 8.410000e-02 -8.410000e-02 0.9965 1987.8906 -391.9519)">
						<stop  offset="0" style="stop-color:#FFC444"/>
						<stop  offset="1" style="stop-color:#F36F56"/>
					</linearGradient>
					<path class="st20" d="M2789.7,1462.5c0,0,7.4,4.7,20.9,5c0.7,0,1.4,0.3,1.4,0.6c0.2,1.3-8.9,6.3-16.6,3.4c-5.5-2-9.5-7.7-8.6-9
						C2787.2,1462,2788.5,1462.2,2789.7,1462.5z"/>
				</g>
			</g>
			
				<linearGradient id="SVGID_18_" gradientUnits="userSpaceOnUse" x1="1531.5513" y1="1341.9495" x2="1758.6008" y2="2147.2646" gradientTransform="matrix(1 0 0 1 1174.6333 0)">
				<stop  offset="0" style="stop-color:#311944"/>
				<stop  offset="1" style="stop-color:#893976"/>
			</linearGradient>
			<path class="st21" d="M2967.7,1785.7c-43.7,15.3-101.7,58.4-105.5,113.7c-6,84.8,120.3,131.4,103.5,190.8
				c-4.6,16.2-19.1,30.8-113.7,64.9c-38.3,13.8-73.8,25.1-106.1,34.4c115.7,17.1,339.1-5,334.7-63.1
				c-11.2-147.7-31.8-261.9-52.5-349.3C3007.1,1776.2,2986.7,1779,2967.7,1785.7z"/>
			
				<linearGradient id="SVGID_19_" gradientUnits="userSpaceOnUse" x1="2511.7209" y1="1096.0887" x2="2678.1182" y2="1686.2781" gradientTransform="matrix(0.9424 0.3345 -0.3345 0.9424 1043.4957 -484.9011)">
				<stop  offset="0" style="stop-color:#311944"/>
				<stop  offset="1" style="stop-color:#893976"/>
			</linearGradient>
			<path class="st22" d="M2830.1,1959.3c71.1,72.1,172.5,94.9,250.5,58.8c108.3-50.1,125.1-192.2,99.8-281.2
				c-42.2-148.5-225.9-235.1-283.8-195.5c-41.9,28.6-41.5,139.3,8.4,194.7c44.8,49.8,113.7,37.2,132.5,87.9
				c14,38-13.1,76.3-15.4,79.5c-30.2,41.3-95.9,55.3-158.1,26.9C2852.8,1940,2841.5,1949.6,2830.1,1959.3z"/>
			
				<linearGradient id="SVGID_20_" gradientUnits="userSpaceOnUse" x1="1556.892" y1="1909.7168" x2="1562.0258" y2="1772.9707" gradientTransform="matrix(1 0 0 1 1174.6333 0)">
				<stop  offset="0" style="stop-color:#FFC444"/>
				<stop  offset="0.9964" style="stop-color:#F36F56"/>
			</linearGradient>
			<path class="st23" d="M2689.5,1834.9c5.8-18.6,24.6-28.1,39.4-30.2c14.5-2,38.3,1.3,47.8,20.2c8.9,17.7,1.9,42.5-18.5,55.9
				c-2.9-7.1-8-16.5-17.1-19.4c-16.7-5.2-31.1,16.5-43.5,10.8C2687.7,1867.8,2685.2,1848.6,2689.5,1834.9z"/>
			<path class="st3" d="M2757.7,1947.6l54.7,9.5c10.6,1.8,19.7-7.6,17.4-18.1l-19.9-92.5c-1.4-6.7-7.2-11.6-14-12l-65.5-3.5
				c-10.8-0.6-18.7,10-15.1,20.2l30.7,86.5C2747.8,1942.9,2752.3,1946.7,2757.7,1947.6z"/>
			
				<linearGradient id="SVGID_21_" gradientUnits="userSpaceOnUse" x1="1625.7961" y1="1983.5652" x2="1630.1548" y2="1867.4663" gradientTransform="matrix(1 0 0 1 1174.6333 0)">
				<stop  offset="0" style="stop-color:#FFC444"/>
				<stop  offset="0.9964" style="stop-color:#F36F56"/>
			</linearGradient>
			<path class="st24" d="M2853.1,1939.7c-4.5-32.2-18.1-40.6-23-43c-8.2-4-12.3-0.9-41.1-1.4c-25.7-0.4-31.8-3-35,1.4
				c-6.2,8.3,6.5,30.2,20.8,43c20.1,18,45,19.5,55.3,19.6L2853.1,1939.7z"/>
		</g>
		<g>
			<g>
				<g>
					<g>
						<g>
							
								<linearGradient id="SVGID_22_" gradientUnits="userSpaceOnUse" x1="2851.498" y1="1840.5116" x2="4476.0581" y2="1840.5116" gradientTransform="matrix(0.9998 1.990000e-02 -1.990000e-02 0.9998 -2122.78 -41.8984)">
								<stop  offset="0" style="stop-color:#444B8C"/>
								<stop  offset="0.9964" style="stop-color:#26264F"/>
							</linearGradient>
							<path class="st25" d="M2056,645.7l236.6,2379.9c3.5,35.4-20.9,66.4-54.3,68.9l-1153,96.6c-70.3,2.5-108.2-35.4-112-72.9
								L716.9,599c-3.9-37.8,31.3-71.3,102.3-69.9l1168.7,49.3C2021.8,579.6,2052.4,609.9,2056,645.7z"/>
							<path class="st26" d="M2108.4,642.6L2346,3034.8c3.5,35.6-21,66.8-54.5,69.2l-1195.3,87.6c-37.3,2.7-71.1-25.9-74.9-63.6
								L763.7,595.6c-3.9-38,24.1-68,62-66.6L2040,575C2074.1,576.3,2104.8,606.7,2108.4,642.6z"/>
							<path class="st27" d="M2083.2,774.6l220.4,2217.2c3.3,33.3-19.6,62.3-51,64.6l-1124.3,79.9c-34.7,2.5-66.1-24.2-69.7-59.3
								L821,737.8c-3.6-35.4,22.4-63.5,57.6-62.3l1140.8,36.3C2051.2,712.8,2079.9,741.1,2083.2,774.6z"/>
						</g>
						<path class="st3" d="M1478.5,628c1.3,12.8-7.7,22.8-20.2,22.4c-12.5-0.4-23.6-11.2-24.9-24c-1.3-12.8,7.8-22.9,20.2-22.4
							C1466.1,604.5,1477.3,615.2,1478.5,628z"/>
					</g>
				</g>
				<g class="st28">
					<path class="st0" d="M1367.9,1795.7c-118.8-351,88-527.8-29.1-853C1275,765.8,1147.5,634,1007.2,535.9L825.7,529
						c-37.9-1.4-65.9,28.5-62,66.6l257.5,2532.5c3.8,37.7,37.6,66.3,74.9,63.6l1032-75.6c-3.2-264.4-70.4-452.6-145.1-586.4
						C1777.7,2162,1490.9,2159.1,1367.9,1795.7z"/>
				</g>
			</g>
			<g>
				<g>
					
						<linearGradient id="SVGID_23_" gradientUnits="userSpaceOnUse" x1="-1707.6119" y1="-1264.0243" x2="-1144.9486" y2="604.6385" gradientTransform="matrix(0.6379 -0.7701 0.7701 0.6379 3203.0696 875.1782)">
						<stop  offset="0" style="stop-color:#AA80F9"/>
						<stop  offset="0.9964" style="stop-color:#6165D7"/>
					</linearGradient>
					<path class="st29" d="M2047.9,953.9c178,147.4,356,294.9,533.9,442.3c-459.1,206.5-405.7,837.5-864.8,1044
						c-178-147.4-356-294.9-533.9-442.3C1642.1,1791.4,1588.7,1160.3,2047.9,953.9z"/>
					<path class="st3" d="M2491.8,1388.6c-389.5,219.5-374.8,773.8-764.3,993.2c-151.5-125.5-303-251-454.4-376.5
						c389.5-219.5,374.8-773.8,764.3-993.2C2188.8,1137.6,2340.3,1263.1,2491.8,1388.6z"/>
					<g>
						<g>
							
								<linearGradient id="SVGID_24_" gradientUnits="userSpaceOnUse" x1="-2210.0227" y1="-1169.4996" x2="-1537.3674" y2="1064.458" gradientTransform="matrix(0.6379 -0.7701 0.7701 0.6379 3203.0696 875.1782)">
								<stop  offset="0" style="stop-color:#AA80F9"/>
								<stop  offset="0.9964" style="stop-color:#6165D7"/>
							</linearGradient>
							<path class="st30" d="M1353.8,1940.7c2,1.7,3.8,3.2,5.6,5c0.2,0.2,0.3,0.3,0.5,0.5c20.7,19.9,30.4,45.1,28,69.3
								c-2.1,21.1-13.5,41.2-35.1,56.1c-3.2,2.2-6.6,4.2-10.1,6.1c-13.5,7.3-29.1,12.1-45.5,14.8c-38-31.5-76-63-114-94.5
								c48.8-21.9,91.8-48.7,130.3-79.2C1327.1,1922.7,1341.8,1930.7,1353.8,1940.7z"/>
							
								<linearGradient id="SVGID_25_" gradientUnits="userSpaceOnUse" x1="-2412.5298" y1="-1267.4164" x2="-1704.5256" y2="1083.9381" gradientTransform="matrix(0.6379 -0.7701 0.7701 0.6379 3203.0696 875.1782)">
								<stop  offset="0" style="stop-color:#AA80F9"/>
								<stop  offset="0.9964" style="stop-color:#6165D7"/>
							</linearGradient>
							<path class="st31" d="M1818.8,2325.9c12.5,10.3,20.8,21.7,27.8,35.5c-38.3,30.3-81.1,56.9-129.7,78.7
								c-38.9-32.2-77.8-64.4-116.7-96.7c9-8.8,20.4-17.1,34-24.4c3.6-1.9,7.2-3.7,11-5.4c55.4-25.4,123.4-25.4,168.7,8.3
								c0.2,0.1,0.3,0.3,0.5,0.4C1815.9,2323.5,1817.4,2324.8,1818.8,2325.9z"/>
						</g>
						<g>
							
								<linearGradient id="SVGID_26_" gradientUnits="userSpaceOnUse" x1="-1121.1355" y1="-1655.6124" x2="-416.5633" y2="684.3443" gradientTransform="matrix(0.6379 -0.7701 0.7701 0.6379 3203.0696 875.1782)">
								<stop  offset="0" style="stop-color:#AA80F9"/>
								<stop  offset="0.9964" style="stop-color:#6165D7"/>
							</linearGradient>
							<path class="st32" d="M2047.9,953.9c38,31.5,76,63,114,94.5c-9,8.8-20.4,17.1-34,24.4c-3.6,1.9-7.2,3.7-11,5.4
								c-54.9,25.2-121.8,25.5-167.1-7.2c-2.1-1.5-3.8-2.8-5.8-4.5c-12-9.9-21.7-22.1-26.4-33.4
								C1956,1002.5,1999.1,975.8,2047.9,953.9z"/>
							
								<linearGradient id="SVGID_27_" gradientUnits="userSpaceOnUse" x1="-1297.5519" y1="-1668.5378" x2="-621.2826" y2="577.4221" gradientTransform="matrix(0.6379 -0.7701 0.7701 0.6379 3203.0696 875.1782)">
								<stop  offset="0" style="stop-color:#AA80F9"/>
								<stop  offset="0.9964" style="stop-color:#6165D7"/>
							</linearGradient>
							<path class="st33" d="M2465.1,1299.5c38.9,32.2,77.8,64.4,116.7,96.7c-48.5,21.8-91.4,48.4-129.7,78.7
								c-16.9-5.9-30.6-12.8-43.1-23.2c-1.4-1.2-2.9-2.4-4.2-3.7c-0.2-0.2-0.3-0.3-0.5-0.4c-20.2-18.6-30.6-42.2-30.2-65.2
								c0.4-23.1,11.8-45.7,35.4-61.9c3.2-2.2,6.5-4.3,10.1-6.2C2433.2,1307.1,2448.6,1302.1,2465.1,1299.5z"/>
						</g>
					</g>
					
						<linearGradient id="SVGID_28_" gradientUnits="userSpaceOnUse" x1="-1531.0342" y1="-678.4528" x2="-1419.7616" y2="-308.905" gradientTransform="matrix(0.6379 -0.7701 0.7701 0.6379 3203.0696 875.1782)">
						<stop  offset="0" style="stop-color:#AA80F9"/>
						<stop  offset="0.9964" style="stop-color:#6165D7"/>
					</linearGradient>
					<path class="st34" d="M1975.4,1512.7c85.2,70.6,110.4,208.5,61.3,312.2c-49.1,103.7-162.7,126.6-248.7,55.3
						c-85.2-70.6-110.4-208.5-61.3-312.2C1775.8,1464.4,1889.5,1441.5,1975.4,1512.7z"/>
					<g>
						<path class="st3" d="M1913,1636.5c-15,3.5-30.5,13.7-48.5,34.6c-12.6-10.5-25.3-20.9-37.9-31.4c0.5-0.9,1-1.7,1.5-2.6
							c5-8.5,10.5-16.1,16.5-22.5c3.4-3.7,7.1-7.1,10.9-10.2c4.2-3.4,4.2-10.8,0.1-15c-5.2-5.2-10.4-10.5-15.6-15.7
							c-3.3-3.3-8-3.4-11-0.3c-5.1,5.2-10.2,10.9-14.8,16.6c-6.3,7.7-12.1,15.8-17.6,24.7c-4.4-3.7-8.8-7.3-13.2-11
							c-3.9-3.2-8.9-2.7-11.5,1.6c-2.6,4.3-1.4,10.1,2.5,13.3c4.5,3.7,9,7.5,13.5,11.2c-10.8,22.3-15.3,43.2-13.3,62.1
							c2.1,19,10.6,34.8,25.6,47.2c14.5,12,29.3,16.2,44.2,12.7c14.8-3.6,30.3-15,46.1-34c14,11.7,28.1,23.4,42.1,35.1
							c-5.5,9.6-11.7,18.4-18.7,26.4c-4.4,5.1-9.2,9.9-14.2,14.4c-4.3,3.8-4.4,11.6,0,15.9c6.7,6.7,13.5,13.3,20.2,20
							c3.4,3.3,8.1,3.2,11.1-0.1c5-5.5,9.9-11.4,14.5-17.8c6.2-8.6,12.2-18.3,17.8-28.7c0.7-1.3,1.4-2.5,2-3.8
							c4.8,4,9.6,8,14.4,11.9c3.9,3.2,8.9,2.8,11.1-1.8c0,0,0-0.1,0.1-0.1c2.2-4.6,1-10.3-2.9-13.5c-4.9-4-9.7-8.1-14.6-12.1
							c6.9-16.6,10.8-32.5,11.4-47.3c0.3-6.4,0-12.8-0.9-18.9c-3-20.1-12.2-36.2-27.3-48.8C1942.5,1636.9,1927.9,1633,1913,1636.5z
							 M1901.8,1704.2c6-6.2,12-10.5,17.3-11.5c5.2-1.1,10.5,0.5,15.6,4.7c5.6,4.7,8.9,10.5,9.9,17.1c1.1,6.7-0.2,13.8-4.1,21.8
							C1927.6,1725.5,1914.7,1714.8,1901.8,1704.2z M1837.8,1695.1c-4.8,1.2-9.5-0.1-14-3.9c-4.8-4-7.6-9.1-8.5-15.4
							c-0.9-6.3,0.5-13.9,3.2-20.6c11.6,9.6,23.2,19.2,34.8,28.8C1847.6,1690.6,1842.6,1694,1837.8,1695.1z"/>
					</g>
					
						<linearGradient id="SVGID_29_" gradientUnits="userSpaceOnUse" x1="-2153.2686" y1="-453.4842" x2="-797.5522" y2="-453.4842" gradientTransform="matrix(0.6379 -0.7701 0.7701 0.6379 3203.0696 875.1782)">
						<stop  offset="0" style="stop-color:#AA80F9"/>
						<stop  offset="0.9964" style="stop-color:#6165D7"/>
					</linearGradient>
					<path class="st35" d="M2580,1394.7c0.6,0.5,1.2,1,1.7,1.4c-459.1,206.5-405.7,837.5-864.8,1044
						c-174.2-144.3-348.4-288.6-522.6-433c25.3-2.7,52.7-4.3,82.2-3.8c34.1,0.6,71,4,111.4,11.9c44.8,8.9,93.8,23.4,148.1,46.4
						c268.3,113.9,345.4,18,391.9-143.9c12.8-42.9,23.8-90.2,37.2-138.2c5.9-21.1,12.5-42.4,19.8-63.6
						c14.4-41.4,31.7-82.2,52.6-120.1c68.3-129.7,188.3-217.4,336.7-213.5c27.2,0.4,54.9,3.6,82.7,9.6c7.2,1.6,14.8,2.8,22.8,3.6
						C2508.6,1398.7,2542.1,1397.5,2580,1394.7z"/>
				</g>
			</g>
			<g>
				
					<linearGradient id="SVGID_30_" gradientUnits="userSpaceOnUse" x1="-4071.0583" y1="-742.5438" x2="-5317.8569" y2="-856.6719" gradientTransform="matrix(0.3746 -0.924 0.9606 0.2746 4179.5039 -2299.4614)">
					<stop  offset="0" style="stop-color:#311944"/>
					<stop  offset="1" style="stop-color:#893976"/>
				</linearGradient>
				<path class="st36" d="M2132.4,1489.1c15.9,6.3,24.2,23.2,18.3,37.5l-368.9,907c-6.3,15.4-28.4,26.5-44.9,19.7l-600.9-249.9
					c-16.1-6.7-22.8-30-16.1-45.1l371.9-892.7c6.1-14,23.9-20.4,39.5-14.2L2132.4,1489.1z"/>
				
					<linearGradient id="SVGID_31_" gradientUnits="userSpaceOnUse" x1="-5189.0991" y1="-868.914" x2="-3425.5701" y2="-803.3123" gradientTransform="matrix(0.367 -0.9283 0.9606 0.2746 4184.6396 -2295.6353)">
					<stop  offset="3.597120e-03" style="stop-color:#E38DDD"/>
					<stop  offset="1" style="stop-color:#9571F6"/>
				</linearGradient>
				<path class="st37" d="M2142.2,1471.1c16,6.4,24.3,23.4,18.4,37.8L1785,2427.5c-6.3,15.5-25.1,22.6-41.6,15.7l-604.6-251.3
					c-16.2-6.7-24-24.7-17.3-39.8l375.9-905.7c6.2-14.1,24.1-20.6,39.8-14.4L2142.2,1471.1z"/>
				<g class="st38">
					<path class="st0" d="M1688.4,2099.6l-63.6,149.1c-2.8,6.7-10.8,10.2-17.6,7.9l-37.5-12.6c-6.9-2.3-10.1-9.6-7.3-16.3l64.1-149
						c2.8-6.6,10.7-10,17.5-7.8l37.2,12.5C1687.9,2085.8,1691.2,2093,1688.4,2099.6z"/>
					<path class="st0" d="M1772.1,1903.4l-62.5,146.3c-2.8,6.5-10.6,10-17.4,7.7l-37.2-12.5c-6.8-2.3-10-9.5-7.2-16l62.9-146.3
						c2.8-6.4,10.5-9.8,17.3-7.6l36.8,12.5C1771.6,1889.9,1774.9,1897,1772.1,1903.4z"/>
					<path class="st0" d="M1854.4,1710.8l-61.4,143.7c-2.7,6.4-10.5,9.8-17.2,7.5l-36.8-12.5c-6.7-2.3-10-9.4-7.2-15.8l61.8-143.6
						c2.7-6.3,10.4-9.6,17.1-7.4l36.5,12.4C1853.8,1697.5,1857.1,1704.5,1854.4,1710.8z"/>
					<path class="st0" d="M1935.1,1521.7l-60.2,141.1c-2.7,6.3-10.3,9.6-17,7.3l-36.4-12.4c-6.7-2.3-9.9-9.3-7.2-15.6l60.7-141
						c2.7-6.2,10.3-9.4,16.8-7.2l36.1,12.4C1934.5,1508.6,1937.8,1515.5,1935.1,1521.7z"/>
				</g>
				<g>
					
						<linearGradient id="SVGID_32_" gradientUnits="userSpaceOnUse" x1="-5283.4307" y1="-1083.4586" x2="-4735.1323" y2="-772.632" gradientTransform="matrix(0.367 -0.9283 0.9606 0.2746 4184.6396 -2295.6353)">
						<stop  offset="0" style="stop-color:#F57E53"/>
						<stop  offset="4.537139e-03" style="stop-color:#F58152"/>
						<stop  offset="4.198170e-02" style="stop-color:#F99A4D"/>
						<stop  offset="8.401687e-02" style="stop-color:#FCAD49"/>
						<stop  offset="0.1333" style="stop-color:#FEBA46"/>
						<stop  offset="0.1962" style="stop-color:#FFC244"/>
						<stop  offset="0.3183" style="stop-color:#FFC444"/>
						<stop  offset="0.455" style="stop-color:#FDB946"/>
						<stop  offset="0.6941" style="stop-color:#F99C4C"/>
						<stop  offset="0.9964" style="stop-color:#F36F56"/>
					</linearGradient>
					<path class="st39" d="M1508.6,2109.8l-30,70.7c-5.5,12.9-21.2,18.7-35,13l-75-31c-13.7-5.7-20.4-20.8-14.9-33.6l30.3-70.4
						c5.5-12.7,21.1-18.5,34.8-12.9l74.7,30.7C1507.3,2081.9,1514,2097,1508.6,2109.8z"/>
					
						<linearGradient id="SVGID_33_" gradientUnits="userSpaceOnUse" x1="-5108.1362" y1="-892.6919" x2="-4987.2124" y2="-892.6919" gradientTransform="matrix(0.3746 -0.924 0.9606 0.2746 4179.5039 -2299.4614)">
						<stop  offset="0" style="stop-color:#FF9085"/>
						<stop  offset="1" style="stop-color:#FB6FBB"/>
					</linearGradient>
					<path class="st40" d="M1499.3,2111.8l-25.8,60.7c-5.1,11.9-19.5,17.3-32.3,12l-64.4-26.6c-12.7-5.3-18.9-19.2-13.8-31l26-60.5
						c5.1-11.8,19.5-17.1,32.1-11.9l64.2,26.4C1498.1,2086.1,1504.3,2099.9,1499.3,2111.8z M1366.3,2128.2
						c-4.4,10.2,0.9,22.2,11.9,26.7l64.4,26.6c11,4.5,23.4-0.1,27.8-10.4l25.8-60.7c4.3-10.2-1-22.1-12-26.6l-64.2-26.4
						c-10.9-4.5-23.3,0.1-27.7,10.3L1366.3,2128.2z"/>
					<g>
						<g>
							<path class="st0" d="M1385.5,2159.7l43.1-100.5L1385.5,2159.7z"/>
							
								<linearGradient id="SVGID_34_" gradientUnits="userSpaceOnUse" x1="-5086.7764" y1="-969.0939" x2="-4977.2114" y2="-969.0939" gradientTransform="matrix(0.367 -0.9283 0.9606 0.2746 4184.6396 -2295.6353)">
								<stop  offset="0" style="stop-color:#FF9085"/>
								<stop  offset="1" style="stop-color:#FB6FBB"/>
							</linearGradient>
							<polygon class="st41" points="1430.1,2059.9 1387.1,2160.4 1383.9,2159 1426.9,2058.5 							"/>
						</g>
						<g>
							<path class="st0" d="M1409.7,2169.7l43-100.6L1409.7,2169.7z"/>
							
								<linearGradient id="SVGID_35_" gradientUnits="userSpaceOnUse" x1="-5089.7607" y1="-942.8076" x2="-4980.1382" y2="-942.8076" gradientTransform="matrix(0.367 -0.9283 0.9606 0.2746 4184.6396 -2295.6353)">
								<stop  offset="0" style="stop-color:#FF9085"/>
								<stop  offset="1" style="stop-color:#FB6FBB"/>
							</linearGradient>
							<polygon class="st42" points="1454.2,2069.8 1411.3,2170.4 1408.1,2169 1451.1,2068.5 							"/>
						</g>
						<g>
							<path class="st0" d="M1433.9,2179.7l42.9-100.7L1433.9,2179.7z"/>
							
								<linearGradient id="SVGID_36_" gradientUnits="userSpaceOnUse" x1="-5092.7476" y1="-916.4991" x2="-4983.0674" y2="-916.4991" gradientTransform="matrix(0.367 -0.9283 0.9606 0.2746 4184.6396 -2295.6353)">
								<stop  offset="0" style="stop-color:#FF9085"/>
								<stop  offset="1" style="stop-color:#FB6FBB"/>
							</linearGradient>
							<polygon class="st43" points="1478.4,2079.7 1435.5,2180.4 1432.3,2179 1475.2,2078.4 							"/>
						</g>
					</g>
					<g>
						<path class="st44" d="M1479.2,2122.6l-12,28.1c-3,7.2-11.8,10.4-19.5,7.3l-56.2-23.2c-7.6-3.2-11.4-11.6-8.3-18.7l12-28.1
							c3.1-7.1,11.8-10.4,19.4-7.2l56.1,23.1C1478.4,2107,1482.2,2115.4,1479.2,2122.6z"/>
						
							<linearGradient id="SVGID_37_" gradientUnits="userSpaceOnUse" x1="-5082.1592" y1="-892.6687" x2="-5012.9878" y2="-892.6687" gradientTransform="matrix(0.3746 -0.924 0.9606 0.2746 4179.5039 -2299.4614)">
							<stop  offset="0" style="stop-color:#FF9085"/>
							<stop  offset="1" style="stop-color:#FB6FBB"/>
						</linearGradient>
						<path class="st45" d="M1480.8,2123.2l-12,28.1c-3.4,8-13.1,11.6-21.7,8.1l-56.2-23.2c-8.5-3.5-12.7-12.9-9.3-20.9l12-28.1
							c3.4-8,13.1-11.6,21.7-8l56.1,23.1C1480,2105.9,1484.2,2115.3,1480.8,2123.2z M1384.8,2116.7c-2.7,6.3,0.6,13.8,7.4,16.6
							l56.2,23.2c6.8,2.8,14.5-0.1,17.2-6.4l12-28.1c2.7-6.3-0.6-13.7-7.4-16.5l-56.1-23.1c-6.8-2.8-14.5,0.1-17.2,6.4
							L1384.8,2116.7z"/>
					</g>
				</g>
				
					<linearGradient id="SVGID_38_" gradientUnits="userSpaceOnUse" x1="-5199.2363" y1="-645.9913" x2="-3489.5522" y2="-582.3926" gradientTransform="matrix(0.367 -0.9283 0.9606 0.2746 4184.6396 -2295.6353)">
					<stop  offset="0" style="stop-color:#FB6FBB"/>
					<stop  offset="1" style="stop-color:#FF9085"/>
				</linearGradient>
				<path class="st46" d="M1755.1,2060.3c-21.9,79.7-41.3,128.2-82.9,174.8c-57.1,63.9-128.2,93.1-172.7,106.8l243.8,101.3
					c16.5,6.9,35.3-0.2,41.6-15.7l375.7-918.5c5.9-14.4-2.4-31.4-18.4-37.8l-96.9-38.4c-147.7,100.7-203.5,203.4-226.7,280.4
					C1790.6,1806.2,1807.2,1871,1755.1,2060.3z"/>
				<g class="st47">
					
						<linearGradient id="SVGID_39_" gradientUnits="userSpaceOnUse" x1="-5151.8521" y1="-561.037" x2="-4909.4434" y2="-561.037" gradientTransform="matrix(0.3746 -0.924 0.9606 0.2746 4179.5039 -2299.4614)">
						<stop  offset="0" style="stop-color:#FB6FBB"/>
						<stop  offset="1" style="stop-color:#FF9085"/>
					</linearGradient>
					<path class="st48" d="M1823.4,2102.1l-84.8,205.6c-1.6,3.9-6.4,5.7-10.6,4l-34.5-14.3c-4.2-1.7-6.3-6.3-4.7-10.3l85.2-205.3
						c1.6-3.8,6.3-5.6,10.5-3.9l34.3,14C1822.9,2093.7,1825,2098.3,1823.4,2102.1z"/>
					
						<linearGradient id="SVGID_40_" gradientUnits="userSpaceOnUse" x1="-4797.543" y1="-557.444" x2="-4481.8975" y2="-557.444" gradientTransform="matrix(0.3746 -0.924 0.9606 0.2746 4179.5039 -2299.4614)">
						<stop  offset="0" style="stop-color:#FB6FBB"/>
						<stop  offset="1" style="stop-color:#FF9085"/>
					</linearGradient>
					<path class="st49" d="M1987.4,1707.7l-112.9,273.5c-1.6,3.9-6.4,5.7-10.5,4l-34.5-14c-4.2-1.7-6.3-6.3-4.7-10.2l113.3-273.1
						c1.6-3.8,6.3-5.6,10.4-3.9l34.2,13.7C1986.8,1699.4,1988.9,1703.9,1987.4,1707.7z"/>
				</g>
				
					<linearGradient id="SVGID_41_" gradientUnits="userSpaceOnUse" x1="-4084.8467" y1="-1616.1666" x2="-3916.3066" y2="-1616.1666" gradientTransform="matrix(0.2591 -0.9498 0.998 0.1641 4255.0259 -2080.0344)">
					<stop  offset="0" style="stop-color:#FF9085"/>
					<stop  offset="1" style="stop-color:#FB6FBB"/>
				</linearGradient>
				<path class="st50" d="M1637,1377.9c41.6,16.6,60.8,64.7,42.9,107.1c-17.7,42-65.1,62.5-105.9,46.1
					c-40.8-16.4-60.2-63.5-43.2-105.7C1547.8,1382.8,1595.4,1361.4,1637,1377.9z"/>
				<g class="st51">
					<path class="st0" d="M1481.7,2018.6c2.7,6.6-0.5,14.3-7.1,17.1c-6.7,2.8-14.4-0.3-17.1-7c-2.7-6.7,0.6-14.3,7.3-17.1
						C1471.5,2008.9,1479,2012,1481.7,2018.6z"/>
					<g>
						<path class="st0" d="M1544.9,2000.1c-0.4,1.1-1.3,2.1-2.6,2.6c-2.5,1-5.3-0.1-6.4-2.6c-15.9-36.7-58.4-54-96-39.2
							c-2.5,1-5.4-0.2-6.4-2.6c-1-2.4,0.3-5.2,2.8-6.2c42.4-16.6,90.4,3,108.4,44.3C1545.3,1997.6,1545.3,1999,1544.9,2000.1z"/>
						<path class="st0" d="M1527,2007.6c-0.5,1.2-1.4,2.1-2.6,2.7c-2.5,1.1-5.4-0.1-6.4-2.6c-11.6-27.2-43.1-40.1-70.8-28.9
							c-2.6,1-5.4-0.2-6.4-2.6c-1-2.5,0.3-5.3,2.8-6.3c32.7-13,69.7,2.1,83.4,34.1C1527.5,2005.1,1527.5,2006.5,1527,2007.6z"/>
						<path class="st0" d="M1508.9,2015.3c-0.5,1.2-1.4,2.2-2.7,2.7c-2.5,1.1-5.4-0.1-6.5-2.7c-7.3-17.5-27.6-25.8-45.3-18.5
							c-2.6,1-5.5-0.1-6.5-2.6c-1-2.5,0.3-5.4,2.8-6.4c11.1-4.5,23.2-4.5,34.1,0c10.9,4.5,19.4,12.9,24,23.8
							C1509.4,2012.7,1509.4,2014.1,1508.9,2015.3z"/>
					</g>
				</g>
			</g>
			<g>
				<linearGradient id="SVGID_42_" gradientUnits="userSpaceOnUse" x1="1258.9818" y1="1943.7689" x2="905.2802" y2="2057.2825">
					<stop  offset="0" style="stop-color:#FCB148"/>
					<stop  offset="5.207239e-02" style="stop-color:#FDBA46"/>
					<stop  offset="0.1424" style="stop-color:#FFC244"/>
					<stop  offset="0.3183" style="stop-color:#FFC444"/>
					<stop  offset="0.4849" style="stop-color:#FDB946"/>
					<stop  offset="0.7754" style="stop-color:#F99C4D"/>
					<stop  offset="0.8658" style="stop-color:#F8924F"/>
					<stop  offset="1" style="stop-color:#F8924F"/>
				</linearGradient>
				<path class="st52" d="M1666.2,1930.9c0,164.1-128.3,293.2-292.3,288.1c-170.7-5.2-314.2-152.6-314.2-329
					c0-176.4,143.5-304.4,314.2-286.7C1537.9,1620.5,1666.2,1766.8,1666.2,1930.9z"/>
				<linearGradient id="SVGID_43_" gradientUnits="userSpaceOnUse" x1="1545.1058" y1="1591.6943" x2="1229.3427" y2="2288.3267">
					<stop  offset="0" style="stop-color:#FFDB44"/>
					<stop  offset="1" style="stop-color:#FEEF06"/>
				</linearGradient>
				<path class="st53" d="M1710.5,1916.8c0,164.1-128.3,293.2-292.3,288.1c-170.7-5.2-314.2-152.6-314.2-329
					c0-176.4,143.5-304.4,314.2-286.7C1582.2,1606.3,1710.5,1752.7,1710.5,1916.8z"/>
				<linearGradient id="SVGID_44_" gradientUnits="userSpaceOnUse" x1="1487.0211" y1="2327.262" x2="1426.0939" y2="1994.4189">
					<stop  offset="0" style="stop-color:#FCB148"/>
					<stop  offset="5.207239e-02" style="stop-color:#FDBA46"/>
					<stop  offset="0.1424" style="stop-color:#FFC244"/>
					<stop  offset="0.3183" style="stop-color:#FFC444"/>
					<stop  offset="0.4849" style="stop-color:#FDB946"/>
					<stop  offset="0.7754" style="stop-color:#F99C4D"/>
					<stop  offset="0.8658" style="stop-color:#F8924F"/>
					<stop  offset="1" style="stop-color:#F8924F"/>
				</linearGradient>
				<path class="st54" d="M1697.6,1915.9c0,156.9-122.8,280-279.4,275c-162.7-5.3-299.4-145.9-299.4-314s136.6-290.3,299.4-273.6
					C1574.8,1619.3,1697.6,1759.1,1697.6,1915.9z"/>
				<linearGradient id="SVGID_45_" gradientUnits="userSpaceOnUse" x1="1357.844" y1="1788.5188" x2="1608.9329" y2="2321.5327">
					<stop  offset="0" style="stop-color:#FCB148"/>
					<stop  offset="5.207239e-02" style="stop-color:#FDBA46"/>
					<stop  offset="0.1424" style="stop-color:#FFC244"/>
					<stop  offset="0.3183" style="stop-color:#FFC444"/>
					<stop  offset="0.4849" style="stop-color:#FDB946"/>
					<stop  offset="0.7754" style="stop-color:#F99C4D"/>
					<stop  offset="0.8658" style="stop-color:#F8924F"/>
					<stop  offset="1" style="stop-color:#F8924F"/>
				</linearGradient>
				<path class="st55" d="M1688.4,1915.3c0,151.7-118.8,270.7-270.2,265.6c-157.1-5.3-288.8-141.1-288.8-303.3
					s131.7-280.2,288.8-264.3C1569.6,1628.6,1688.4,1763.6,1688.4,1915.3z"/>
				<g>
					<linearGradient id="SVGID_46_" gradientUnits="userSpaceOnUse" x1="1347.8403" y1="1673.8212" x2="1474.0964" y2="2147.0068">
						<stop  offset="0" style="stop-color:#FFDB44"/>
						<stop  offset="1" style="stop-color:#FEEF06"/>
					</linearGradient>
					<path class="st56" d="M1416.6,1664.9L1416.6,1664.9c8.1,0.8,14.6,8,14.6,16.2v27.9c16.1,1.8,32.2,4.6,48.4,8.4
						c11.9,2.8,23.7,6.1,35.5,10c7,2.3,11.8,9.4,11.1,16.8l-3.4,35c-0.9,9.3-10.1,14.7-18.7,10.9c-7.7-3.5-15.7-6.4-23.8-8.9
						c-14.2-4.3-29.2-7.1-44.9-8.4l-4.1-0.3v80c42,11.8,72.9,27.6,92.8,47.5c19.9,19.8,29.7,44.5,29.7,74.1c0,32-10.9,57.7-32.9,77
						c-22.1,19.5-53,30.4-93,32.8v30.8c0,8.2-6.5,14.6-14.6,14.2l-0.3,0c-8.1-0.3-14.6-7.2-14.6-15.5v-30.4l-6.5-0.3
						c-18.8-0.8-36.7-2.8-53.9-5.7c-12.7-2.2-25.1-5.1-37.3-8.6c-7.3-2.1-12.4-9.1-11.7-16.6l4-45c0.9-9.7,10.6-15.4,19.9-11.7
						c10.8,4.3,21.7,7.8,32.8,10.8c17.2,4.5,34.7,7.5,52.4,8.8l0.3-89c-40.3-10-70.6-24.8-90.4-44.4c-19.9-19.7-29.9-44.9-29.9-75.5
						c0-31.7,10.8-56.1,32.5-73.3c21.5-17.1,52.1-25.6,91.5-25.6v-28.6C1402,1670.2,1408.6,1664.1,1416.6,1664.9z M1402,1771.7
						c-12.5,0.9-22.2,4.3-29.2,10.3c-7,6-10.5,14-10.5,24c0,9.5,3.2,17.5,9.7,23.9c6.4,6.4,16.4,11.5,29.9,15.3V1771.7z
						 M1427.9,1932.8v81.6c13.6,0,23.9-3.2,31.2-9.7c7.2-6.5,10.9-15.6,10.9-27.5c0-10.8-3.4-19.7-10.1-26.9
						C1453.1,1943.2,1442.4,1937.3,1427.9,1932.8z"/>
				</g>
				<linearGradient id="SVGID_47_" gradientUnits="userSpaceOnUse" x1="1283.9744" y1="1823.0128" x2="1534.5566" y2="2354.9514">
					<stop  offset="0" style="stop-color:#FCB148"/>
					<stop  offset="5.207239e-02" style="stop-color:#FDBA46"/>
					<stop  offset="0.1424" style="stop-color:#FFC244"/>
					<stop  offset="0.3183" style="stop-color:#FFC444"/>
					<stop  offset="0.4849" style="stop-color:#FDB946"/>
					<stop  offset="0.7754" style="stop-color:#F99C4D"/>
					<stop  offset="0.8658" style="stop-color:#F8924F"/>
					<stop  offset="1" style="stop-color:#F8924F"/>
				</linearGradient>
				<path class="st57" d="M1369.3,1952.4c9.1-90.2,92-128.3,81.2-211.3c-6.7-51.1-45.4-94.2-88.6-127.8
					c-131.1,13.7-232.5,122.3-232.5,264.3c0,162.1,131.7,298,288.8,303.3c15.3,0.5,30.1-0.3,44.6-2.2
					C1400.4,2116.6,1361.4,2029.9,1369.3,1952.4z"/>
			</g>
			<g>
				<linearGradient id="SVGID_48_" gradientUnits="userSpaceOnUse" x1="1235.5634" y1="1285.5043" x2="997.3403" y2="1361.9572">
					<stop  offset="0" style="stop-color:#FCB148"/>
					<stop  offset="5.207239e-02" style="stop-color:#FDBA46"/>
					<stop  offset="0.1424" style="stop-color:#FFC244"/>
					<stop  offset="0.3183" style="stop-color:#FFC444"/>
					<stop  offset="0.4849" style="stop-color:#FDB946"/>
					<stop  offset="0.7754" style="stop-color:#F99C4D"/>
					<stop  offset="0.8658" style="stop-color:#F8924F"/>
					<stop  offset="1" style="stop-color:#F8924F"/>
				</linearGradient>
				<path class="st58" d="M1509.8,1276.9c0,110.5-86.4,197.5-196.9,194.1c-114.9-3.5-211.6-102.8-211.6-221.6
					c0-118.8,96.7-205,211.6-193.1C1423.4,1067.8,1509.8,1166.3,1509.8,1276.9z"/>
				<linearGradient id="SVGID_49_" gradientUnits="userSpaceOnUse" x1="1428.2719" y1="1048.3771" x2="1215.601" y2="1517.5686">
					<stop  offset="0" style="stop-color:#FFDB44"/>
					<stop  offset="1" style="stop-color:#FEEF06"/>
				</linearGradient>
				<path class="st59" d="M1539.7,1267.3c0,110.5-86.4,197.5-196.9,194.1c-114.9-3.5-211.6-102.8-211.6-221.6s96.7-205,211.6-193.1
					C1453.2,1058.2,1539.7,1156.8,1539.7,1267.3z"/>
				<linearGradient id="SVGID_50_" gradientUnits="userSpaceOnUse" x1="1389.1509" y1="1543.792" x2="1348.1156" y2="1319.6177">
					<stop  offset="0" style="stop-color:#FCB148"/>
					<stop  offset="5.207239e-02" style="stop-color:#FDBA46"/>
					<stop  offset="0.1424" style="stop-color:#FFC244"/>
					<stop  offset="0.3183" style="stop-color:#FFC444"/>
					<stop  offset="0.4849" style="stop-color:#FDB946"/>
					<stop  offset="0.7754" style="stop-color:#F99C4D"/>
					<stop  offset="0.8658" style="stop-color:#F8924F"/>
					<stop  offset="1" style="stop-color:#F8924F"/>
				</linearGradient>
				<path class="st60" d="M1531,1266.7c0,105.6-82.7,188.6-188.2,185.2c-109.6-3.5-201.6-98.3-201.6-211.5
					c0-113.2,92-195.5,201.6-184.3C1448.3,1067,1531,1161.1,1531,1266.7z"/>
				<linearGradient id="SVGID_51_" gradientUnits="userSpaceOnUse" x1="1302.1483" y1="1180.9412" x2="1471.2601" y2="1539.9333">
					<stop  offset="0" style="stop-color:#FCB148"/>
					<stop  offset="5.207239e-02" style="stop-color:#FDBA46"/>
					<stop  offset="0.1424" style="stop-color:#FFC244"/>
					<stop  offset="0.3183" style="stop-color:#FFC444"/>
					<stop  offset="0.4849" style="stop-color:#FDB946"/>
					<stop  offset="0.7754" style="stop-color:#F99C4D"/>
					<stop  offset="0.8658" style="stop-color:#F8924F"/>
					<stop  offset="1" style="stop-color:#F8924F"/>
				</linearGradient>
				<path class="st61" d="M1524.8,1266.3c0,102.2-80,182.3-182,178.9c-105.8-3.6-194.5-95.1-194.5-204.3
					c0-109.2,88.7-188.7,194.5-178C1444.8,1073.2,1524.8,1164.2,1524.8,1266.3z"/>
				<g>
					<linearGradient id="SVGID_52_" gradientUnits="userSpaceOnUse" x1="1295.4108" y1="1103.6908" x2="1380.446" y2="1422.3878">
						<stop  offset="0" style="stop-color:#FFDB44"/>
						<stop  offset="1" style="stop-color:#FEEF06"/>
					</linearGradient>
					<path class="st62" d="M1341.7,1097.7L1341.7,1097.7c5.4,0.5,9.8,5.4,9.8,10.9v18.8c10.9,1.2,21.7,3.1,32.6,5.7
						c8,1.9,16,4.1,23.9,6.7c4.7,1.6,8,6.3,7.5,11.3l-2.3,23.6c-0.6,6.3-6.8,9.9-12.6,7.3c-5.2-2.3-10.6-4.3-16-6
						c-9.6-2.9-19.6-4.8-30.3-5.7l-2.8-0.2v53.9c28.3,7.9,49.1,18.6,62.5,32c13.4,13.3,20,30,20,49.9c0,21.6-7.4,38.9-22.2,51.9
						c-14.9,13.1-35.7,20.5-62.7,22.1v20.8c0,5.5-4.4,9.8-9.8,9.6l-0.2,0c-5.4-0.2-9.9-4.9-9.9-10.4v-20.5l-4.4-0.2
						c-12.6-0.6-24.7-1.9-36.3-3.9c-8.6-1.5-16.9-3.4-25.1-5.8c-4.9-1.4-8.3-6.1-7.9-11.2l2.7-30.3c0.6-6.6,7.2-10.4,13.4-7.9
						c7.3,2.9,14.6,5.3,22.1,7.2c11.6,3.1,23.4,5,35.3,5.9l0.2-59.9c-27.2-6.7-47.5-16.7-60.9-29.9c-13.4-13.3-20.2-30.2-20.2-50.8
						c0-21.3,7.3-37.8,21.9-49.4c14.5-11.5,35.1-17.2,61.6-17.2v-19.2C1331.9,1101.2,1336.3,1097.2,1341.7,1097.7z M1331.9,1169.6
						c-8.4,0.6-14.9,2.9-19.6,6.9c-4.7,4-7,9.4-7,16.2c0,6.4,2.2,11.8,6.5,16.1c4.3,4.3,11.1,7.7,20.2,10.3V1169.6z M1349.3,1278.1
						v55c9.1,0,16.1-2.2,21-6.5c4.9-4.4,7.3-10.5,7.3-18.5c0-7.3-2.3-13.3-6.8-18.1C1366.3,1285.1,1359.1,1281.2,1349.3,1278.1z"/>
				</g>
				<linearGradient id="SVGID_53_" gradientUnits="userSpaceOnUse" x1="1252.3961" y1="1204.1733" x2="1421.1669" y2="1562.4413">
					<stop  offset="0" style="stop-color:#FCB148"/>
					<stop  offset="5.207239e-02" style="stop-color:#FDBA46"/>
					<stop  offset="0.1424" style="stop-color:#FFC244"/>
					<stop  offset="0.3183" style="stop-color:#FFC444"/>
					<stop  offset="0.4849" style="stop-color:#FDB946"/>
					<stop  offset="0.7754" style="stop-color:#F99C4D"/>
					<stop  offset="0.8658" style="stop-color:#F8924F"/>
					<stop  offset="1" style="stop-color:#F8924F"/>
				</linearGradient>
				<path class="st63" d="M1309.9,1291.3c6.1-60.7,62-86.4,54.7-142.3c-4.5-34.4-30.6-63.4-59.7-86.1
					c-88.3,9.3-156.6,82.4-156.6,178c0,109.2,88.7,200.7,194.5,204.3c10.3,0.3,20.3-0.2,30.1-1.5
					C1330.8,1401.9,1304.6,1343.5,1309.9,1291.3z"/>
			</g>
			<g>
				<linearGradient id="SVGID_54_" gradientUnits="userSpaceOnUse" x1="1792.5413" y1="1058.2826" x2="1482.2039" y2="3793.4521">
					<stop  offset="0" style="stop-color:#AB316D"/>
					<stop  offset="1" style="stop-color:#792D3D"/>
				</linearGradient>
				<path class="st64" d="M2146.8,2104.4l65.9,769.1c1.7,19.8-4.3,38.5-17,51.8c-10.8,11.5-25.3,19.3-42.3,20.7l-970.3,81.7
					c-41.1,3.5-76.3-25.8-79.2-65l-61-818.2c-2.9-38.5,27.7-72,68.6-73.4l964.3-31.4C2112.3,2038.6,2143.7,2068.2,2146.8,2104.4z"/>
				<linearGradient id="SVGID_55_" gradientUnits="userSpaceOnUse" x1="4863.6245" y1="1288.5956" x2="450.5655" y2="2953.8987">
					<stop  offset="0" style="stop-color:#AB316D"/>
					<stop  offset="1" style="stop-color:#792D3D"/>
				</linearGradient>
				<path class="st65" d="M2196.8,2925.3c-10.8,11.5-25.7,19.2-42.7,20.7l-970.7,81.7c-41.1,3.5-76.7-25.8-79.6-65l-61-818.2
					c-2.9-38.5,27.7-72,68.6-73.4l11.2-0.4c4.1,21.1,9.5,44.8,14.7,67.6c0.7,3.2,1.5,6.6,2.2,9.6c6.1,26.3,11.2,47.9,12.2,50.6
					c30.3,90.6,73,194.7,163.4,245.4c138.1,77.5,312.9,63.5,458.2,106c95.6,27.9,193.8,65.7,269.9,128.9
					c55.6,46.2,102.5,103.1,130,169.7C2183.1,2872.6,2190.9,2898.6,2196.8,2925.3z"/>
				<g class="st38">
					<path class="st3" d="M2075.8,2912.5C2075.8,2912.5,2075.8,2912.5,2075.8,2912.5l-33.5,2.1c-3.8,0.3-7.2-2.8-7.5-6.6
						c-0.3-3.8,2.5-6.6,6.3-6.9l33.4-2.2c0,0,0,0,0,0c5.7,0,11.3-2.3,16.6-4c3.6-1.2,7.5,0.4,8.7,4c1.2,3.6-0.7,8-4.3,9.2
						C2089.2,2910.1,2082.6,2912.5,2075.8,2912.5z M1990,2918.2l-52.6,4.3c-3.8,0.3-7.2-2.5-7.5-6.3c-0.3-3.8,2.5-7.2,6.4-7.5
						l52.6-4.3c3.8-0.3,7.2,2.5,7.5,6.3S1993.8,2917.9,1990,2918.2z M1884.4,2926.8l-53.2,4.4c-3.9,0.3-7.3-2.5-7.6-6.4
						c-0.3-3.8,2.6-7.2,6.5-7.5l53.2-4.3c3.9-0.3,7.3,2.5,7.6,6.4C1891.2,2923.2,1888.3,2926.5,1884.4,2926.8z M1777.6,2935.6
						l-53.9,4.4c-3.9,0.3-7.4-2.5-7.7-6.4c-0.3-3.9,2.6-7.2,6.6-7.6l53.9-4.4c3.9-0.3,7.3,2.5,7.7,6.4
						C1784.5,2931.9,1781.6,2935.3,1777.6,2935.6z M1669.6,2944.4l-54.5,4.5c-4,0.3-7.5-2.6-7.8-6.4c-0.3-3.9,2.7-7.3,6.7-7.6
						l54.5-4.4c4-0.3,7.4,2.6,7.7,6.4C1676.5,2940.7,1673.5,2944.1,1669.6,2944.4z M1560.2,2953.4l-55.2,4.5c-4,0.3-7.6-2.6-7.9-6.5
						s2.7-7.3,6.8-7.7l55.2-4.5c4-0.3,7.5,2.6,7.8,6.5S1564.2,2953.1,1560.2,2953.4z M1449.5,2962.4l-55.9,4.6
						c-4.1,0.3-7.6-2.6-7.9-6.5c-0.3-3.9,2.8-7.4,6.8-7.7l55.9-4.5c4.1-0.3,7.6,2.6,7.9,6.5
						C1456.5,2958.7,1453.5,2962.1,1449.5,2962.4z M1337.4,2971.6l-56.6,4.6c-4.1,0.3-7.7-2.6-8-6.6c-0.3-4,2.8-7.4,6.9-7.8
						l56.6-4.6c4.1-0.3,7.7,2.6,8,6.5C1344.6,2967.8,1341.5,2971.3,1337.4,2971.6z M1223.9,2979.2c-0.5,0-1,0-1.5,0
						c-20.6-2.3-40.1-11.3-54.8-25.5c-2.9-2.8-2.9-7.4,0.1-10.2c3-2.8,7.8-2.8,10.7,0c12.3,11.8,28.6,19.4,45.9,21.4
						c4.1,0.5,7,4,6.5,8C1230.4,2976.4,1227.4,2979,1223.9,2979.2z M2134.2,2876.5c-1.5,0.1-3-0.2-4.3-1.1c-3.2-2.1-4-6.3-1.9-9.5
						c8.8-13.3,12.7-28.9,11.4-44.9c-0.3-3.8,2.5-7,6.2-7.3c3.7-0.3,7,2.5,7.4,6.3c1.6,19.1-3.1,37.6-13.5,53.5
						C2138.2,2875.3,2136.3,2876.4,2134.2,2876.5z M1149.5,2907.3c-4.1,0.3-7.8-2.3-8.2-6.2c-0.1-1.1-0.3-2-0.4-3.1l-3.9-51.6
						c-0.3-4,2.2-7.5,6.4-7.8c4.2-0.3,7.2,2.6,7.5,6.6l3.9,51.6c0.1,0.9,0.9,1.7,1,2.6c0.4,4-2.2,7.6-6.4,7.9
						C1149.3,2907.2,1149.6,2907.3,1149.5,2907.3z M2145.3,2801.3c-3.8,0.3-5.8-2.5-6.1-6.3l-4.4-51.6c-0.3-3.8,1.2-7,4.9-7.3
						c3.7-0.3,5.8,2.5,6.1,6.3l4.4,51.5C2150.5,2797.8,2149,2801.1,2145.3,2801.3z M1140.4,2798.5c-4.2,0.3-7.2-2.6-7.5-6.6
						l-4.1-54.4c-0.3-4,2.2-7.4,6.4-7.7c4.2-0.3,7.2,2.7,7.5,6.6l4.1,54.4C1147,2794.7,1144.5,2798.2,1140.4,2798.5z M2136.5,2698.3
						c-3.7,0.3-5.8-2.6-6.1-6.3l-4.4-51.5c-0.3-3.7,1.2-7,4.9-7.2c3.7-0.2,5.8,2.6,6.1,6.3l4.4,51.4
						C2141.7,2694.8,2140.2,2698,2136.5,2698.3z M1132.2,2689.7c-4.2,0.3-7.2-2.7-7.5-6.6l-4.1-54.3c-0.3-4,2.2-7.4,6.4-7.7
						c4.2-0.3,7.2,2.7,7.5,6.7l4.1,54.3C1138.9,2686,1136.4,2689.5,1132.2,2689.7z M2127.7,2595.5c-3.7,0.2-5.8-2.6-6.1-6.3
						l-4.4-51.4c-0.3-3.7,1.2-7,4.9-7.2c3.7-0.2,5.8,2.6,6.1,6.4l4.4,51.3C2133,2592,2131.5,2595.2,2127.7,2595.5z M1124.1,2581.2
						c-4.2,0.3-7.2-2.7-7.5-6.7l-4.1-54.2c-0.3-3.9,2.2-7.4,6.4-7.6c4.2-0.2,7.2,2.8,7.5,6.7l4.1,54.1
						C1130.7,2577.5,1128.2,2580.9,1124.1,2581.2z M2119,2492.9c-3.7,0.2-5.8-2.6-6.1-6.4l-4.4-51.2c-0.3-3.7,1.2-6.9,4.9-7.1
						c3.7-0.2,5.8,2.7,6.1,6.4l4.4,51.2C2124.3,2489.4,2122.8,2492.6,2119,2492.9z M1115.9,2472.9c-4.2,0.2-7.2-2.8-7.5-6.7
						l-4.1-54.1c-0.3-3.9,2.2-7.3,6.4-7.5c4.2-0.2,7.2,2.8,7.4,6.7l4.1,54C1122.6,2469.3,1120.1,2472.7,1115.9,2472.9z
						 M2110.3,2390.4c-3.7,0.2-5.8-2.7-6.1-6.4l-4.3-51.1c-0.3-3.7,1.2-6.9,4.9-7.1c3.7-0.2,5.8,2.7,6.1,6.4l4.3,51.1
						C2115.6,2387.1,2114.1,2390.3,2110.3,2390.4z M1107.8,2364.8c-4.2,0.2-7.2-2.8-7.5-6.8l-4-54c-0.3-3.9,2.2-7.3,6.4-7.5
						c4.2-0.2,7.1,2.8,7.4,6.8l4,53.9C1114.5,2361.3,1112,2364.6,1107.8,2364.8z M2101.6,2288.3c-3.7,0.2-5.8-2.7-6.1-6.4l-4.3-51
						c-0.3-3.7,1.2-6.8,4.9-7c3.7-0.2,5.8,2.7,6.1,6.5l4.3,51C2106.9,2284.9,2105.4,2288.1,2101.6,2288.3z M1099.7,2257
						c-4.2,0.2-7.2-2.9-7.4-6.8l-3-40.5c-0.4-4.8-0.2-9.7,0.3-14.5c0.4-3.9,4.2-6.6,8.3-6.2c4.2,0.5,6.5,4,6.1,7.9
						c-0.4,4-1.2,8.1-0.9,12.2l3,40.5C1106.4,2253.5,1103.9,2256.8,1099.7,2257z M2092.9,2186.3c-3.7,0.2-5.8-2.8-6.1-6.5l-0.8-9.9
						c-1.1-12.6-6.5-24.8-13.9-35.3c-2.2-3.1-2-7.3,1.1-9.3c3.1-2,6.8-1.1,9,2c8.8,12.5,13.6,27.1,14.9,42.1l0.8,9.9
						C2098.2,2183,2096.7,2186.1,2092.9,2186.3z M1121.1,2155.8c-2,0.1-4.1-0.6-5.7-2.1c-3-2.8-3.1-7.3-0.3-10
						c14.4-13.8,33.6-22.5,54.1-24.6c4.1-0.4,7.9,2.4,8.5,6.2c0.6,3.9-2.2,7.4-6.3,7.8c-17.2,1.8-33.3,9.1-45.3,20.7
						C1124.7,2155,1122.9,2155.7,1121.1,2155.8z M2035.9,2106.9c-0.8,0-1.7-0.1-2.5-0.4c-8.4-2.8-17-4.1-25.8-3.7l-23.2,0.8
						c-3.8,0.1-7.1-2.8-7.4-6.5c-0.3-3.7,2.5-6.9,6.3-7l23.2-0.8c10.5-0.4,20.8,1.1,30.8,4.5c3.6,1.2,5.7,5,4.6,8.6
						C2041,2105.1,2038.6,2106.8,2035.9,2106.9z M1932.3,2105.5l-52.3,1.9c-3.8,0.1-7.2-2.8-7.5-6.5c-0.3-3.7,2.5-6.9,6.4-7
						l52.3-1.8c3.8-0.1,7.1,2.8,7.4,6.5C1939,2102.2,1936.1,2105.4,1932.3,2105.5z M1827.4,2109.3l-52.9,1.9
						c-3.9,0.1-7.3-2.8-7.6-6.6c-0.3-3.8,2.6-6.9,6.4-7.1l52.9-1.9c3.8-0.1,7.2,2.8,7.5,6.6
						C1834.1,2106,1831.2,2109.1,1827.4,2109.3z M1721.2,2113.1l-53.6,1.9c-3.9,0.1-7.3-2.8-7.6-6.6c-0.3-3.8,2.6-7,6.5-7.1
						l53.6-1.9c3.9-0.1,7.3,2.8,7.6,6.6C1728,2109.8,1725.1,2113,1721.2,2113.1z M1613.7,2117l-54.2,1.9c-4,0.1-7.4-2.8-7.7-6.7
						c-0.3-3.8,2.7-7,6.6-7.2l54.2-1.9c3.9-0.1,7.4,2.8,7.7,6.6C1620.6,2113.6,1617.7,2116.8,1613.7,2117z M1505,2120.9l-54.9,2
						c-4,0.1-7.5-2.9-7.8-6.7c-0.3-3.8,2.7-7.1,6.7-7.2l54.9-1.9c4-0.1,7.5,2.8,7.8,6.7C1511.9,2117.5,1509,2120.7,1505,2120.9z
						 M1394.9,2124.8l-55.5,2c-4.1,0.1-7.6-2.9-7.9-6.7c-0.3-3.9,2.8-7.1,6.8-7.3l55.5-2c4-0.1,7.5,2.9,7.8,6.7
						C1402,2121.4,1398.9,2124.7,1394.9,2124.8z M1283.5,2128.8l-56.2,2c-4.1,0.1-7.7-2.9-8-6.8c-0.3-3.9,2.8-7.2,6.9-7.3l56.2-2
						c4.1-0.1,7.6,2.9,7.9,6.8C1290.6,2125.4,1287.6,2128.7,1283.5,2128.8z"/>
				</g>
				<linearGradient id="SVGID_56_" gradientUnits="userSpaceOnUse" x1="3151.9219" y1="2125.6162" x2="1761.3376" y2="2650.3645">
					<stop  offset="0" style="stop-color:#AB316D"/>
					<stop  offset="1" style="stop-color:#792D3D"/>
				</linearGradient>
				<path class="st66" d="M2185.9,2316.2c-5.9-3.6-13-4.2-19.2-1.5l-197.3,84.4c-28.3,12.2-47.6,40.9-45.1,71.7l6.8,81.9
					c2.7,32.8,29.3,60.2,61.8,67.4l204.2,44.7c6.5,1.4,13.4-0.3,18.4-4.6c4.9-4.3,7.8-10.7,7.2-17.3l-26.7-310.2
					C2195.4,2326,2191.8,2319.8,2185.9,2316.2z"/>
				<linearGradient id="SVGID_57_" gradientUnits="userSpaceOnUse" x1="2279.5842" y1="2404.782" x2="1930.6979" y2="2536.437">
					<stop  offset="0" style="stop-color:#FFC444"/>
					<stop  offset="0.9964" style="stop-color:#F36F56"/>
				</linearGradient>
				<path class="st67" d="M2055.6,2502.5c1.9,22.7-15,42.2-37.9,43.6c-22.9,1.4-43.1-15.9-45-38.7c-1.9-22.8,15.2-42.3,38.1-43.6
					C2033.6,2462.5,2053.6,2479.9,2055.6,2502.5z"/>
			</g>
		</g>
	</g>
</g>
</svg>
