<svg xmlns="http://www.w3.org/2000/svg" viewBox="0 0 724.37 700.03"><defs><style>.cls-1{fill:#f7fbfe;}.cls-2{fill:#cee7fd;}.cls-3{fill:#edf8fe;}.cls-4{fill:#e6ebef;}.cls-5{fill:#2ab900;}.cls-6{fill:#c6cacc;}.cls-7{fill:#a3b5ec;}.cls-8{fill:#e9f8e5;}.cls-9{fill:#d4f0cb;}.cls-10{fill:#c3e2fb;}.cls-11{fill:#71dbeb;}.cls-12{fill:#0daed2;}.cls-13{fill:#aeeaf3;}.cls-14{fill:#15aed0;}.cls-15{fill:#a8bbee;}.cls-16{fill:#c542a4;}.cls-17{fill:#eaf0fe;}.cls-18{fill:#fefefe;}.cls-19{fill:#fda500;}.cls-20{fill:#a1b3eb;}.cls-21{fill:#d6eafd;}.cls-22{fill:#fcec01;}.cls-23{fill:#fda601;}.cls-24{fill:#fda600;}.cls-25{fill:#2fbb06;}.cls-26{fill:#2fbb07;}.cls-27{fill:#f2df04;}.cls-28{fill:#1f7c02;}.cls-29{fill:#fda804;}.cls-30{fill:#fda704;}.cls-31{fill:#fdb901;}.cls-32{fill:#fcd500;}.cls-33{fill:#f9e701;}.cls-34{fill:#fdc502;}.cls-35{fill:#fccc0d;}.cls-36{fill:#f2f6f9;}.cls-37{fill:#97a4ac;}.cls-38{fill:#98a4ac;}.cls-39{fill:#96a2aa;}.cls-40{fill:#798389;}.cls-41{fill:#798388;}.cls-42{fill:#7b858a;}.cls-43{fill:#fe50b3;}.cls-44{fill:#f343af;}.cls-45{fill:#2d9bfd;}.cls-46{fill:#f8fbfe;}.cls-47{fill:#087dfd;}.cls-48{fill:#fcfdfe;}.cls-49{fill:#fbfdfb;}.cls-50{fill:#444fc4;}.cls-51{fill:#004870;}.cls-52{fill:#f30622;}.cls-53{fill:#febe0d;}.cls-54{fill:#2f3535;}.cls-55{fill:#f59407;}.cls-56{fill:#fcf8fb;}.cls-57{fill:#fcfcfd;}.cls-58{fill:#fcf9fb;}.cls-59{fill:#fefefd;}.cls-60{fill:#fdf9ee;}.cls-61{fill:#dee4fb;}.cls-62{fill:#dbe2fb;}.cls-63{fill:#dae1fa;}.cls-64{fill:#dbe1fa;}.cls-65{fill:#e0e8fb;}.cls-66{fill:#033b5b;}.cls-67{fill:#cce7f7;}.cls-68{fill:#d8dffb;}.cls-69{fill:#d8e0fb;}.cls-70{fill:#dae1fb;}.cls-71{fill:#d9dff9;}.cls-72{fill:#ccd0de;}.cls-73{fill:#fcea01;}.cls-74{fill:#fdfdfd;}.cls-75{fill:#dee5fb;}.cls-76{fill:#fce901;}.cls-77{fill:#fce601;}.cls-78{fill:#fdfefe;}.cls-79{fill:#dce3fb;}.cls-80{fill:#fdb800;}.cls-81{fill:#d9defa;}.cls-82{fill:#dbe2fa;}.cls-83{fill:#fdcd00;}.cls-84{fill:#fe9e8b;}.cls-85{fill:#e0e8fa;}.cls-86{fill:#cde7f7;}.cls-87{fill:#f4f4f3;}.cls-88{fill:#fdac06;}.cls-89{fill:#fdaa05;}.cls-90{fill:#e0e6fb;}.cls-91{fill:#f4f3ee;}.cls-92{fill:#f4f3f0;}.cls-93{fill:#fbb007;}.cls-94{fill:#fab20f;}.cls-95{fill:#fbb307;}.cls-96{fill:#f9b901;}.cls-97{fill:#e5f2fb;}.cls-98{fill:#0b0e45;}.cls-99{fill:#fe9d8a;}.cls-100{fill:#95a2aa;}.cls-101{fill:#e5e6e6;}.cls-102{fill:#fe8d75;}.cls-103{fill:#e6e7e7;}.cls-104{fill:#ededed;}.cls-105{fill:#ced2d5;}.cls-106{fill:#828c90;}.cls-107{fill:#838c92;}.cls-108{fill:#e4e4e4;}.cls-109{fill:#838c91;}.cls-110{fill:#828c91;}.cls-111{fill:#7f898e;}.cls-112{fill:#7a848a;}.cls-113{fill:#80898d;}.cls-114{fill:#858e93;}.cls-115{fill:#828b90;}.cls-116{fill:#edf7fe;}.cls-117{fill:#f848b0;}.cls-118{fill:#ecf7fe;}.cls-119{fill:#077cfd;}.cls-120{fill:#0f83fd;}.cls-121{fill:#d8ebfd;}.cls-122{fill:#fdbe0d;}.cls-123{fill:#f20622;}.cls-124{fill:#fdfdfe;}.cls-125{fill:#f9f9fc;}.cls-126{fill:#f8f9fc;}.cls-127{fill:#f9fafc;}.cls-128{fill:#c343a5;}.cls-129{fill:#fcfdfd;}.cls-130{fill:#f39507;}.cls-131{fill:#dde3fb;}.cls-132{fill:#d2d8f6;}.cls-133{fill:#dde4fb;}.cls-134{fill:#fdfefd;}.cls-135{fill:#fbfcfd;}.cls-136{fill:#f6f8fb;}.cls-137{fill:#f9fafb;}.cls-138{fill:#f1f5f7;}.cls-139{fill:#dfe5fb;}.cls-140{fill:#eef2f5;}.cls-141{fill:#dae3f7;}.cls-142{fill:#cbcfe9;}.cls-143{fill:#dae2f7;}.cls-144{fill:#d2dbf9;}.cls-145{fill:#d1dbf4;}.cls-146{fill:#cdd0de;}.cls-147{fill:#e0e7fc;}.cls-148{fill:#dce2fa;}.cls-149{fill:#dbe3fb;}.cls-150{fill:#dae0fb;}.cls-151{fill:#dae0fa;}.cls-152{fill:#d9e0fb;}.cls-153{fill:#dfe6fb;}.cls-154{fill:#d8dffa;}.cls-155{fill:#d9e0fa;}.cls-156{fill:#dbe1fb;}.cls-157{fill:gray;}.cls-158{fill:#eaeefc;}.cls-159{fill:#d8ebf7;}.cls-160{fill:#fcec02;}.cls-161{fill:#fda908;}.cls-162{fill:#fdad08;}.cls-163{fill:#fcb411;}.cls-164{fill:#fcb010;}.cls-165{fill:#fdba00;}.cls-166{fill:#fceb03;}.cls-167{fill:#fcae10;}.cls-168{fill:#fcb20b;}.cls-169{fill:#fce809;}.cls-170{fill:#fdb112;}.cls-171{fill:#fcb311;}.cls-172{fill:#fce60b;}.cls-173{fill:#fcb50f;}.cls-174{fill:#fdb201;}.cls-175{fill:#4da1fd;}.cls-176{fill:#97a3ab;}.cls-177{fill:#efefef;}.cls-178{fill:#fcd016;}.cls-179{fill:#e7edf0;}.cls-180{fill:#96a3ab;}.cls-181{fill:#e7ecf0;}.cls-182{fill:#e6ecf0;}.cls-183{fill:#e6ecef;}.cls-184{fill:#389ffd;}.cls-185{fill:#1385fd;}.cls-186{fill:#919394;}.cls-187{fill:#d4ddfa;}.cls-188{fill:#d7dffa;}.cls-189{fill:#d7def9;}.cls-190{fill:#d7defa;}</style></defs><title>Asset 6</title><g id="Layer_2" data-name="Layer 2"><g id="Layer_3" data-name="Layer 3"><path class="cls-1" d="M1.13,498.09c-1.57-1.51-.93-3.46-.93-5.22,0-22.83-.49-45.67.11-68.49.52-20.1,3-40.06,11.88-58.5a221.9,221.9,0,0,1,12.47-22.57C33.7,329,45.29,317,57.38,305.52c9-8.54,19.1-15.75,29.27-22.89,11.94-8.38,24.67-15.36,37.55-22.06,7.49-3.9,14.94-7.94,23-10.71,5.76-2,11.09-5.17,17-6.77,2.16,2.58,1.5,5.7,1.5,8.62q.08,71.64.05,143.29c0,4.46-.2,9,2,13.08,4.2,1.9,3.49,6,4.22,9.45,1.33,3.35,4.27,5,7.16,6.62,15.05,8.4,30,17.06,45,25.57,1.8,1,4.14,1.62,4.28,4.33-4.57,5.31-11.11,7.7-16.93,11.07q-39.62,23-79.32,45.84c-2.33,1.34-4.65,2.7-4.93,5.78-.61,3.14,1.87,4.13,3.77,5.6,2.36,1.82,5.76,2.54,6.62,6-1.1,3.48-4.62,4.08-7.13,5.82-4.27,3-4.54,4.41-.15,7.13,9.48,5.85,19.21,11.29,28.87,16.85,20.48,11.78,41,23.56,61.34,35.52,5.54,3.26,10.34,3.28,15.82.14C264,578,291.38,561.87,319,546.14c3.26-1.86,6-2.24,9.19-.06,5.36,3.66,10.74,3.44,16.36.07q9-5.39,18.11-10.54c2.33-1.32,4.64-2.65,7.41-2.76,8.43,2,15.46-1.07,22.61-5.28,32.57-19.2,65.44-37.9,98.17-56.83q67.5-39,135.06-77.92c3.21-1.84,6.58-3.48,6.82-7.86.37-3.94-2-6-5-7.84-19-11.26-38.25-22.06-57.37-33.09-2-1.16-4.16-2.11-5.68-4a6.11,6.11,0,0,1-.7-2.23c-.14-1.61-.09-3.22-.15-4.82s.05-3.22,0-4.83c0-6.22-2.83-10.68-8.16-13.74-11.05-6.35-22.76-7.41-35-4.49-2.3.55-4.7,2.08-7-.13-1.3-2.47-.59-5.17-.91-7.75.11-3.53.11-7.06.06-10.59,0-2,.09-3.93,0-5.9.74-7.52-3.13-12.45-9.49-15.35-16.19-7.39-32-7.45-47.09,3.13a7.74,7.74,0,0,1-3.08,1.55c-4.8-.06-8.1-3.5-12-5.48-3.26-1.64-6.36-3.52-10.06-4-2.46-.33-4.27-1.57-3.47-4.29,2.21-7.62.64-15.5,1.86-23.17.33-1.61,1.55-2.45,2.84-3.2a48.28,48.28,0,0,0,16.39-16c.78-1.2,1.48-2.63,3.23-2.75,8,.1,15.59,2.27,23.34,3.65A483.09,483.09,0,0,1,531,233.28c19,5.77,37.61,12.57,55.43,21.41,4,2,8.22,3.51,12.24,5.45s1.55-2.87,3.41-3.07c1.95,1.89,1.27,4.35,1.38,6.61.5,9.7,3.2,18.35,11.41,24.44,9.78,6.37,20,7.55,30.64,2.34,1.44-.7,3-1.67,4.63-.38.83,4.56,5.22,5.85,8.11,8.3,16.36,13.84,31.16,29.1,42.75,47.17,10,15.5,17.71,32.15,20.82,50.44a155.73,155.73,0,0,1,2.31,35.12,111.28,111.28,0,0,1-8.43,36.21,172.57,172.57,0,0,1-34.5,52.25c-26.39,27.7-57.83,47.85-92.36,63.8-37.78,17.44-77.32,29-118.15,36.44a541.9,541.9,0,0,1-64.44,7.73c-16.28,1-32.56,2.25-48.88,1.86-60.26-1.46-119.51-9.45-176.82-28.93C138.45,586.14,99,566.74,64.48,538.2c-25-20.71-45.21-45.18-56.75-76C4.31,453,1.84,443.64,1.67,434.4c1.68,18.42.58,37.5.83,56.56C2.53,493.38,3.15,496,1.13,498.09Z"/><path class="cls-2" d="M1.13,498.09v-66.9a145.56,145.56,0,0,0,15.15,47C23.2,491.46,32.1,503.37,42,514.69c13.6,15.53,29.49,28.28,46.37,39.72,22.89,15.52,47.59,27.75,73.42,37.76a510.78,510.78,0,0,0,91.35,25.64c18.37,3.43,36.91,5.79,55.56,7.4,21.35,1.84,42.73,3.29,64.12,2.67,18.36-.54,36.71-1.68,55-3.57A550.07,550.07,0,0,0,513.29,609a468.87,468.87,0,0,0,74.07-26.34C612,571.41,635.25,558,656.21,540.92c27.62-22.45,50.35-48.79,61.64-83.4a118.62,118.62,0,0,0,5.33-24.23,2.81,2.81,0,0,1,1-2.18c0,5.83,0,11.66,0,17.5,0,18.29-.56,36.6-1.27,54.85-.73,18.8-7.66,36.26-16.8,52.67a175.47,175.47,0,0,1-30.52,39.8,277.34,277.34,0,0,1-53.32,40.67c-38.24,22.67-79.45,37.74-122.49,48a505.84,505.84,0,0,1-60.6,10.58c-17.14,1.95-34.28,3.29-51.51,4.13-9.8.48-19.59.79-29.38.66-20.39-.27-40.71-1.59-61-3.72a564.34,564.34,0,0,1-87.32-16.08A429.18,429.18,0,0,1,112,641.11c-25.47-14.13-48.81-31-68.63-52.38-20.83-22.48-35.69-48.2-41-78.79C1.68,506,1.53,502,1.13,498.09Z"/><path class="cls-3" d="M650.17,290.08c-4.72,1.47-8.95,4.27-14,4.87-8.15,1-15.37-1.24-22-5.86-9.55-10.19-9.76-22.86-7.81-35.21a97,97,0,0,1,34.66-61c10.46-8.71,22.06-13.9,36.06-11.75,12.12,5.95,17.78,16,18.06,29.19.46,22.29-8.24,41.28-21.35,58.71C667.29,277.66,658.9,284,650.17,290.08Z"/><path class="cls-4" d="M413.14.1c3.45,1.76,3.88,5.06,4,8.34.15,5.23.05,10.47.06,15.71a1.71,1.71,0,0,1,.39,1.44,4.78,4.78,0,0,1-3.45,3.9c-20.5,11.1-40.47,23.13-60.67,34.75C304.68,92.31,256,120.57,207.17,148.53c-4.16,2.38-5.74,5.26-5.72,10,.14,38,.09,75.94.05,113.92,0,2.6.62,5.36-1.19,7.72-2.94-.39-2.34-2.78-2.42-4.58-.17-4.16-.06-8.33-.06-12.5,0-35-.09-70,.07-105,0-8.49.48-17,.2-25.47-.2-6.27,2.45-10.41,7.75-13.37,17.73-9.91,35.16-20.32,52.78-30.42q40-23,80-46.2c22.89-13.27,45.92-26.3,68.71-39.75C409.18,1.78,411.29,1.23,413.14.1Z"/><path class="cls-3" d="M577.14,71.09c12.66,5.94,18.11,16,18.13,29.86,0,21.33-8.31,39.23-21.06,55.64-7.05,9.08-15.3,16.68-25.85,21.32-10.24,4.51-20.52,5.21-30.18-1.86-10.1-10-10.63-22.43-8.38-35.26C514,116.56,525.87,96.65,545,81.16,554.29,73.59,564.86,69.5,577.14,71.09Z"/><path class="cls-3" d="M444.12,19.1c13,6.32,16.75,14.33,15.18,29.89C457.52,66.7,449.5,81.33,437,93.25c-4.84,4.63-6,9-6,15,.22,21.61.08,43.22.07,64.84-1.12.15-1.55-.62-1.94-1.45-.88-3.27-.51-6.61-.52-9.93q0-26.72,0-53.42c0-6.35,0-6.35-5.75-3.47-.89.45-1.76.94-2.67,1.35-1.29.66-2.7.43-4.06.54-8.13,1.69-14.85-.42-19.85-7.28-5.91-10.63-5.32-21.84-2-32.89,4.91-16.48,13.73-30.57,28-40.64C428.79,21.36,436,18.66,444.12,19.1Z"/><path class="cls-5" d="M451.88,216c-5.28,9.06-11.85,16.8-21.7,21.18-3.36,2.91-7,2.31-10.72.88a11.35,11.35,0,0,1-5.45-4.55c-3.65-6.07-3.94-12.6-2.29-19.25,3-12.28,8.93-22.84,19.5-30.25,3.22-2.26,6.6-4.6,11-3.86,10,.46,14.53,5.11,14.82,15.31C457.2,202.76,454.64,209.4,451.88,216Z"/><path class="cls-6" d="M413.14.1C408,4.89,401.59,7.75,395.63,11.23q-48,28-96.12,55.64-46.6,26.86-93.27,53.61c-4.85,2.77-7.09,6.53-7.08,12.1q.09,71.41.06,142.83c0,1.61-.5,3.37.91,4.73,1.64,1.52,1.61,3.57,1.62,5.54q.12,19.1,0,38.2c0,1.82-.09,3.66-1.38,5.16-2.9.46-3.73-1.58-4.38-3.72a16.49,16.49,0,0,1-.44-5c0-41.31-.07-82.62,0-123.93.5-13.14.08-26.28-.11-39.43a6.82,6.82,0,0,1,1.64-5.06c0-7.33.18-14.67,0-22-.14-4.69,1.63-7.93,5.65-10.25,16.13-9.3,32.21-18.7,48.33-28Q321.41,51,391.82,10.32c4.9-2.83,9.83-5.6,14.73-8.4C408.6.75,410.66-.34,413.14.1Z"/><path class="cls-7" d="M197.1,151.94a5.22,5.22,0,0,1-.95,3.94c-.8,2.26-2.84,3.17-4.69,4.26-3.88,2.28-7.8,4.49-11.7,6.72-6.36,3.63-9.26,9.32-9.93,16.37-.16,1.66-.09,3.33-.09,5V399.66c0,2.33.11,4.66.13,7,0,1.39.49,3.13-1.68,3.54-4.24-2.71-3.84-7.11-3.85-11.19q-.09-69,0-137.93c0-6,0-12-.06-18,0-18.6.15-37.19,0-55.78-.06-11.14,3.21-20,14.11-25.11C184.83,159.21,190.88,155.39,197.1,151.94Z"/><path class="cls-8" d="M430.17,172.07l1,1c0,2.8,3.16,1.33,4.06,2.93a2.52,2.52,0,0,1-1.64,1c-15.33,2.14-22.58,13.2-28.39,25.79-2.72,5.9-3.07,12.17-2.59,18.54.13,1.63.74,3.29-.23,4.87-4.69,2.13-7.79-.62-10.84-3.52-4.59-5.92-4.56-12.91-3.24-19.53,2.66-13.31,9.5-24.29,20.85-32.12a24.56,24.56,0,0,1,7.28-3.14c1-.22,2-.5,3-.74C423.88,166.93,427.78,167.85,430.17,172.07Z"/><path class="cls-9" d="M402.18,226.07c-3.4-14,.88-26,9.47-36.95,6-7.63,13-13.69,23.56-13.1a7.82,7.82,0,0,1,7,4.11c-17.32,6.29-30.07,24.24-30,42.09a23.63,23.63,0,0,0,2.8,10.92C409.14,235.38,403.72,232.38,402.18,226.07Z"/><path class="cls-10" d="M677.08,181.12c-1.15,1.43-2.77,1-4.19.9-12.16-1.05-21.9,4.43-30.8,11.71-19.21,15.69-30.59,36.21-34.51,60.42-1.91,11.77-1.52,24,7,34.12.08.1-.25.54-.38.82-9-6.38-11.73-15.64-12-26,0-2,0-4,0-6,1.24-18.68,8.49-35.08,19.54-49.84,7.21-9.63,15.7-18,26.58-23.7C657.54,178.69,667.08,177.35,677.08,181.12Z"/><path class="cls-10" d="M577.14,71.09c-1,1.3-2.39,1-3.67,1-10.77-.7-19.81,3.73-27.8,10.19-19.9,16.1-31.74,37.11-35.2,62.38-1.47,10.72-.56,21.63,7.83,30.18a.75.75,0,0,1-.12,1.25c-11.48-8.06-13.39-19.76-12.31-32.54,1.62-19.16,9.47-35.8,21.44-50.48,9-11.07,19.59-20.18,34.25-23.33C567.06,68.51,572.06,69.43,577.14,71.09Z"/><path class="cls-11" d="M101.17,255.15c-5.2,4.32-10.59,3.86-15.91.38C76.77,250,72.16,241.87,70,232.17c-.39-5,.51-5.69,5-3.58a36,36,0,0,1,4.76,2.7c1.62,1.49,1.23,3.69,1.9,5.52,2.4,6.54,6.46,7.85,11.76,3.73,4.24.49,7.44,2.85,10.33,5.77C104.64,249.77,103.14,252.53,101.17,255.15Z"/><path class="cls-10" d="M444.12,19.1c-4.55,1.89-9.58,1.89-14.13,4-12.33,5.68-20.41,15.53-27.19,26.77a71.6,71.6,0,0,0-9.52,29c-.84,7.1,1.38,13.73,4,20.24-3.65.25-4.67-2.69-6-5.09-3.79-7-3.21-14.76-2.09-22,2.74-17.65,10.62-32.76,25.05-43.94,2.17.12,1.62-2.26,2.81-3a8.59,8.59,0,0,0,4.14-2c3.89-.91,7.22-3.25,11.18-4.14A21.32,21.32,0,0,1,444.12,19.1Z"/><path class="cls-12" d="M93.26,241c-2.89,5.26-5.11,5.62-9.29,1.47-2.89-2.87-4.86-6.09-3.8-10.41,2-2.61,4.12-5,7.92-3.88a15.64,15.64,0,0,0,6.11,10.86C94.84,240.17,93.83,240.5,93.26,241Z"/><path class="cls-13" d="M88.09,228.21c-3,.45-5.18,2.78-7.92,3.88-2.38.39-4-1.31-5.68-2.38-3.17-2-4.71-1.51-4.46,2.46-1.28-2-1.79-4.53.58-5.59,3-1.34,5.24-5.61,9.14-3.54C82.6,224.56,85.82,225.69,88.09,228.21Z"/><path class="cls-13" d="M93.26,241l.94-2c5.79-3.65,11.07-2.65,16.17,1.54,1.33,1.09,2.37,1.87,1,3.55-3-.61-5,2.88-8.12,2Z"/><path class="cls-14" d="M103.25,246.15c2-1.12,4-2.21,6-3.38,1.74-1,1.85.29,2.16,1.39-.6,6.27-5.3,8.72-10.2,11C101.86,252.15,102.56,249.15,103.25,246.15Z"/><path class="cls-15" d="M421.19,23.07c-1,1.44-2,3-4.14,2a4.65,4.65,0,0,0,.13-.9Z"/><path class="cls-16" d="M126.33,516.71c-.85-3.72,2-4.91,4.4-6.32l91.08-52.57c2.16-1.25,4.27-2.57,6.4-3.86.91-2.09,3.17-2.5,4.72-3.8,4.4-2.61,8.73-5.32,13.14-7.91,5-2.43,9.7-5.47,14.57-8.16,1.78-1,3.35-2.82,5.78-2a3.55,3.55,0,0,1,.57,2.79c-1.47,3.68-.72,7.4-.15,11.11-.34,2.29-2.22,3.15-3.91,4.14-7.82,4.59-15.67,9.14-23.49,13.73-2.34,1.37-4.59,2.76-4.28,6-.37,3.11,2.17,4,4.06,5.44,2.45,1.9,6.17,2.28,7.2,5.92-1.66,2.78-4.89,3.3-7.31,5-5.48,3.83-5.49,5.32.23,8.6,12.12,6.95,24.25,13.89,36.25,21.07,1.65,1,3.77,1.63,3.91,4.1-2.41,3.43-6.36,4.62-9.72,6.67-3.54,2.15-7.08,4.28-10.5,6.64,8.87-2.39,15.59-9.09,24.17-12.06,6.75,1.92,12.27,6.13,18.06,9.84a2.45,2.45,0,0,1,1,3c-7.11,5.85-15.5,9.63-23.36,14.22-12.78,7.47-25.74,14.67-38.36,22.38-8.41,5.14-15.57,5.18-24,.09-27.67-16.6-55.87-32.33-83.79-48.51C130.51,520.83,127.24,520.11,126.33,516.71Z"/><path class="cls-17" d="M565.23,340.07c14.46,7.33,28.18,16,42.28,23.91,7.21,4.06,14.23,8.45,21.48,12.43,3.63,2,5.5,4.62,5.14,8.77-4.44,6.07-11.5,8.4-17.61,11.92-28,16.11-55.51,33-84,48.18-10.5,5.59-21.36,10.58-31.85,16.29-8.65,4.71-15.52,11.77-24.13,16.58-28.75,16.08-57.17,32.75-85.62,49.35-3,1.74-6,3.6-9.68,3.81a10.18,10.18,0,0,1-2,0c-1.13-.16-2.57-.11-3-1.39-.49-1.6,1-2.34,2.07-3,7.73-5.19,16-9.58,24-14.19,25.11-14.33,50.09-28.91,75.13-43.36,5.76-3.32,11.48-6.7,17.33-9.86,2.78-1.51,4.86-3.34,5.95-6.28,4.23.11,7.52-2.33,10.89-4.28q21.21-12.25,42.38-24.53c4.67-2.73,4.67-3.38,0-6.13-23.76-14.15-48-27.43-71.73-41.64-3-1.8-5.89-2-8.93-.14-10.68,6.46-21.81,12.17-32.31,19-3-.23-5.78-1-7.26-4.07,4.4-4.36,10.46-6.08,15.37-9.65,3.57-2.59,8.1-3.86,10.68-7.8a2.89,2.89,0,0,1,1.89-.49,6.55,6.55,0,0,0,4.26-.12,9,9,0,0,0,4.32-3.15c3.3-3.43,8.27-4.54,11.43-8.19,2.49-.49,5.27.07,7.33-2a9.73,9.73,0,0,1,1.1-.7c2-1.1,4.38-1.75,5.87-3.73,1.39-.91,1.51-2.1.77-3.49a2.17,2.17,0,0,1,1.58-1.27c1.62.12,2.65,1.18,3.66,2.28,7.09,11.81,18.73,14,31,14.23A46.61,46.61,0,0,0,550.72,364c9-3.43,12.91-8.82,13.18-18.36C564,343.73,563.48,341.62,565.23,340.07Z"/><path class="cls-17" d="M246.44,443.24a98.25,98.25,0,0,1-13.36,7.83c-1.79.43-3.2-.45-4.64-1.3-16.77-9.8-33.65-19.43-50.49-29.11-2.26-1.29-4.66-2.56-5.85-5.09-.27.8,0,1.95-1,2.53a4.09,4.09,0,0,1-.75-4.47c.84-2.37-1.21-2.45-2.12-3.45,1.31-2.71-.11-5.42-.11-8.13q.18-108.23.08-216.44c0-9.06,3.18-16.11,11.46-20.51,5.57-3,11-6.13,16.53-9.21,1.29,1.18,1,2.75,1,4.21q0,18,0,36c-2.75-.65-2.22-3-2.29-4.81-.21-4.83-.15-9.67-.05-14.49.06-3.07-1-3.27-3.58-2.13-6.47,2.85-9.8,6.67-9.76,14.69.38,64.81.21,129.62.21,194.44,0,1,0,2,0,3,.13,4.8.47,5.07,4.79,2.61,19.25-11,38.37-22.17,57.57-33.22,11.83-6.81,23.49-13.91,35.55-20.31,3,2,1.66,5.37,2.39,8.08a3.79,3.79,0,0,1-.4,1.47c-7.78,6.3-16.85,10.53-25.43,15.55-13.91,8.13-27.84,16.23-41.9,24.11-1.2.67-3.18,1.17-2.65,3.08.44,1.56,2.22,1.86,3.65,2.24,2.67.71,4.87-.55,7-1.85,14.76-9,30-17.15,44.79-26.09,2.28-1.37,4.69-2.51,7.07-3.7,1.5-.75,3.14-1.62,4,.84.46,2.05.52,4-.91,5.8-25,14.81-50.25,29.25-75.46,43.73-.58.33-1.14.69-1.73,1-3,1.52-3.63,3.26-.6,5.45.67.49,1.3,1,2,1.55,1.32,1.43,3.12,1.38,4.85,1.51a13.56,13.56,0,0,1,4.77,3.65c1.13,1.8,2.91,2.3,4.88,2.43a21.42,21.42,0,0,0,8.22,4c1.88,1.6,4.27,2.54,5.85,4.53a5.1,5.1,0,0,0,4.42,2.39,4.48,4.48,0,0,1,2.68,1.81,4.23,4.23,0,0,0,3.56,2c.42,0,.83-.05,1.25-.05a3.34,3.34,0,0,1,1.78.61C244.62,441,246,441.68,246.44,443.24Z"/><path class="cls-18" d="M126.33,516.71l82,47.54c4,2.33,8.2,4.45,12.06,7,5.7,3.83,11,3.33,16.74,0,20.37-12,40.89-23.67,61.36-35.46,1.14-.66,2.36-1.2,3.54-1.79,2.85-2.18,3.59-.73,3.57,2.06-5.44,5.32-12.47,8.18-18.88,11.92-16.23,9.5-32.64,18.71-48.82,28.29-6.09,3.6-11.72,3.7-17.85.2-20.39-11.63-40.62-23.52-61-35.24-3.47-2-6.92-4-10.42-5.91-1-.54-2.37-1.3-3.12,0s.6,2.11,1.55,2.71c5.07,3.2,10.18,6.35,15.41,9.27C183.33,558.9,203.77,571.1,224.4,583c5.31,3,10,3.64,15.4.52q34-19.53,67.85-39.25c2.73-1.58,5.35-3.39,8.54-4a4.79,4.79,0,0,1,2.86.73c3.31,2,3.36,3.69,0,5.62-10.52,6-21,12.2-31.49,18.21Q262.24,579.25,237.07,594c-5.82,3.39-10.8,3.52-16.7.08-28.69-16.74-57.39-33.47-86.3-49.82-9.85-5.57-9.83-6.6-.18-12.6,1.3-.8,3.76-.89,3.29-3.5-2.68-1.85-5.38-3.67-8-5.57C127.19,521.13,124.91,519.8,126.33,516.71Z"/><path class="cls-19" d="M564.8,328.08c0,1.72,0,3.45,0,5.17.41,5.48-3.24,8.54-6.88,11.62-14.12,10.77-43.83,9.19-54.3-4-1-.79-1-2.13-1.88-3.13.72,1.33,1.08,2.77,2.31,3.68,9.13,9.37,20.81,11.1,33,10.4,7.62-.43,15.09-2.25,21.33-7.21,2.5-.79,2.53-5.21,6.23-4.22.21,4.09-.17,8-3.05,11.27-15.6,11.61-32.37,11.94-49.79,5a17.7,17.7,0,0,1-8.16-6.29c-1.18-1.8-1.78-3.94-3.22-5.58-4.36-1.48-8.26,1.13-12.42,1.36a15.63,15.63,0,0,1-2.26.25c-10.55.51-20.55-1.2-29.46-7.3a14,14,0,0,1-1.89-1.54c-4.85-4.33-6-9.93-5.49-16.09,0-.79,0-1.58,0-2.37,0-1,0-2.09,0-3.14,0-.79,0-1.59,0-2.39.08-2.43-.38-4.93.85-7.22a1.54,1.54,0,0,1,1.4-.63c.32.11.7.18.88.43,6.63,9,16.23,11.92,26.71,13.14,6.22.73,12.15-.66,18.1-2,1.76-.41,3.43-1.26,5.32-.91a2.26,2.26,0,0,1,1.61,1.56c-.05,5.45-3.36,7.88-8.22,9.05-12.26,2.93-30.14,1.45-39-6.21,10.08,7.54,25.54,10,39.82,5.87,3.9-1.13,5.75-.38,7.34,3.18,2.15,4.85,6.49,7.53,11.17,9.44,12.13,4.95,24.37,4.67,36.52.09a21.15,21.15,0,0,0,10.06-7.91C562.29,330.11,562.84,328.36,564.8,328.08Z"/><path class="cls-17" d="M419.21,237c3.63,1.35,7.3.85,11,.21-.07,7.8,1,15.67-1.24,23.34-.51,1.74-1.29,3.44,1.43,3.51,6.54.17,11.2,4.5,16.54,7.28,2,1.07,3.92,2.48,6.29,2.8.64,3.59-2.48,6.53-1.72,10.14a6.53,6.53,0,0,1-.89,3.66c-.37.33-.92.73-1.28.49-4.84-3.28-9.92-2.45-15.06-1a2.18,2.18,0,0,1-.48-1.82c.14-1.65,4-2.18,1.65-4.26-2.05-1.8-4.62-3.43-7.76-2.4a16,16,0,0,0-3.16,1.49c-24,14.09-48.14,27.91-72.25,41.78-1.87,1.07-3.63,2.42-6,2.3-2-.86-3.42-2.1-3.45-4.44.72-1.86,2.35-2.72,4-3.61,13.49-7.56,26.77-15.5,40.23-23.1,4.39-2.48,4.39-2.49,1.27-6.49a3.47,3.47,0,0,1-.81-2.78c.36-1.66,2-2.16,3.15-3.34-2.51-1.28-5.76-.44-7.71-2.88.51-2.46,2.7-3.22,4.48-4.32,7.75-4.78,15.61-9.38,23.69-13.56,5-2.61,7.15-6.27,6.88-12C417.79,244.34,416.73,240.38,419.21,237Z"/><path class="cls-20" d="M381.23,530.12c6-.79,10.58-4.66,15.56-7.52,29.54-16.94,59.46-33.28,88.2-51.47,10.39-6.58,20.67-13.44,31.3-19.68,8.53-5,18-7.93,26.63-13.06,26.36-15.78,53.12-30.88,79.71-46.27,3.88-2.24,7.67-4.63,11.5-6.94-.37,3.85-2.76,6-6,7.88q-84.69,48.78-169.31,97.67c-23.18,13.38-46.37,26.71-69.46,40.24a24.46,24.46,0,0,1-19.07,3c-.67-4,2.2-4,4.72-3.81C377.13,530.32,379.17,531,381.23,530.12Z"/><path class="cls-21" d="M381.23,530.12c-1.82,1.62-4,.72-6.07.92s-4.37.05-4.83,2.92c-7.37,1.51-12.89,6.64-19.36,9.92-2.8,1.43-5.37,3.33-8.18,4.75-5.66,2.85-11.05,1.58-16-1.82-2.24-1.55-3.71-1.57-6.16-.14q-42.36,24.71-84.93,49.05c-4.44,2.55-9.08,3-13.69.28l-78.3-45.58c-5-2.92-10.21-5.58-15.1-8.7-4.44-2.83-4.12-5.25.36-8.11,2.76-1.76,6.07-2.74,8.17-5.49.65.06,1.57-.12,1.9.24,1,1-.32,1.34-.89,1.69-2.7,1.63-5.56,3-8.14,4.81-3.57,2.47-3.51,4.07.16,6.19,15.81,9.13,31.67,18.17,47.48,27.29,13.79,8,27.7,15.73,41.25,24.1,6.78,4.18,12.51,4.16,19.37.08C261,579,283.91,566,306.75,552.8c4.71-2.73,9.4-5.49,14.56-8.5-1.83-1.55-3-3.08-5.2-3.27-3.94-1-7.19-3.56-10.95-5q-.07-3.24-3.09-2c.27-1.2-.41-1.77-1.36-2.29-5.87-3.24-11.37-7.15-17.59-9.77-1.47-.32-3.12-.25-4-1.88-6.21-5.3-13.69-8.54-20.6-12.71-7.1-4.29-14.41-8.22-21.56-12.44-5.06-3-5.07-5.58-.11-8.73,2.94-1.86,6-3.47,9.07-5.19,2.24.13,1.3,1.36.61,2.17-1.3,1.55-3.22,2.33-4.9,3.38-5.7,3.56-5.72,4.58,0,7.85,8.37,4.8,16.71,9.66,25.07,14.47,20.77,12,41.56,23.86,62.2,36,5.28,3.11,9.83,2.87,14.93-.08,34.71-20.07,69.36-40.24,104.16-60.15,14.73-8.43,29.32-17.1,44.09-25.46,1.16-.66,2.28-1.38,3.41-2.08,2.73-1.71,3.11-3.35-.06-5a63.27,63.27,0,0,1-6.82-4.15c-.82-.57-1.73-1.37-1.43-2.42.42-1.44,1.74-1.26,2.93-1.06,2.75,1.46,5.54,2.88,8.13,4.6,1.41.93,3.4,1.63,2.95,4,.43,3.33-1.35,5-4.09,6.62-20.74,11.88-41.36,23.94-62.07,35.87-16.83,9.68-33.73,19.24-50.58,28.9-2.56,1.47-5,3.16-7.7,4.88C378.38,530.6,379.89,529.81,381.23,530.12Z"/><path class="cls-22" d="M564.8,328.08c-4.71,10.5-13.84,14-24.33,15.43-11.57,1.62-22.46.15-32.36-6.45-2.1-1.39-4.39-3-5-5.36-1.4-5.41-4.57-4.67-8.7-3.59A45.66,45.66,0,0,1,458.13,323a13.73,13.73,0,0,1-5.57-6.19,36.28,36.28,0,0,0,21,9.78,69.81,69.81,0,0,0,19.31-.21c5.31-.79,8.9-3,10.38-8.3a9.44,9.44,0,0,1,3.14-4.21,7.69,7.69,0,0,1,1.09-.81c2.19-1.15,4-3.08,6.77-3,10.87-3.18,21.8-4.3,32.88-1,4.84,1.43,9.4,3.46,13.09,6.95C563.58,319.25,565.6,323.17,564.8,328.08Z"/><path class="cls-22" d="M450.34,284.13c-.83-3.85,1.11-6.92,2.86-10,13.16-13.17,37.95-12.1,50.08-5.67,6.63,3.51,12,8,10.72,16.71-.46,4.88-3.16,8.16-7.3,10.52-15.33,8.73-30.94,8.67-46.61,1.25C454.85,294.42,450.83,290.49,450.34,284.13Z"/><path class="cls-23" d="M561.19,351c1.18-3.59,3.61-6.84,2.92-10.92-.6-1-.71-1.74.69-2,.15.65.29,1.31.43,2a39.89,39.89,0,0,0-.19,5.45c.92,9.06-3.45,15-11.25,18.54-13.89,6.27-27.95,6.17-41.87,0A19.8,19.8,0,0,1,501,353c-1.37-3-2.2-6,.26-8.93l2.91,5c.56,4.12,4.18,5.52,7.07,6.88,14.85,6.94,29.75,6.91,44.49-.64C557.86,354.24,559.21,352.24,561.19,351Z"/><path class="cls-24" d="M451.11,306.08h-.77c-1.81-1.47-1.44-3.55-1.53-5.49,0-.83,0-1.66.05-2.49a5.09,5.09,0,0,1,1-3,1.5,1.5,0,0,1,2.07.76c5.46,9.61,14.91,12.3,24.75,13.55,10.43,1.32,20.53-.4,29.52-6.37,2.76-1.83,5.47-3.9,5.27-7.83.38-1.64.08-3.69,2.49-4.1v11c-.76,2-.87,4.3-2.21,6.13-8.58,8.8-19.57,10.87-31.14,10.62a48.63,48.63,0,0,1-15.2-2.52C459.6,314.28,455.12,310.56,451.11,306.08Z"/><path class="cls-24" d="M514,291.11l-1.83,4c.33,2-.68,3.53-2.08,4.78a35.73,35.73,0,0,1-3.09,2.52c-12.28,8.61-37.66,8.34-49.86-.4-3.36-2.4-4.94-6.15-7.65-9-.62-1.73-.8-3.41.52-4.93l.33-3.91c2.89,7.57,8.68,11.86,16.17,14.17,12.31,3.79,24.37,3.66,36.22-1.95,5.16-2.44,9.11-5.88,11.27-11.22Z"/><path class="cls-25" d="M141.09,363.21q0,35.69.07,71.37c0,1.6.87,3.89-2.34,3.7s-2.14-2.45-2.16-4c-.09-7,0-14-.09-21,0-1.48.93-3.43-1.25-4.35,3-3.76,2-7.81.88-11.87.92-10.65.22-21.32.38-32C137.41,362.84,139.05,362.54,141.09,363.21Z"/><path class="cls-26" d="M116.23,396.14q.06,35.75.11,71.47c0,1.71.62,3.84-2.47,3.67s-2.2-2.39-2.22-4c-.07-7,0-14-.08-21,0-1.47.94-3.43-1.26-4.35,2.51-3.84,3.22-7.8.78-12,1.15-10.63.33-21.28.44-31.92C112.46,395.84,114.12,395.43,116.23,396.14Z"/><path class="cls-20" d="M171.06,418.1c.11-1.1.22-2.2.32-3.18,20.24,12.86,41.35,23.86,61.7,36.15L228.21,454c-7.73-5.76-16.54-9.7-24.75-14.64-8.53-5.12-17.35-9.74-26-14.72C174.83,423.06,171.81,421.64,171.06,418.1Z"/><path class="cls-27" d="M116.23,396.14l-4.7,1.91a10.55,10.55,0,0,1-7.4-2.46c-2.29-2.56-2.59-5.68-2.3-8.85A27.07,27.07,0,0,1,115,365.23c2.28-1.41,4.83-2.2,7.58-1.23,5,1.53,6.27,5.43,6,10.05C128.2,383.46,123.39,390.48,116.23,396.14Z"/><path class="cls-27" d="M141.09,363.21l-4.51,1.87a10.74,10.74,0,0,1-8.3-2.94c-5.72-9.09,3.17-27,13.95-30.78,2-.7,3.94,0,5.9,0,4.92,2,5.82,6.11,5.42,10.64C152.76,351,148.12,357.81,141.09,363.21Z"/><path class="cls-28" d="M111.09,430c4.58,4.77,4.39,7.78-.78,12-2.86,2.18-5.93,3.41-8.89.45-2.22-2.22-3.24-5.16-1.77-8.17C101.55,430.32,106.63,428.59,111.09,430Z"/><path class="cls-28" d="M136.2,397.06c4.3,6.36,4.2,7.75-.88,11.87-2.82,2.35-5.89,3.37-8.9.66-2.38-2.14-3.58-5.51-1.86-8.09,2.09-3.12,4.95-6.41,9.77-4.8A14.05,14.05,0,0,0,136.2,397.06Z"/><path class="cls-29" d="M148.13,331.32c-12.8,1-22.73,15-19.85,30.82-3.22-1.44-4.07-4.33-4.06-7.39,0-10.3,4.66-18.21,13.26-23.71C140.92,328.84,144.66,328.41,148.13,331.32Z"/><path class="cls-30" d="M122.61,364c-14.75,3.75-21.71,15.64-18.49,31.59-4-1.69-5.07-5.26-4.86-9,.54-9.71,4.94-17.43,13.27-22.59C115.7,362,119.25,361,122.61,364Z"/><path class="cls-31" d="M511.17,307.06l2.83-4.95q.12,4,.22,8c-2.2,1.6-4.38,3.24-7.07,4-.58-1.63.65-2.33,1.57-3.27S511.79,309.24,511.17,307.06Z"/><path class="cls-32" d="M564.8,338.11l-.69,2c-2.22,1.08-2.43,4.17-5,4.95-.38-.29-1-.39-1-1,2.69-3.31,6.25-6.08,6.67-10.79C564.8,334.87,564.8,336.49,564.8,338.11Z"/><path class="cls-33" d="M653.53,243c-2.74-1.41-6-.07-8.7-1.66.77-5.36,3.93-9.77,6-14.61,2.7-6.39,5.5-12.74,8.65-18.92.82-1.61,1.2-4,3.89-3.72q-3.21,12.54-6.4,25.1c.09,3.51,3.06,2.59,4.83,2.76,3,.27,5.93.53,8.61,2,.86.84,0,1.57-.26,2.21q-9.93,21.5-19.94,42.94c-1.83-2-.77-4.07-.21-6.1,2.09-7.7,3.68-15.54,6.16-23.13C657.2,246.64,656.44,244.53,653.53,243Z"/><path class="cls-34" d="M663.34,204.08c-5.12,6.87-7.36,15.16-11.22,22.66-2.49,4.83-4,10.18-7.29,14.59-3.74-.9-4.55-2.6-2.74-6.34,5.43-11.19,10.39-22.59,15.72-33.82.62-1.3,0-4.68,3.48-3.29C664.46,199.15,665.19,201.17,663.34,204.08Z"/><path class="cls-34" d="M653.53,243c5.13-.78,5.55,1.52,4.32,5.82-2.86,10-5.89,20-7.67,30.32-.29,2.36-1.47,2.09-3.09,1.16s-2.89-1.7-2.19-4.18c2.48-8.75,4.67-17.57,7-26.38C652.44,247.49,653,245.23,653.53,243Z"/><path class="cls-35" d="M670.38,234c-3.7-.3-7.39-.71-11.09-.87-3-.14-3.9-1.23-2.35-3.93,1.8,1.92,4.27,1.47,6.48,1.66A9.78,9.78,0,0,1,670.38,234Z"/><path class="cls-36" d="M414.24,28.09c-8,9-15.62,18.26-20.09,29.78a62.9,62.9,0,0,0-3.81,29.19c.45,4.75,2.31,9.35,6.9,12.06,5.19,6.07,12.09,8.24,18.93,6,2.23,3.71,2.21,8,2.28,12,.28,14.74.17,29.48.07,44.22a18.16,18.16,0,0,1-1.35,7.77c-12.91,4.12-20.09,13.9-25,25.72-3.76,9-5,18.2,0,27.29-8.07,5.52-16.81,9.91-25.15,15-11.88,7.22-24.45,13.28-35.87,21.28-3.36-2.18-4.35-7.06-9-7.83-1.26-.2-2.67-.46-3.27-1.92.26-2.36,2.26-3.11,3.9-4.15,4.21-2.67,8.77-4.74,12.83-7.63,1.53-1.08,4.33-2.18,1.69-4.87-4.89,1.39-8.79,4.58-13.15,6.92-4.57,2.44-5.19,2.2-6.73-3a9.5,9.5,0,0,1,1.22-5.11c3.26-4,8.16-5.65,12.5-7.86,5.79-2.94,8.63-6.87,7.75-13.4a9.51,9.51,0,0,1,.69-5.37,3.26,3.26,0,0,1,1.86-1.46,13.65,13.65,0,0,0,5.61-2c11.55-6.64,23.08-13.33,34.67-19.9,3.73-2.12,4.57-5.42,5-9.19.63-6.2-1-12.26-1-18.44.12-16,0-32,0-48a21.75,21.75,0,0,0-.47-6.44c-.81-1.82-2.1-1.26-3.28-.57-12.85,7.51-25.83,14.78-38.64,22.36-1.29.77-1.94,2.27-3.35,2.9a1.53,1.53,0,0,1-1.25-.52c-1-1.9,0-3.79,0-5.69s.28-3.58-1.34-4.88c-2.64-1-4.52.77-6.41,1.89-12.56,7.46-25.26,14.67-38,21.88-3.22,1.82-4.74,4.21-4.7,8,0,3.4,1,7-1.08,10.22a3.78,3.78,0,0,1-1.53.5c-5.63,1.33-10.14,4.91-15,7.7-7.63,4.4-15.16,9-22.92,13.14-5.6,3-7.5,7-7.43,13.21q.35,32.67.22,65.34c0,1.52.31,3.12,0,4,.23-12.88-.06-26.3.13-39.72,2.62.8,2.72.8,2.76,4.65.11,9.33,0,18.66,0,28,0,9.05,0,9.08,7.89,4.83,11.87-6.4,23.19-13.76,35.08-20.12,3,3.11,4,7.88,8.23,9.92a5.64,5.64,0,0,1,1.54,4.37,7.51,7.51,0,0,1-1.81,4.39c-4.81,3.27-9.66,6.5-14.57,9.6-6,3.82-8.23,9.22-8.43,16-.11,4,.69,8-.74,11.88-5.88,4.92-12.82,8.2-19.38,12-14.77,8.55-29.52,17.15-44.46,25.4-2.09,1.16-4.73,3.72-6.75-.34q0-24.43,0-48.87c0-41.16.11-82.32-.08-123.47,0-4.36,1.64-6.63,5.11-8.61q57.51-32.93,115-66,46.17-26.64,92.23-53.46A7.72,7.72,0,0,1,414.24,28.09Z"/><path class="cls-37" d="M214,128.29c3.17,1.33,2.18,3.6,1.18,5.73-.87,1.87-2.21,3.37-4.55,3s-2.84-1.93-2.4-4C209.91,131.13,211.17,128.75,214,128.29Z"/><path class="cls-38" d="M236.05,115.27c3,1.25,2.45,3.58,1.52,5.74s-2.27,4.39-5.39,3C229.75,119.45,232.58,117.22,236.05,115.27Z"/><path class="cls-39" d="M225.06,122.22c3,1,2.39,3.16,1.42,5.07s-2,4.73-5.34,3C219.59,125.36,220.11,124.27,225.06,122.22Z"/><path class="cls-40" d="M236.05,115.27c-2,2.58-4.9,4.8-3.87,8.74-2.63-.93-2.4-3-1.6-4.87C231.55,116.83,232.82,114.55,236.05,115.27Z"/><path class="cls-41" d="M225.06,122.22c-3.11,1.82-4.53,4.46-3.92,8.09-3.13-.62-2.15-2.88-1.66-4.66C220.24,122.92,222,121.47,225.06,122.22Z"/><path class="cls-42" d="M214,128.29c-2.42,1-3.1,4.07-5.77,4.75C209,130.06,210.14,127.49,214,128.29Z"/><path class="cls-43" d="M546,107c6.13-3.66,12.19-7.43,18.42-10.91,3.72-2.09,5.57-.9,5.61,3.48.12,13.82.09,27.63.17,41.45,0,2.89-1,5.25-3.47,6.73-6,3.55-12.08,7-18.13,10.51-1.47.84-3,1.66-4.46,0-1-8.44-.23-16.9-.42-25.35-.12-5.48.11-11-.08-16.46A15,15,0,0,1,546,107Z"/><path class="cls-44" d="M546,107c-3.92,17-.81,34.18-1.86,51.25-1.83-2-1-4.42-1-6.62-.11-12.61,0-25.23-.06-37.84C543,111,543.06,108.39,546,107Z"/><path class="cls-17" d="M430.17,172.07c-3.28-2.38-6.8-4.12-11-4-1.22-1.19-1-2.71-1-4.2-.23-17.74.58-35.49-.43-53.23-.09-1.66.06-3.34,1.45-4.58,2.47-3.59,7.09-3.63,11-7.17Z"/><path class="cls-45" d="M425.13,41.27c12.4,10.18,14.62,25.7,5.28,36.89-5,6-9.36,6.55-15.3,2-3-9.85,1.64-18.49,4.63-27.29C421.09,48.85,421.73,44.37,425.13,41.27Z"/><path class="cls-46" d="M419.17,106.08v62a2,2,0,0,1-2,1c-1.35-3.09.11-6.18.07-9.28-.17-13.62-.14-27.25,0-40.87,0-4.66-1.7-9.15-1-13.83Z"/><path class="cls-47" d="M425.13,41.27c-3.06,9.13-6.9,18-9.38,27.31-1,3.92.36,7.75-.64,11.54-2.51-3.1-2.46-6.79-1.76-10.31,1.84-9.29,5.41-18,8.87-26.81C422.75,41.68,423.38,40.54,425.13,41.27Z"/><path class="cls-48" d="M331.16,258.08c.58-3.94,4.43-4.32,6.91-5.79,16.83-10,33.86-19.6,50.79-29.39a6.4,6.4,0,0,1,3.32-.83c2.87,2.5,6,4.31,10,4,3,4.55,6.78,7.82,12.76,7.07l4.27,3.81c0,4.83-.08,9.66,0,14.49.05,3.7-1.51,6.18-4.76,8.07C404,265.59,393,270.89,383.16,278c-9,4.72-18.08,8.91-28.66,7.44-.66-.09.16,0-.5,0-14.46.28-14.47.27-19.14-13.53-1.08-2.93-2.33-5.79-3.4-8.72C330.87,261.56,329.8,259.87,331.16,258.08Z"/><path class="cls-49" d="M434.05,223.06c-2.7-1.67-6.31-3-8.36-5.52-1.13-1.41,1.76-4.23,3-6.31s2.66-.21,3.64.44c2,1.35,3,1,4.1-1.14,2.09-4,4.52-7.75,6.72-11.65,1-1.77,1.74-2.92,4.12-1.45,2.08,1.28,1.72,2.29.75,3.92-3.9,6.56-7.73,13.16-11.58,19.76C435.93,222,435.64,223,434.05,223.06Z"/><path class="cls-48" d="M200.14,329c1.83,2.1,3.69.81,5.36-.14,13.65-7.82,27.18-15.87,40.94-23.51,7.92-4.4,15.18-10,23.73-13.28,1.89,1.67,2.08,4.14,2.93,6.3.56,3.76,1,7.56,1.29,11.33.48,6.74,3.74,11,10,13.08.42,5-1.87,9.15-4.23,13.28-6,5.29-13.41,8.52-20.24,12.55-20.43,12.07-41,23.84-61.58,35.72q-7.54,4.37-15.11,8.69c-2,1.16-3.13.75-3.05-1.77,0-1.33,0-2.67,0-4q0-100.47-.09-200.94c0-4.75.63-8.28,5.5-10.27,3.48-1.42,6.68-3.53,10.59-5.65,0,7.22,0,13.82,0,20.42,0,1.77-.63,3.7.89,5.23l.12,125.73C197.22,324.58,196.69,327.6,200.14,329Z"/><path class="cls-50" d="M434.27,391.05q3.45,2,6.91,4c3.11-.37,5.28,1.75,7.62,3.12,16.2,9.47,32.5,18.76,48.7,28.23,4.59,2.69,5.05,3.86,3.24,8.19-10.05,7.14-21.07,12.68-31.69,18.89-24.41,14.28-49,28.27-73.44,42.48-16.54,9.62-33.27,18.9-49.7,28.69-6.68,4-12.75,4.1-19.58,0-29.4-17.61-59.28-34.39-88.93-51.58-1.47-.85-2.91-1.66-3.26-3.51-1.37-3.75,1.55-5,3.9-6.37,9.47-5.66,19-11.24,28.49-16.86,5.37,2,7.3,4.48,7,9a7.32,7.32,0,0,1-1.43,1.35c-7.4,5.71-6.65,10.53,2,14.45,7.78,3.53,23.24,2,27.14-6.56a4.63,4.63,0,0,1,1.07-1c3.27-1.11,6.84-1.18,9.94-2.94,2.71-1.55,5.12-3.4,5-6.79s-2.59-5.3-5.29-6.66c-6.91-3.5-14-3.19-21.21-.83-1.25.41-2.39,1.15-3.77,1.15-2.12-.67-2.6-2.42-2.83-4.33.36-2.83.56-5.69,2.13-8.2,4.88-4.59,11.13-7.1,16.59-10.82,3.07-2,6.41-3.41,9.53-5.27,1.52-.9,3.23-2,4.86,0,2.47,7.11,1.7,14.72,3.39,21.94,2.71,11.57,1.59,23.36,2.37,35,.93,3.6,3.76,5,7,5.58a11.25,11.25,0,0,1,7.47,4.46c3.07,4.14,7.81,5.42,12.45,6.79,1.08,3.1-1.79,3.48-3.34,4.47-5.25,3.38-10.81,6.27-16.62,9.73,2.06.86,3.06-.18,4.11-.77,6.79-3.78,13.51-7.71,20.25-11.58,1.59-.92,3.95-1.57,2.92-4.36-.66-3.26-2.88-5.47-5-7.81-4.44-4.86-10.06-8.63-13.33-14.57A40.07,40.07,0,0,1,337,456c-.54-16.52-.91-33.06,0-49.58,2.6-5,8.06-6.11,12.33-8.83a16.75,16.75,0,0,0,3.54-2.29c4.69-2.42,9.1-5.36,13.77-7.82a31.49,31.49,0,0,0,3.46-2.13c4.3-2.06,8.21-4.85,12.54-6.86a24.83,24.83,0,0,0,3.42-2.15,41.88,41.88,0,0,1,7.27-4,35.71,35.71,0,0,1,4.93-.82c6.64.33,11.59,4.46,17,7.58a20.86,20.86,0,0,0,3.65,2.08C424.18,384.24,430,386.45,434.27,391.05Z"/><path class="cls-51" d="M287.21,434.91,285,443.16c-3.05,3.44-6.36,4.07-11.62,2.2s-7.15-4.6-7.27-10.39l.3-2.66c-.6-2.15.43-4.08.78-6.11.27-1.11.64-2.2.83-3.34a20.64,20.64,0,0,1,.46-2.07,15.18,15.18,0,0,0,.52-2.91c1-5.69,1.08-11.48,1.93-17.19a20.25,20.25,0,0,1,1.33-5.18,17.26,17.26,0,0,1,1.3-2.62c1.78-2.74,4.14-5.17,4.56-8.65,1.59-3.22,1.67-6.67,1.63-10.15-.09-9.2-.24-18.41,1.78-27.48,1.36-1.71,2.95-.66,4.43-.3a14.28,14.28,0,0,0,7.2-.13c14.17.06,27.65-2.74,40.14-9.66a4.18,4.18,0,0,1,2.84-.67c1.56,1.37,1.65,3.34,2.15,5.14a16.46,16.46,0,0,1,.28,2.42c.14,3.48-.24,7,.59,10.42a14.46,14.46,0,0,1,.35,2.45c.14,2,.09,3.9.08,5.85,0,1.44,0,2.87,0,4.3.09,2.67.18,5.34.06,8-.08,6.49-.11,13,0,19.47,0,3.73.7,7.56-1.37,11-.07,21.31-1.55,42.67,2,63.87-3.28,5.39-9.94,6.68-16.89,3.22-.26,1.72.44,3.71-1.37,5-1.57-4.17-.88-8.54-.74-12.76.39-11.69-2.4-23-3.77-34.45-.46-3.93.14-8-1.31-11.81a3,3,0,0,1-.81-2.82,15.35,15.35,0,0,0,.45-3.76c.34-4.84,1.6-9.63.56-14.52-.1-1.87.56-3.75,0-5.63-.28-1.11-.62-2.21-1-3.29-.92-2.86-1.88-5.7-2.86-8.54a10.66,10.66,0,0,1-.37-1.34,19.26,19.26,0,0,0-.9-3.35c-.82-3.23-2.46-6.37-1.56-10.07a98.75,98.75,0,0,1-2.12,9.71c-.37,2.15-.94,4.26-1.46,6.38a35.6,35.6,0,0,0-.9,3.52,57.53,57.53,0,0,1-5.08,13.61,20.82,20.82,0,0,1-1.17,1.77c-2.38,4.17-5.44,8-6.57,12.79-.4,1.61-.85,3.21-1.18,4.84a21.79,21.79,0,0,0-.73,3.68C289.33,425.62,289.59,430.58,287.21,434.91Z"/><path class="cls-18" d="M234.14,469.55q48.12,27.84,96.25,55.71c5,2.93,9.5,1.39,14.05-1.24q60.87-35.22,121.78-70.35,16.95-9.78,33.86-19.64c4.51.77,2.85,3.33,1.06,5a24.16,24.16,0,0,1-11,6.08c-.65.06-1.47-.1-1.92.23-.93.67,0,1.16.48,1.43,2.72,1.6,5.47,3.15,8.23,4.68,3.94,2.19,4,3.83,0,6.19-10.44,6.15-20.94,12.19-31.43,18.25Q431.7,495.45,397.83,515q-27.37,15.79-54.73,31.67c-5,2.88-9.43,2.5-14.43-.44-22.6-13.29-45.38-26.28-68.08-39.4-7.61-4.4-15.24-8.8-22.75-13.37-3.5-2.13-3.4-4,0-6.16,2.39-1.5,4.91-2.78,7.34-4.22.72-.43,2.14-.79.74-2.06-3.07-2-6.09-4-9.21-5.81C234.54,473.85,233,472.36,234.14,469.55Z"/><path class="cls-52" d="M194.31,512.17a7.21,7.21,0,0,1-2.32,4.29c-7,6.66-24.07,6.74-31,.16-4.3-4.1-3.89-9.21,1.11-12.46a23,23,0,0,1,12.14-3.86c3.75,6.94,9.9,9.91,17.45,10.58A3.24,3.24,0,0,1,194.31,512.17Z"/><path class="cls-53" d="M175,500c1.7-6.51,7.26-7.75,12.62-8.83a26.06,26.06,0,0,1,17.94,2.36c2.92,1.59,5.6,3.67,5.61,7.61s-2.42,6.05-5.44,7.72c-2.32,1.29-4.73,2.46-7.52,2.33-2,.62-4,1-5.07-1.33-2.38-5.36-7.15-6.78-12.22-7.92C178.91,501.47,176.6,501.8,175,500Z"/><path class="cls-54" d="M266.06,435c3.22,9.51,10.06,12.48,18.89,8.19.57,1.32,1.14,2.63,1.72,3.95,3,1.36,3.8,4.77,6.3,6.6,2.25,3.38,5.09,6.47,5.16,10.89-.68,3.32-3,4.47-6.11,4.76-9.22.88-18-5.82-18.82-14.42.22-4.77-4.83-5.45-6.67-8.62C264.53,442.61,263.46,438.87,266.06,435Z"/><path class="cls-55" d="M175,500c7.35.81,15.38.53,19,8.84,1.06,2.44,2.52,2.09,4.2,2.35-1.12,1.05-2.61.66-3.91,1a40.91,40.91,0,0,1-10.64-1.71c-5.15-1.59-8.68-4.53-9.4-10.16A1.53,1.53,0,0,1,175,500Z"/><path class="cls-56" d="M219.54,554.4c9.28-5.36,18.51-10.64,27.67-16,2.22-1.3,3.67-.88,5.15,1.48-9.26,5.37-18.45,10.67-27.62,16C222.54,557.15,221,556.39,219.54,554.4Z"/><path class="cls-57" d="M268.19,426.07a13.08,13.08,0,0,1-1.83,6.24l-19.92,10.93c-1.31-.83-3.18-1.07-3.26-3.16a3.57,3.57,0,0,1,1.36-2.24,7.74,7.74,0,0,1,1.1-.77,41.43,41.43,0,0,0,6.31-3.6,42.85,42.85,0,0,0,6.7-4.17c2.32-1.79,4.57-3.72,7.71-3.9A2.06,2.06,0,0,1,268.19,426.07Z"/><path class="cls-58" d="M279.16,520.05a6,6,0,0,1,4,1.89c-20.38,13.14-22.52,14.07-26.86,11.24Z"/><path class="cls-48" d="M490.15,445.12c2.5-2.69,6.15-3.61,9-5.75,1.57-1.19,5.08-2.8,1-5.34,2.18-3.61-.37-5-3-6.47q-25.47-14.64-50.89-29.37c-1.71-1-3.37-2.1-5.05-3.16.94-3.15,4.11-3.64,6.38-5,8.2-5,16.61-9.67,24.9-14.54a9.48,9.48,0,0,1,10.61,0c19.72,11.59,39.56,23,59.35,34.44,5,2.91,9.92,6,15,8.77,3.68,2,2.73,3.66,0,5.26-17.34,10.06-34.75,20-52.08,30.11-1.95,1.14-3,.4-4.16-1C498.49,449.06,493.12,448.75,490.15,445.12Z"/><path class="cls-59" d="M456.48,337.93c9.07,5.73,19.1,7.54,29.64,7.28,1.51.91,3.33,1,4.83,2a10.16,10.16,0,0,1,1.14.69c1.59,1.53,4.24,1.78,5.06,4.22,2,1.28,1,2.58,0,3.88-2.1,1.76-4.87,2.37-7,4.08h0c-3.53,3.3-7.27,2.33-10.88.32-3.18-1.77-6.57-3.32-9.2-5.87-1.9-1.84-3.4-1.52-5.16-.13a5.67,5.67,0,0,1-1.35.56c-2.7.57-4.85-.72-7-2.05-3.28-1.95-6.72-3.63-9.86-5.83-2.2-1.53-2.35-3.24.1-4.57C449.94,340.78,452.46,337.73,456.48,337.93Z"/><path class="cls-18" d="M434.27,391.05l-16-9.18a1.83,1.83,0,0,1,.37-1.93,4.83,4.83,0,0,1,1.07-.89c3.88-1.93,7.52-4.26,11.21-6.53a69,69,0,0,0,7.09-4c1.88-1,3.61-2.24,5.55-3.11,7.05,0,12.05,4,16.61,8.73.36.91.94,1.89-.28,2.57C451.34,381.46,443.51,387.52,434.27,391.05Z"/><path class="cls-18" d="M466.15,374.1c-1.33,1.37-2.66,1.39-4,0-4.39-2.19-8.53-4.83-12.84-7.16-3.28-1.78-2.75-3.14-.05-4.75,2.52-1.59,5.15-3,7.63-4.65a40.65,40.65,0,0,1,7.27-3.45h0c1.31-.91,2.8-1.33,4.19-.49,4.62,2.8,9.71,4.84,13.78,8.52-.45,3.4-3.7,3.78-5.82,5.34-1.67,1.24-4.05,1.44-5.15,3.53C469.7,372.35,467.64,372.77,466.15,374.1Z"/><path class="cls-60" d="M501.26,344.08c-.09,3-.17,5.95-.26,8.93l-2.85-1.92c-2.77,0-4.73-1.85-7-3l0,0c-.79-1.22-3.22-.78-3-3,3.64-.93,7.29-1.83,10.92-2.81C500.76,341.83,501,342.87,501.26,344.08Z"/><path class="cls-61" d="M450.17,363.05c-1.45.87-3.95,1.17-.58,3.33,4.15,2.66,9.16,3.9,12.58,7.7h-2q-5.48-3.22-10.94-6.47a9.41,9.41,0,0,0-6.05-1.54l-.64-.29c-2.59-2.62-6.61-3.42-8.64-6.77a1.47,1.47,0,0,1,1.23-1.47,5.17,5.17,0,0,1,3.7,1.13,15.14,15.14,0,0,0,11.38,3.17.78.78,0,0,1,.23.81C450.34,362.92,450.25,363.05,450.17,363.05Z"/><path class="cls-61" d="M482.13,362.11c-4.08-2.23-8.18-4.42-12.24-6.7a9.62,9.62,0,0,0-5.73-1.33c1.93-2.14,3-4.26,6.45-.67s8.64,5.31,13.05,7.9c2.57,1.5,4.23-1.42,6.5-1.25C488.09,363.1,485.42,363.82,482.13,362.11Z"/><path class="cls-62" d="M490.15,360.07c1.67-2.5,4.39-3.22,7-4.08C495.57,358.63,492.87,359.36,490.15,360.07Z"/><path class="cls-63" d="M491.16,348.07c2.64.29,4.64,2.06,7,3l-1,1C495.16,350.75,492.42,350.51,491.16,348.07Z"/><path class="cls-64" d="M466.15,374.1c1-2.06,3-2.62,5-3.12C470.19,373.14,468.22,373.69,466.15,374.1Z"/><path class="cls-18" d="M201.16,418.08c-8.19-5.12-8.22-5.18.23-10.11q36.68-21.35,73.39-42.59a4.45,4.45,0,0,1,1.45-.29c2.43,4.73.35,9.17-.86,13.67a6,6,0,0,1-2.33,2c-1.93.74-3.88,1.46-5.22,3.17A5.26,5.26,0,0,1,266,385c-9.08,3.34-16.66,9.43-25.21,13.75-2.16,1.33-4.42,2.48-6.49,3.94a134.56,134.56,0,0,0-13.65,7.83c-1.72.94-3.56,1.73-4.84,3.33a5.38,5.38,0,0,1-2.33,1.27,9.32,9.32,0,0,0-5.05,3,3.29,3.29,0,0,1-2.81.41C204.14,418.58,202.57,419,201.16,418.08Z"/><path class="cls-65" d="M277.27,359.29c-4.08.14-7.08,2.8-10.35,4.67-15.26,8.74-30.43,17.67-45.61,26.56-2.78,1.62-5.53,2.21-8.46.42-1.53-.94-3.94-1.35-4-3.37,0-1.69,2.3-2.27,3.65-3.05q34.28-19.8,68.67-39.42C281,350.12,281.32,355.31,277.27,359.29Z"/><path class="cls-18" d="M206.22,418.07a2,2,0,0,0,1.93-.9c1.52-1.33,3.54-1.83,5.09-3.11a2,2,0,0,0,1.91-.88,18.79,18.79,0,0,1,5-2.69c4-2.88,7.91-6.33,13.24-2.67q2.25,1.17,4.4,2.53l2.13,1.27c6.27,3.77,6.34,5.48,0,8.84-5.1,2.72-9.78,6.2-15.08,8.57l-.73.06c-4,.85-6.53-1.49-9-4-2.05.19-3.46-1.08-5-2.13-.72-1.93-3.37-1.88-4-3.89C205.61,418.71,205.63,418.37,206.22,418.07Z"/><path class="cls-18" d="M236.18,438l-2-1.9c-2.05.21-3.46-1.08-5-2.12-.85-2.47-4.73-1.83-5-4.88h0c3.72-2.08,7.38-4.24,11-6.44,2.28-1.37,4.51-1.94,6.94-.5,4,2.65,8.43,4.51,12.28,7.39,2.84,3.92-2,3.09-2.9,4.68-1.81,1.79-4.45,2.23-6.35,3.86h0c-1.14,1.07-2.72,1.27-4,2l0,0C239.1,440.34,237.71,439,236.18,438Z"/><path class="cls-66" d="M277.27,359.29l3.93-14.19v0c.83-.39,1,.06,1.05.78a327.39,327.39,0,0,0-1.11,33c.05,2.67-.55,5.23-3,6.92-3.73,0-4.43-1.19-3.91-6.79,1.79-4.49,1.66-9.25,2-14C277.37,363.3,277.17,361.27,277.27,359.29Z"/><path class="cls-67" d="M282.25,345.91c-.12-.57-.43-.88-1.05-.78a24,24,0,0,1-1.05-9.06c.09-4.77,2.86-8.71,4-13.15,1.36-1.91,2.43-.73,3.52.33,1,2.13.42,4.22-.19,6.32-3.25,11.3-3.24,11.3,5.74,17.56C289.3,349.32,285.74,347.91,282.25,345.91Z"/><path class="cls-68" d="M210.18,423l5,2.13C212.51,426.68,211.38,424.74,210.18,423Z"/><path class="cls-69" d="M229.18,434l5,2.12C231.51,437.68,230.38,435.74,229.18,434Z"/><path class="cls-70" d="M236.18,438l5,2.06C238.54,441.7,237.39,439.76,236.18,438Z"/><path class="cls-71" d="M206.22,418.07c0,.33,0,.67-.05,1-1.79.28-3.69,1.09-5-1Z"/><path class="cls-70" d="M241.15,440.07a5.57,5.57,0,0,1,4-2,3.45,3.45,0,0,1-2,2Z"/><path class="cls-72" d="M305.16,536c4.72-.67,7.61,2.67,10.95,5q-34.77,20.06-69.53,40.09c-3.17,1.83-6.24,3.92-9.6,5.29a11.65,11.65,0,0,1-10.55-.77q-39.65-23.05-79.32-46.06A17,17,0,0,1,145,538.3c-1.41-1.1-2.4-2.37-1.2-4.24s2.67-1.5,4.28-.57q11.88,6.87,23.76,13.69c16.87,9.69,33.75,19.33,50.59,29.06,4.7,2.71,9.07,2.23,13.63-.41Q270.56,555.87,305.16,536Z"/><path class="cls-18" d="M450,316v3.06c-.61,1.53-1.93,2.38-3.17,3.31a8.49,8.49,0,0,1-1.14.73c-5,3.52-10.05,4.09-15.32.69a8.45,8.45,0,0,1-1.71-1.13c-1.48-1.43-3.38-2.21-5.12-3.23-3.6-2.24-2.95-4.24.25-6.25,1.7-1.06,3.45-2,5.19-3,5-4.46,9.78-2.94,14.47.6C445.84,312.32,448.67,313.24,450,316Z"/><path class="cls-73" d="M511.17,307.06c1.41,3.92-3.39,4.28-4,7l0,0c-1.65,1-3,2.69-5.08,2.95-12.53,4.41-25,5.42-37.71.32-5.76-2.32-10.42-5.66-13.29-11.26,2.79.57,4.06,3.16,6.14,4.7C470.86,320.88,500.69,320,511.17,307.06Z"/><path class="cls-74" d="M450,321.07c-.33,6,.7,11.56,5.29,15.93-2.75,5-6.15,1.25-9.32.69a5.85,5.85,0,0,1-2.4-1.17,23.77,23.77,0,0,0-6-4.06c-3.54-3.44-3.43-4.18.77-6.12a56.77,56.77,0,0,0,7.86-4.26h0C447.4,321.56,448.34,319.93,450,321.07Z"/><path class="cls-75" d="M446.11,337.06c3.06-.81,6.16,4,9.2-.06l1.17.93-11.14,6.81,11.86,7.33a1.72,1.72,0,0,1-1.46,1.37,15.8,15.8,0,0,1-6.53-3.3c-3.64-2.67-7.1-2.87-10.88-.36-2,1.35-4.32,2.33-6.3,3.83.15,2.17,3.67,1.9,3.16,4.46l-1,1c-6-3.46-11.05-.7-16.12,2.28a3.92,3.92,0,0,1-1.42.37,3,3,0,0,1-1.32-.3c-1-1.42-.7-3-.71-4.61a1.87,1.87,0,0,1,.84-1.05c5.13.58,9.07-2.17,13.13-4.63,2.35-1.42,1.36-2.32-.23-3.52-1.85-1.41-4.87-1.48-5.35-4.51a2.52,2.52,0,0,1,1.17-.75c3.21-.23,5.55,1.86,8.2,3.09,3.34,1.55,12.95-2.18,14-5.51C446.69,339,445.66,338.08,446.11,337.06Z"/><path class="cls-76" d="M558.12,344l1,1c-14.38,12.77-47.63,9.72-56-4-.28-.24-.37-.47-.28-.71s.19-.35.29-.35C515.88,353,541.42,354.32,558.12,344Z"/><path class="cls-77" d="M561.19,351a14.13,14.13,0,0,1-6.55,5.84c-15.95,7.47-31.62,7.19-46.75-2.09-1.76-1.08-5.24-2-3.72-5.68,4.06,5.63,10.15,7.71,16.48,9.26a49.72,49.72,0,0,0,34.24-3.55C557.14,353.73,558.51,351.29,561.19,351Z"/><path class="cls-78" d="M450,300.05c.11,2,.21,4,.32,6l-.33,8c-2.71.38-4.3-1.84-6.45-2.75-2-1.5-5.74-1.68-5.63-4.73.1-2.86,3.41-3.84,5.7-5C445.57,300.53,447.45,298.58,450,300.05Z"/><path class="cls-77" d="M452.72,325.88c14.32,12.67,30.76,11.78,47.82,7.68C492.63,343.34,460.43,338.2,452.72,325.88Z"/><path class="cls-79" d="M444.19,311.06l5.82,3v2l-6.84-4C443,311.17,443.13,310.67,444.19,311.06Z"/><path class="cls-80" d="M502.11,317c1.55-1.24,3-2.71,5.08-2.95a11.41,11.41,0,0,1-4,4.05Z"/><path class="cls-81" d="M488.16,345.09c.76,1.25,2.61,1.4,3,3a6.8,6.8,0,0,1-5.06-2.88Z"/><path class="cls-82" d="M450,321.07l-3.86,1c.67-1.79,2.48-2.1,3.85-3C450,319.76,450,320.42,450,321.07Z"/><path class="cls-83" d="M503.18,340c0,.35,0,.71,0,1.06-1.17-1.11-2.12-2.31-1.7-4.2C502.84,337.6,503,338.8,503.18,340Z"/><path class="cls-18" d="M337.13,341.09c-.32-1.68-.63-3.35-.95-5-.54-1,0-1.76.41-2.57,2.65-3.69,5.38-7.31,9.59-9.4L401.74,292c7.9-4.55,15.78-9.13,23.74-13.57,3.62-2,9.59-.57,12.65,2.66,1.29,1.36.4,2-.6,2.72-1.3.91-3.27,1.1-3.38,3.24a2.85,2.85,0,0,1-.95.88,36.14,36.14,0,0,0-4.63,2.28c-2.53,1.77-5.4,2.95-8,4.64-2.09,1.32-4.29,2.44-6.29,3.91-4.32,2.1-8.32,4.77-12.55,7-2.14,1.32-4.38,2.47-6.44,3.92-4.14,2.09-8.05,4.56-12,7-7,3.78-13.85,7.8-20.69,11.86-2,1.12-4.14,1.94-6,3.26-2.16,1.35-4.41,2.53-6.49,4-2.58,1.38-5.09,2.86-7.63,4.29C340.88,341.07,339.21,342.53,337.13,341.09Z"/><path class="cls-84" d="M336.15,271.06a17.88,17.88,0,0,0,.46,1.92c4.13,11.68,4.13,11.65,16.26,11.19,4.64-.18,9.28-.28,13.92-.25a8.16,8.16,0,0,0,5.9-2.3c3-3,6.52-3.74,10.47-3.61l10.92,1.44c-1.24,3-4.47,2.68-5.9,4.68-3.32,6.67-9.57,8.28-16.14,9.33-6.16.6-11.85,3.81-18.21,3.27-1-3.21-2.78-3.06-5.6-1.86-4.87,2.06-9.38,5.57-15.2,4.62a4.54,4.54,0,0,1-3.16-4.61c0-4.84-1.35-9.55-1.16-14.39.16-1.67,0-3.38.65-5C331.27,273.48,332.27,270.06,336.15,271.06Z"/><path class="cls-85" d="M372.16,292.12c6.48-.38,11.54-3.61,16-8a3.43,3.43,0,0,0,1.73,2.83c4.1,2.94,3.94,4-.59,6.55q-23.1,13.25-46.16,26.57c-2.18.33-2.61-1.18-3-2.79,1.18-4.92,3.91-9,7.33-12.59,4.85-1.37,8.93-4.26,13.14-6.85A72.75,72.75,0,0,1,372.16,292.12Z"/><path class="cls-18" d="M433.24,287.07h.91c5.54-4,10.81-3.4,15.86,1l.33,5a1.76,1.76,0,0,1,0,2l-.33,3c-5.3,4.5-6.21,4.67-11.59,1.46-3-1.77-6.09-3.28-9-5.21-1.34-.91-3.57-1.8-1.74-4.17C429.5,289,431.56,288.4,433.24,287.07Z"/><path class="cls-86" d="M341.11,317a3.23,3.23,0,0,0,2.05,3.12c1,1.33,2,2.67,3,4l-9,10c-2.71-.32-2.19-2.58-2.3-4.2-.18-2.65-.5-5.29-.58-7.94a4.23,4.23,0,0,1,2.1-3.23C337.89,318,339.17,316.57,341.11,317Z"/><path class="cls-87" d="M557.14,324.32c1,4.73-1.16,8-4.84,10.6-9.81,7-28.57,7.12-38.4.21-3.38-2.37-6.15-5.2-5.67-9.83,1-4.41,3.94-7.13,7.76-9.1,8.76-4.52,17.9-5.14,27.3-2.48,1.17.33,2.75.37,3,2.11-2.61,3.09-6.26,2.39-9.65,2.61-2.77.17-5.79-.17-6.88,3.4-.76,2.18,1.29,4.08.63,6.24-2.27,1.86-4.25.61-6.22-.62-1.64-1-3.18-2.51-5.22-.81-.72,1.35.4,2.32.69,3.45a5.81,5.81,0,0,1,.17,1.31c0,.67.13,1.79.59,1.76,4.43-.37,8.87,1.28,13.27.08,2-.53,3.67-1.65,3.75-4.08.72-2.34-2.3-4-1.19-6.39,2.34-1.26,4.15.14,5.93,1.31s3.21,1.89,4.48-.46c.06-.83-.13-1.65-.11-2.48a4.59,4.59,0,0,0-.42-3c-.3-.92-.43-1.8.51-2.46C551.9,316.41,555.22,319.51,557.14,324.32Z"/><path class="cls-88" d="M557.14,324.32c-2.69-4.06-6-7.32-11-8.26l.09.08c-11.76-5-22.93-3.76-33.53,3.25-2.18,1.44-3.09,3.84-4.45,5.91.13-6.51,4.95-9.08,9.88-11.14,11.37-4.77,22.64-4.25,33.28,2.12C554.22,318,557.42,320.08,557.14,324.32Z"/><path class="cls-87" d="M506.18,280.27c1.87,4.9-.45,8.26-4.14,11-10.15,7.63-29.76,7.49-39.82-.25-3.55-2.73-5.55-6.05-4-10.69a10,10,0,0,1,5.21-6.36q18.7-10.35,37.47,0A10.81,10.81,0,0,1,506.18,280.27Z"/><path class="cls-89" d="M506.18,280.27c-8.59-13.69-39.46-13.84-48,.1-.42-3.64,2.28-5.37,4.64-7.07,10-7.2,28.54-7.22,38.59-.06C503.81,274.94,506.49,276.65,506.18,280.27Z"/><path class="cls-73" d="M450.33,295.07v-2c14.43,16.59,41.58,19.43,58.55,6.24a11.13,11.13,0,0,0,3.28-4.22c2.31,3.19-.59,4.87-2.21,6.57-5.69,5.94-13.29,7.84-21,8.94a45.51,45.51,0,0,1-29.19-5.14A20.77,20.77,0,0,1,450.33,295.07Z"/><path class="cls-90" d="M428.19,290.14c-1.24,2.46,1.28,2.7,2.33,3.45,2.24,1.62,4.93,2.63,7.16,4.27,4.14,3,8.14,3.72,12.32.22,0,.66,0,1.32,0,2-1.67.7-3.39,1.32-5,2.13-8,4-7.95,4-.82,8.87l-1,1c-4.43-3.64-9-4.77-14-1l-.38-.58c.64-3.87,4.43-4.13,6.91-5.69,3.24-2,3.22-3.35-.07-4.95-4.44-2.17-8.11-6.84-14-4.4a1.71,1.71,0,0,1-1.45-1.38l8-4.95c.35.22.47.45.35.68S428.31,290.14,428.19,290.14Z"/><path class="cls-91" d="M118.76,389l-2.59,1.69a2,2,0,0,1-.53-1.27,11,11,0,0,1,1.86-5c.5-.85,1.24-2.33.71-2.68-3.57-2.39-1.56-5.88-2-8.84-1.2-1.78-2,1.7-3.21.24a.91.91,0,0,1,.15-1.18c5.85-5.8,9.49-5.19,11.89,2-.3,3.12-.11,6.34-2,9.11l0-.12C121.85,385.11,120.9,387.47,118.76,389Z"/><path class="cls-92" d="M116.19,390.21l0,.46c-2.37,2-5.16,3.72-8,1.83s-2.81-5.36-2.1-8.56c1.07-4.75,2.91-9.07,7.1-12,.07.48.14,1,.2,1.43,1.44,2.55-2.15,5-.12,7.55.74.79,1.78,1.28,2.26,2.32.54,2.06-3.06,2.29-2,4.56C114.41,388.59,115.58,389.09,116.19,390.21Z"/><path class="cls-93" d="M123,383.05c.67-3,1.33-6.07,2-9.1C126,377.35,125.57,380.43,123,383.05Z"/><path class="cls-94" d="M118.76,389l4.29-6.05C122.78,385.77,121.69,388,118.76,389Z"/><path class="cls-91" d="M141.17,357.67c-2.49,2.25-5.53,3.83-8.45,1.75s-2.66-5.39-1.83-8.62c1.21-4.71,3.07-9,7.21-11.94a2.36,2.36,0,0,1,.93,1.9,5.15,5.15,0,0,1-.2,1.4c-1.49,2.87-2.85,5.71,1.32,7.59,1.43,2.56-2.88,2.71-2.08,5,.88.8,2.11,1,3,1.84a.86.86,0,0,1,.27.71C141.28,357.54,141.23,357.67,141.17,357.67Z"/><path class="cls-91" d="M138.23,341.21c0-.78-.08-1.56-.13-2.35,2.14-2.64,5-4.31,8.25-3.3,3.6,1.12,2.91,4.8,3.37,7.67-.15,1.21,0,2.44-.17,3.64-2,3-2.67,6.83-5.77,9.12l-2.61,1.68,0-.36c-1.09-1.5-.33-2.95.39-4.15,1.7-2.82,2.63-5.27-.85-7.57-2.43-1.61,2.61-3,.36-4.83C140.1,340.59,139.26,341.57,138.23,341.21Z"/><path class="cls-95" d="M143.78,356l5.31-9.09c.34.23.46.47.38.74s-.17.41-.27.41C148.14,351.21,147.46,354.62,143.78,356Z"/><path class="cls-96" d="M149.2,348.05c0-.38-.07-.77-.11-1.15l.63-3.67C150.31,344.92,150.73,346.59,149.2,348.05Z"/><path class="cls-18" d="M340.18,204.06a70.52,70.52,0,0,0,.05,8.48c.63,5.21-2.17,8-6.29,10.19-5,2.68-9.82,5.55-14.72,8.34-1.16-1-1.21-2.29-1.13-3.64,1.13-3.41.52-6.77-.3-10.12.84-2.22,3-3,4.73-4.2,1.24-.83,2.69-1.51,3.06-3.1.4-1.76,1.05-3.89-.37-5.2s-2.69.55-4,1.14c-3.75,1.7-6.88,4.72-11.17,5.31-4,.07-7.93,1.9-12.09-.26-2.11-1.1-3.92.85-5,2.93-.78,1.44-.63,3.9-3.39,3.44-2.51-2-1.75-4.86-1.76-7.4,0-22.37-.22-44.75.39-67.1-.36-3,1.1-5.11,3.62-6.52,14.66-8.15,29-16.86,43.65-25,.88-.48,1.71-1.1,2.7-.27,3.46.94,1.82,3.78,1.92,5.76s-.56,4.17-.89,6.26c1.38,1.47,1.41,3.32,1.38,5.15-.26,19.23,1.76,38.43,1,57.67C341,192,342.9,198.18,340.18,204.06Z"/><path class="cls-97" d="M336.15,271.06c-2.84.12-3.34,3.64-6,4.09-.61-.73-.59-1.8-1.33-2.46a48.68,48.68,0,0,0-1-7c.78,2,.26,5.08,1.57,7.78.7,2.14-.21,4.42.56,6.56.4,4.71,1.17,9.42,1.07,14.12-.06,2.89,1.28,4,3.4,5-1.67,5.54-4.13,10.57-9.07,14-10.82,3.84-21.66,1.5-32.49.08-4.08-.54-6.31-2.64-6.13-6.95.06-1.49,0-3-.06-4.49-.05-2.68-1.16-4.06-4-3.53-3.65.68-7.29-.19-10.94-.1-.68-2-1.64-3.84-1.55-6,.38-5.89-.57-11.81.68-17.72.9-4.3,2.78-7.61,6.49-9.95,5.52-3.5,10.32-8.16,16.66-10.33,4.24,3.95,8.88,7.17,14.6,8.73,2.52.69,4.19.41,4.8-2.4,1-4.38-.38-9.57,4.29-12.71a1.84,1.84,0,0,1,1.48.38c5.43,1.62,10.43,3.75,12,10A74.18,74.18,0,0,0,336.15,271.06Z"/><path class="cls-18" d="M386.14,97.06c1.67,1.45,1,3.41,1,5.16.05,16.81-.05,33.62.08,50.43,0,5.78.68,11.56.93,17.35s-1.5,10-7.46,13.08c-12.07,6.18-23.61,13.41-35.31,20.31-1.66,1-2.91,1.41-4.19-.32-1.08-5.67-.23-11.4-.5-17.1.4-20-.75-40.07-.5-60.1.15-3.08,1.73-5,4.45-6.58,12.18-7,24.41-13.93,36.51-21.09C382.6,97.35,384.12,95.85,386.14,97.06Z"/><path class="cls-18" d="M287,236.07c-5.14,5.13-12,7.54-18,11.39-7.24,4.68-15,8.58-22.42,12.94-3.4,2-4.52,1.4-4.46-2.66.17-11.49.09-23,0-34.47,0-1.76.64-3.71-.95-5.2a3.07,3.07,0,0,1-1-2.23c-.1-10.82-.12-21.64,0-32.46a6.47,6.47,0,0,1,3.41-5.73c13.5-7.84,27-15.68,40.56-23.41a2.55,2.55,0,0,1,1.94-.16h1a2.94,2.94,0,0,1,.9,1.64c-.07,18.76.6,37.51.63,56.27,0,2-.28,4,.47,5.91.15,3.6-.36,7.15.72,10.8A6.43,6.43,0,0,1,287,236.07Z"/><path class="cls-98" d="M287,236.07c1.38-3.65,3-7.17.53-11.16-1-1.68.39-3.82.7-5.74.36-1.42,1.88-1.34,2.73-2.11.95-7.62,3.44-9.15,10.39-6.14a2.65,2.65,0,0,0,3.08-.35c2-1.43,4.13-.76,6.22-.16,3.39,1.3,4.18,5.49,7.56,6.82,2.49,3.16,3.41,6.44.78,10-2.52,3.94-6.52,4.4-10.54,4s-6.73.24-7.39,4.93c-.61,4.26-4,3.44-6.94,2.89-1.26,2.81,4.23,4.83.52,7.54C290.05,244.55,287,241.38,287,236.07Z"/><path class="cls-99" d="M294.62,246.57a2,2,0,0,0-.1-3.08c-1.88-1.62-4.6-3.32-2.19-6,2.28-2.47,3.94,1,5.88,1.66.33-.19.75-.28.81-.49,2.68-8.23,2.68-8.3,11.61-8.6,3.13-.11,5.68-1.59,8.34-2.88.08,1.28.17,2.56.25,3.84-.27,1.7-.54,3.4-.8,5.1.05,2.93,1.31,5.71,1.09,8.68a4.67,4.67,0,0,1-1.42,3.19c-3.6,3.73-2.33,8.87-3.82,13.21-3.46-8.6-12.14-8.32-19-11.18C295.07,248.9,294.85,247.74,294.62,246.57Z"/><path class="cls-100" d="M345.13,87.15c2.77,3,2.35,4.89-1.87,7.35-11,6.41-22.1,12.76-33.15,19.14-8,4.65-16,9.35-24.11,13.94-2.06,1.16-4.25,3-6.61.39.88-1.76,1.42-3.71,2.81-5.2a34.19,34.19,0,0,0,6.9-3.94c2.31-.84,4.24-2.41,6.5-3.34a31.87,31.87,0,0,0,2.79-1.83c3.58-1.86,6.92-4.17,10.51-6,2.09-1.34,4.41-2.33,6.35-3.91,4.36-2,8.37-4.67,12.55-7,2-1.45,4.56-2,6.29-3.88A34.82,34.82,0,0,0,341,88.9C342.29,88.19,343.75,87.77,345.13,87.15Z"/><path class="cls-101" d="M286.16,154.08c-13.77,7.89-27.51,15.84-41.33,23.64-3.12,1.76-3.68,4.36-3.67,7.51,0,11,0,21.89,0,32.84v43.34a12.86,12.86,0,0,1-1-2.52c.67-24.45-1.48-48.86-1.07-73.31.06-4,1.22-7,4.86-9,13.1-7.52,26.1-15.19,39.13-22.82C284.25,153.06,285.28,152.85,286.16,154.08Z"/><path class="cls-102" d="M295.29,250.07c1-.64.73-3.41,3.31-1.42A27.66,27.66,0,0,0,312,254.28c4.15.58,1.25,4.68,2.26,7-.11,1.65,0,3.44-2.35,3.68-4.67.49-15.66-6.16-17.92-10.85Z"/><path class="cls-4" d="M318.09,248l.25-3c.21-2.9,1.73-4.62,4.35-6,5.26-2.77,10.45-5.72,15.47-8.93,2.89,3.41,2.48,5.28-1.94,7.93-5.65,3.41-11.36,6.71-17.05,10.06Z"/><path class="cls-103" d="M287.2,155.05q0-.48-.06-1c-2.36-12,2.63-19.18,13.79-24.21s21.29-12.06,32-18.08c1.51-.85,3.19-2.91,5.26-.73-12.26,5.86-23.47,13.58-35.42,20-3.36,1.8-6.59,3.83-9.92,5.69-1.79,1-3.49,2-3.66,4.32-1,3.66-.19,7.41-.53,11.1C288.52,153.24,289.48,155,287.2,155.05Z"/><path class="cls-103" d="M386.14,97.06c-8.79,3.46-16.43,9-24.68,13.48-5.65,3.06-11.08,6.52-16.68,9.67a7.4,7.4,0,0,0-3.62,3.86c-.9.23-1.39.06-1-1,.06-1.9,1.29-3,2.77-3.86q19.56-11.29,39.16-22.56C383.43,95.89,385,94.52,386.14,97.06Z"/><path class="cls-104" d="M340.16,123.07l1,1q0,31,0,62c-.32.44-.65.45-1,0,.71-21-1.55-42-1-63Z"/><path class="cls-105" d="M338.16,230.09c-3.76,4.32-9.22,6-13.93,8.84-2.62,1.58-4.89,3.11-5.89,6.08q0-4.42.07-8.84c.54,3.48,2.18,3.46,4.88,1.87C328.13,235.19,332.64,231.67,338.16,230.09Z"/><path class="cls-106" d="M328.2,97.1c-4.23,2.52-8.12,5.66-13,7-.41.49-.8.47-1.16-.06l13.18-7.72A1.27,1.27,0,0,1,328.2,97.1Z"/><path class="cls-107" d="M309.21,108.1c-3.58,2.18-6.91,4.83-11,6-.3-.22-.41-.44-.31-.67s.2-.33.3-.33l10-5.86A1.4,1.4,0,0,1,309.21,108.1Z"/><path class="cls-108" d="M340.18,186.08h1q0,8.49.05,17l-1,1Z"/><path class="cls-109" d="M341.19,89.13c-1.71,2.42-4.3,3.29-7,4-.38.44-.74.42-1.09,0l8.09-4.83c.36.2.48.4.37.6S341.31,89.13,341.19,89.13Z"/><path class="cls-110" d="M296.16,116.06c-2.33,1-4.33,2.71-7,3-.41.49-.8.47-1.16-.06a26.67,26.67,0,0,1,7-4C296.16,114.54,296.32,115.13,296.16,116.06Z"/><path class="cls-111" d="M309.21,108.1l-1-.83,5.84-3.24,1.16.06C313.91,106.48,311.21,106.76,309.21,108.1Z"/><path class="cls-111" d="M288.05,119l1.16.06c-1.7,2.46-4.32,3.31-7,4-.28-.18-.38-.36-.29-.54s.19-.27.28-.27Z"/><path class="cls-112" d="M333.09,93.05l1.09,0c-1.26,2.43-4,2.67-6,4l-1-.79Z"/><path class="cls-113" d="M282.17,122.3c0,.27,0,.54,0,.81-.37,1.94-.93,3.77-2.79,4.86A4.66,4.66,0,0,1,282.17,122.3Z"/><path class="cls-114" d="M296.16,116.06,295,115l3.15-1.87c0,.33,0,.66,0,1Z"/><path class="cls-115" d="M341.19,89.13c0-.3,0-.61,0-.91,1.16-.92,2.38-1.64,3.95-1.07A5.65,5.65,0,0,1,341.19,89.13Z"/><path class="cls-116" d="M566.21,140.15l-20,11.21c0-9.82.53-18.9-.16-27.88-.56-7.22,1.33-11.86,8.31-14.61,4.13-1.63,7.8-4.41,11.67-6.67l.68.65a311.84,311.84,0,0,1,.12,36.56Z"/><path class="cls-117" d="M566,102.2c2.14-1.71,2.14.14,2.15,1.41q.06,17.61,0,35.21c0,1.16-.09,2.63-1.93,1.33l.07-.07c.52-12.66,1-25.32-.23-38Z"/><path class="cls-118" d="M418.47,68.83c.39-7.39,4.12-13.7,6.38-21.09,3.3,2.46,4,6.07,6.12,8.58,4.3,6.52,1.73,12.24-2.08,17.82a4.34,4.34,0,0,1-3.68.4c-.7-.11-1.41-.21-2.1-.37-2.4-.34-3-2.52-4.21-4.09A3.51,3.51,0,0,1,418.47,68.83Z"/><path class="cls-119" d="M428.15,74c3.4-5.51,5.44-11.24,2.82-17.71a6.73,6.73,0,0,1,3.09,4.93c1.07,5.66-3.32,14.91-8.38,17.86-1.86,1.07-3.61,1.55-5.47.15a3,3,0,0,1,1.44-1.41A38.19,38.19,0,0,1,428.15,74Z"/><path class="cls-120" d="M418.47,68.83a.86.86,0,0,1,.68.31c1.19,2.18,1.64,4.4.42,6.73a.83.83,0,0,1-1.43,0C417,73.44,416.22,71.06,418.47,68.83Z"/><path class="cls-121" d="M418.14,75.83l1,.31c1.74.16,3.34.46,2.84,2.86l-1.8.26C418.76,78.58,417.87,77.55,418.14,75.83Z"/><path class="cls-84" d="M271.72,298.08c.43-1.65,1.5-2,3-1.6a16.76,16.76,0,0,0,9.34-.11c3.14-.92,4,.39,4.06,3.49.23,10.72.28,11.08,11,12.55,7.27,1,14.69,3.09,22.09,0,1.44-.59,3.29-.19,4.94-.25,1.89,2.74,4.38,2.45,7.12,1.55,2-.65,4.52-2.12,6.05-.16,1.94,2.49-1.12,4-2.22,5.93l-2,1.49c-1.84,5-6.14,4.47-10.19,4.52-2-.1-4.08,0-6.12-.15-8.15-1.84-16.41-.33-24.6-.77-2.43-.13-5,.33-7-1.57-1,0-2-.85-3-.08-8.46-1.7-9.49-2.72-10.9-11.68C272.6,306.88,272.23,302.47,271.72,298.08Z"/><path class="cls-54" d="M322,477v-6.44c6.81,3.18,12.8,2.76,18.26-1.76,4.84,4.77,9.7,9.52,14.51,14.32,1.9,1.89,3.72,3.87,3.1,6.92-1.5,3.27-4.3,3.38-7.31,3-6.47.19-11.49-2.55-15.17-7.73-1.17-1.65-2.53-2.11-4.46-2.49C327.32,482.12,323.29,481.54,322,477Z"/><path class="cls-122" d="M292,454.17a16.74,16.74,0,0,1-5.33-7.06c8.5-5.13,17.27-5.05,26.13-1.12,3.34,1.48,6.05,3.95,6.06,7.83s-2.72,6.22-6,7.92a23,23,0,0,1-10.51,2.63C299.75,460.12,296.54,456.46,292,454.17Z"/><path class="cls-123" d="M273.2,454.94c2.7,5.22,5.58,10.25,11.53,12.47,5.5,2,10.17.91,12.48-3.13,1.79-1,3.33-.41,4.8.7-1.14,3.9-4.14,5.86-7.64,7.22a28.71,28.71,0,0,1-20.41.29c-4.24-1.5-8.27-3.84-8.39-8.78C265.46,459,269.08,456.51,273.2,454.94Z"/><path class="cls-18" d="M383.18,379.11l-12.67,7.16c-4.21,1.32-6.81-1.93-9.89-3.61-9.8-5.35-10.34-6.21-.19-12,6.27-3.59,10.75-2.69,15.78,1.07,2,1,3.89,2.44,6,3.29a5.81,5.81,0,0,1,1.21.69C384.75,376.94,384.72,378.08,383.18,379.11Z"/><path class="cls-18" d="M383.13,376.07h-.95a20.44,20.44,0,0,0-6.28-3.86,18.65,18.65,0,0,0-2.85-1.83c-4.72-3-4.72-3.46.18-6.84.57-.4,1.16-.77,1.76-1.13,1.61-.88,3.29-1.63,4.85-2.6,2.89-2.29,5.74-1.66,8.6.05a48.43,48.43,0,0,0,5,2.35,9.47,9.47,0,0,1,1.77,1.16c1.81,1.73,5.51,2.29,5,5.43-.56,3.47-4.74,2.76-7,4.43a25.75,25.75,0,0,1-6.94,3.93C384.92,377.7,384.13,376.59,383.13,376.07Z"/><path class="cls-18" d="M367.26,388.25l-14,8c-4.87-.77-8.65-3.78-12.65-6.28-2.31-1.43-2.28-3.76-1.44-6.12,2.89-2.52,6.41-4.06,9.57-6.18a5.72,5.72,0,0,1,1.4-.51c6.58,1.63,11.7,6,17.36,9.34C368,386.82,367.62,387.69,367.26,388.25Z"/><path class="cls-124" d="M316.2,415.11c0,1,0,1.94,0,2.9l-13.11,7.1c-3.43-.07-5.83-2.32-8.48-4-1.38-1.41-3.28-2.27-4.35-4a9.34,9.34,0,0,1,1.11-5c1.8-2.15,4.37-3.25,6.55-4.88a6.29,6.29,0,0,1,3.38-1.12,15.47,15.47,0,0,1,4.29,1C309.62,409.09,314.1,410.53,316.2,415.11Z"/><path class="cls-74" d="M415.2,380.06c-5.71-2.56-10.61-6.87-17-7.92,1.89-4.11,6-5.28,9.55-7.21,3.19-1.69,5.9-.39,8.63,1.28,2.06,1.27,4.09,2.61,6.25,3.73.56.36-.11-.14.43.24,5.77,4,5.74,4.55-.46,7.9a22.93,22.93,0,0,0-3.41,2h0A3.55,3.55,0,0,1,415.2,380.06Z"/><path class="cls-125" d="M437.39,443.39c9.49-5.5,18.67-10.79,27.8-16.15,2.12-1.25,3.67-1,5.2,1.45-9.33,5.41-18.6,10.76-27.84,16.16C440.53,446,439.14,445.09,437.39,443.39Z"/><path class="cls-125" d="M400.78,464.54c9.4-5.46,18.56-10.74,27.69-16.09,2.16-1.27,3.71-.58,5.38,1.36-9.36,5.42-18.66,10.73-27.88,16.18C403.65,467.36,402.39,466.32,400.78,464.54Z"/><path class="cls-126" d="M350.57,493.06c2.25-1.46,5.31-.95,7.31-3,1.47,1.22,2.85,2.15,0,3.7-8.55,4.72-17,9.63-25.41,14.59-2.14,1.27-3.6.82-5.26-1.16Z"/><path class="cls-127" d="M397,471.11c-9.45,5.44-18.79,10.76-28.06,16.22-1.9,1.12-3.6.53-4.28-.85-.79-1.59,1.42-1.9,2.4-2.48,8-4.72,16.12-9.27,24.12-14C393.38,468.68,395,468.78,397,471.11Z"/><path class="cls-128" d="M295.15,420.19l7.93,4.92-15.87,9.8c-.19-5.12,1.37-10,2.2-15C291.39,418.4,293.27,419.3,295.15,420.19Z"/><path class="cls-75" d="M367.26,388.25c-.94-3.63-4.65-3.88-7.13-5.35-3.38-2-6.46-5.21-11-4.82,1.89-3.54.35-5.33-2.91-7-2.75-1.4-5.86-2.44-7.94-5,0-1.34,0-2.69,0-4,.83-1.43,1.65-1.48,2.51,0,3,5.15,8.49,6.76,13.37,8.88,4.38,1.9,12.49-4.55,11.81-8.76a2.5,2.5,0,0,1,1.13-.79c2.56.38,5.37.12,7.09,2.7-4.47,3.21-4.45,3.19.34,6.23A10,10,0,0,1,376.2,372c.34.25.44.48.32.71s-.23.35-.35.35c-6.35-6.13-12.37-3.72-18.33.69-1.3.95-3.73.95-3.9,2.66-.2,2,2.26,2,3.58,2.81,4.21,2.56,8.1,5.74,13,7A5.14,5.14,0,0,1,367.26,388.25Z"/><path class="cls-129" d="M338.29,405c0-3.64.07-7.27.1-10.91.71-5.21,1.19-5.5,5.44-2.66,1.79,1.2,3.74,2.06,5.59,3.12,1.59.92,3,1.88.76,3.6Z"/><path class="cls-130" d="M302,465l-4.8-.7c-.63-3.94-3.36-6.8-5.21-10.11,5.61,1.21,9.71,4,10.37,10.2A.57.57,0,0,1,302,465Z"/><path class="cls-82" d="M350.18,398.11c.81-1.48.35-2.4-1.15-3.11a23.11,23.11,0,0,1-5.17-2.85c-3.12-2.63-4.61-1.48-5.47,1.9V374.11c3.54,2.09,1.57,5.62,2.2,8.46a2.44,2.44,0,0,1-.42,1.48c-2,2.63-.62,4.07,1.71,5.4,3.82,2.18,7.57,4.52,11.34,6.79A3.94,3.94,0,0,1,350.18,398.11Z"/><path class="cls-131" d="M408.17,366.06c-3.41,1.9-7.24,3.11-10,6.08l-4.94,1.1c.17-.27.28-.65.53-.81,6.39-4.13,6.4-4.13.41-8.36.61-.62,1.5-1.08,2.2-.7,3.73,2.08,7.69,1.78,11.69,1.41A.8.8,0,0,1,408.17,366.06Z"/><path class="cls-132" d="M383.13,376.07l3.16,1.1a4,4,0,0,1-3.11,1.94A2.66,2.66,0,0,0,383.13,376.07Z"/><path class="cls-133" d="M415.2,380.06l4,0c-.31.59-.61,1.19-.92,1.79Z"/><path class="cls-97" d="M287.18,323c8.24-.12,16.47-.35,24.71-.28,2.42,0,4.83.87,7.25,1.34,1.94,2.23,4,.48,6,.19,3.84.49,7.25-.34,10-3.28,2.22,4.12-.24,9,2,13.08l-1,2a70.27,70.27,0,0,1-42.92,11.07c-10.57-2.47-10.61-5.55-8.53-13.16C285.72,330.36,287.63,327,287.18,323Z"/><path class="cls-18" d="M366.13,362.1c4,2.49,2.6,3.62-.63,6-7,5.21-13.15,5.15-20-.18-2.45-1.91-5.22-3.42-7.22-5.89,0-2-.07-4-.11-6,3.05-1.23,5.15,2.91,8.23,1.46.41-.21.82-.38,1.23-.57,5.67-4.36,10.28-.91,15,2C364,359.83,365.65,360.28,366.13,362.1Z"/><path class="cls-18" d="M266.15,426.16c-2.69.65-4.7,2.48-6.94,3.92-1.44.16-2.85,1.42-4.35.13-3.85-2.45-7.81-4.71-11.81-6.9-3.94-2.62-4-2.68-.09-5.26a54.19,54.19,0,0,1,5.64-3.76c3.9-3.1,7.89-3.19,12-.36a36.56,36.56,0,0,1,5.4,3.35c1,1.41,3.63,1.43,3.32,3.93l-.24,1.87A8,8,0,0,1,266.15,426.16Z"/><path class="cls-18" d="M273.35,395.36l-1.29,4.73a11.75,11.75,0,0,1-4.3,4.81,9.41,9.41,0,0,1-9.66-.32c-2.72-2.21-6-3.51-8.86-5.52-3.57-2.52-3.51-3.71.4-5.91,1.74-1,3.42-2,5.14-3,6.68-3.89,12.87-2.87,18,3A2.05,2.05,0,0,1,273.35,395.36Z"/><path class="cls-134" d="M338,354.14a42.3,42.3,0,0,1-.74-11.06c5.15-4.28,6.09-4.42,11.37-1.61,2.48,1.32,4.83,2.89,7.32,4.19,1.62.85,3.41,1.83,3.36,3.94-.06,2.31-2,3.32-3.84,4.12a58.89,58.89,0,0,0-8.33,4.36h0C343,359.33,340.63,356.48,338,354.14Z"/><path class="cls-74" d="M298.91,398q2.67-6.94,5.33-13.9c2.79-1.62,4.37,1,6.45,1.83,2.45,1.38,4.89,2.76,6.58,5.12,1.31,1.77,1.07,3.44-.28,5.06a3.3,3.3,0,0,1-1.2,1.93,48.31,48.31,0,0,1-4.78,2.64C306.19,403.21,302.86,402.46,298.91,398Z"/><path class="cls-134" d="M340.16,383c-2.34-2.63.37-6.25-1.77-8.92,0-2.67-.05-5.34-.07-8,4.72,1.12,8.58,4,12.53,6.52,4.9,3.1-1.93,3.36-1.68,5.47h0Q344.74,380.68,340.16,383Z"/><path class="cls-57" d="M268.17,404.08c.27-2.34,2.54-2.72,3.89-4-.54,6.32-.68,12.69-2.15,18.9-2.09.75-3.23-1.23-4.9-1.7-1.47-1.54-3.42-2.25-5.26-3.16-4.15-2.82-4.1-3.59,0-6.35C262.38,406.05,265.48,405.56,268.17,404.08Z"/><path class="cls-135" d="M316.18,397l.81-.91c2.77,5.33,0,10.64,0,16a2,2,0,0,1-2.69.39c-2.9-2.47-6.86-3.29-9.47-6.19-.6-1.78.44-2.82,1.72-3.74A94.12,94.12,0,0,0,316.18,397Z"/><path class="cls-129" d="M274.27,379c2.51,1.57-.6,6.38,3.91,6.79,1.32,3.83-2.66,4.84-3.88,7.32-4-.25-7-3-10-5-3.84-2.6.63-2.89,1.86-4l1-.92c1.51-1.32,3.53-1.8,5.06-3.09Z"/><path class="cls-75" d="M347.16,358.08c2.19-2.9,5.66-3.92,8.56-5.77,3.86-2.46,3.88-3.22-.23-5.54a63,63,0,0,1-6-3.54c-4.09-3-8.1-3.37-12.21-.15l-.15-2c4.91-.77,8.12-5.23,13-6,.07.22.15.44.23.66-.13,1.69-2,2-2.8,3.5,5.53,3.11,10.44,7.35,17.18,7.7.46,0,.72.6.84,1.09-1.21,3.8-5.69,3.57-7.81,6.36,1.61,1.51,4.39,1.77,4.92,4.47a1.71,1.71,0,0,1-.54,1.24,3.76,3.76,0,0,1-.88-.42C356.94,355.85,352.28,354.92,347.16,358.08Z"/><path class="cls-61" d="M266.17,384.08c-2.69,1.83-3.16,3.28.41,4.78a74.84,74.84,0,0,1,7.72,4.29c-.32.74-.64,1.47-.95,2.21-7.66-8.2-16.26-8.49-24.78-.93-1.9,1.69-.57,2.19.68,3.25,2.8,2.38,7.2,2.54,8.91,6.41l-.55.42c-3.65.32-5.94-2.51-8.81-3.92-2.44-1.2-4.77-2.12-7.49-1.78a2.35,2.35,0,0,1-1.16-.74q10.88-6.44,21.76-12.87A6.77,6.77,0,0,1,266.17,384.08Z"/><path class="cls-136" d="M307.18,403.1c-.62,1-2.16,1.41-2,2.95,0,.67.68,1.36,0,2l-4-1c-.41-.31.11-1.18-.21-1.06-1.1.41-2.39.73-2.77,2.13-2.06,1.68-4.06,3.48-6.82,3.95.85-5.09,4-9,6.89-13C301.71,399.36,304.12,402,307.18,403.1Z"/><path class="cls-137" d="M313.37,379l2.9,8.93c.5,1.34-.4,1.48-1.18,1.08a34.43,34.43,0,0,0-4.8-2.55c-1.17-1.95-5.5-1.64-4-5.54C308.38,379.24,310.44,377.54,313.37,379Z"/><path class="cls-138" d="M306.32,374.09,309,363.9l.88.11q1.21,5.44,2.42,10.89c.88,3.16-1.15,2.51-2.91,2.23A4.82,4.82,0,0,1,306.32,374.09Z"/><path class="cls-139" d="M307.18,403.1c-3.7.29-5.86-2.86-8.93-4l.66-1.12c6.08,5.34,11.64,1.52,17.27-1C313.84,400,310.21,401.11,307.18,403.1Z"/><path class="cls-140" d="M306.32,374.09l2.86,2c1,1.17,2.71,1.12,3.9,2a.82.82,0,0,1,.29.91,16.78,16.78,0,0,0-6.19,2.06,1.48,1.48,0,0,1-2.15,0Z"/><path class="cls-139" d="M305.17,408.08c-.1-.68-1.14-1.36,0-2,3.82,2.19,7.27,5.13,11.77,6,0,1.07.46,2.27-.75,3.05C312.61,412.64,309.29,409.72,305.17,408.08Z"/><path class="cls-64" d="M338,354.14c3,1.46,5.49,4.05,9.16,3.93-3.94,3.61-5.9-1.83-9-2Z"/><path class="cls-141" d="M305,381.05h2.15c-1.79,3.35,2.77,2.85,3,5q.51.36.33.69c-.11.22-.23.33-.35.33-1.95-1-3.52-2.84-5.93-3A3.64,3.64,0,0,1,305,381.05Z"/><path class="cls-142" d="M295.15,420.19l-5.74-.23.84-2.9A8.77,8.77,0,0,1,295.15,420.19Z"/><path class="cls-143" d="M310.17,387.05c0-.34,0-.68,0-1,2.34-.36,3.54,2.91,6.08,1.9,1,.82,1,2,1,3.11Z"/><path class="cls-144" d="M265.18,417l4.73,1.95-.63,2.22-4.1-3.19c-.3-.22-.41-.43-.31-.65S265.07,417,265.18,417Z"/><path class="cls-141" d="M313.08,378.09c-1.69.09-3.18-.22-3.9-2,1.11-.18,2.89,1.39,3.08-1.19C313.23,375.79,313.18,376.94,313.08,378.09Z"/><path class="cls-145" d="M266.15,426.16a6.79,6.79,0,0,1,2.89-3.08,4.13,4.13,0,0,1-.85,3Z"/><path class="cls-146" d="M340.29,540.09a14.73,14.73,0,0,1-7-2.28q-39-22.65-78.07-45.19a17,17,0,0,1-2.91-1.9c-1.21-1.08-2.79-2.19-1.12-4.11,1.26-1.46,2.52-1.74,4.35-.67,11,6.47,22.14,12.82,33.21,19.23,13.52,7.82,27.07,15.58,40.52,23.51,5,3,9.39,2.7,14.42-.23q64.2-37.35,128.56-74.37c3-1.75,5.71-3.46,9.43-.48,3.5,2.8,2.78,4.52-.27,6.35-7.83,4.7-15.75,9.26-23.65,13.85Q428.24,490.93,398.69,508q-26.12,15.06-52.33,30C344.5,539.06,342.61,540.24,340.29,540.09Z"/><path class="cls-147" d="M255.23,430.05c1.32.45,2.66-1,4,0-2.07,1.79-4.14,3.57-7,4a.61.61,0,0,1-1.07,0c.38-1.77,4.41-.81,2.95-3.95A.69.69,0,0,1,255.23,430.05Z"/><path class="cls-82" d="M251.15,434.07l1.07,0c-1.73,2.43-4.34,3.3-7.06,4C246.42,435.65,249.14,435.39,251.15,434.07Z"/><path class="cls-61" d="M456.17,353.05l1-1c2.19,1.17,4.37,2.36,7,2-2.05,1.83-4.15,3.58-7,4-.09-.19-.17-.38-.26-.58C457.77,355.85,456.87,354.47,456.17,353.05Z"/><path class="cls-82" d="M475.72,347.15c-.87,2.05-2.23,2.35-3.86,2.68C472.49,347.88,473.91,347.69,475.72,347.15Z"/><path class="cls-133" d="M419.16,380.09c1.63-2.89,5.39-2.93,7.35-5.63-.91-1.69-2.92-2.19-4.34-3.39a.8.8,0,0,1-.28-.81c.08-.28.17-.41.25-.42,3.44-.9,5.81,1.59,8.62,2.69l.44.58A30.73,30.73,0,0,1,419.16,380.09Z"/><path class="cls-148" d="M438.2,369.11c-1.7,2.44-4.33,3.26-7,4l-.05-.06c.56-3.81,3.46-4.19,6.47-4.4Z"/><path class="cls-61" d="M443.17,366.08c-1,2-2.93,2.64-5,3l-.05-.06c.37-3.2,2.13-4,5-3Z"/><path class="cls-61" d="M450.17,363.05c0-.34,0-.68,0-1,.89-3.85,3.42-4.84,7-4l.05.06C455.53,360.72,452.31,361.11,450.17,363.05Z"/><path class="cls-18" d="M443.17,366.08c-2.07.32-3.92,1-5,3-2.68.73-5.31,1.54-7,4-3.44.34-5.76-2.65-9-3-2.26-.9-4.19-2.42-6.39-3.45-1.35-.63-2.75-1.49-2.78-3.07,0-1.94,2-1.68,3.16-2.41,1.78-.9,3.86-1.46,5.28-2.75,4.61-4.18,8.66-2.54,12.71.74C437.15,361.43,441.69,361.8,443.17,366.08Z"/><path class="cls-18" d="M457.15,358.05c-2.67.73-5.29,1.55-7,4-6.31,3.71-10-2.34-15-3.95-1.39-1.89-4.37-1.78-5.43-4.5.62-.4,1.24-.86,1.92-1.24,15-8.39,9.68-7.81,24.49.72C459.72,354.09,459.9,355.78,457.15,358.05Z"/><path class="cls-90" d="M233.17,409.07c-5-3.84-9-.7-13,2-.35-.22-.46-.45-.35-.68s.23-.34.34-.34a39.71,39.71,0,0,1,14-8c.08.21.16.41.25.62-.77,1.67-2,3.27-.67,5.22A1.66,1.66,0,0,1,233.17,409.07Z"/><path class="cls-149" d="M240.15,398.07l1.07,0c-.91,3.85-3.41,4.92-7,4l-.05-.06C235.45,399.68,238.13,399.37,240.15,398.07Z"/><path class="cls-150" d="M213.24,414.06c-1.1,2-3,2.65-5.09,3.11C209.18,415,211.13,414.42,213.24,414.06Z"/><path class="cls-151" d="M220.15,410c0,.34,0,.68,0,1l-5,2.14C216.13,411,218.11,410.49,220.15,410Z"/><path class="cls-152" d="M272.21,380.07c-1.08,2-3,2.63-5.06,3.09C268.17,381.05,270.1,380.41,272.21,380.07Z"/><path class="cls-131" d="M249.16,415c-1.51,1.88-3.84,2.43-5.84,3.48-3,1.62-2.56,3-.09,4.54a.68.68,0,0,1-1.12.06c-4.12-2.1-7.26.57-10.46,2.35-2.45,1.35-4.63,3.16-7.49,3.63,4.2-4.08,9.62-6.24,14.51-9.24,1.79-1.1,4.76-1.8,4.76-3.77s-3-2.69-4.76-3.78a16,16,0,0,1-1.54-1.21,2.39,2.39,0,0,1,1.14-.73c4,.09,7,3.17,10.94,3.52a.7.7,0,0,1,.23.78C249.34,414.9,249.25,415,249.16,415Z"/><path class="cls-64" d="M238.23,411.05l-1.1,0-4-2c0-.35,0-.71,0-1.06C236.06,407.05,237.85,407.89,238.23,411.05Z"/><path class="cls-61" d="M242.11,423.11l1.12-.06c4.49,1.49,8.28,4.19,12,7l-1.13.07C249.93,428.08,245.69,426.17,242.11,423.11Z"/><path class="cls-18" d="M429.29,322.09l.87,1c.49.54,1.24.45,1.8.76,1.41.78,3.45,1,3.62,3s-1.7,2.71-3,3.67c-1.72,1.3-3.82,2-5.62,3.22a20.61,20.61,0,0,1-1.88,1.2,7.52,7.52,0,0,1-5.78.9c-2.9-1.28-5.48-3.15-8.38-4.43-.68-.44-1.28-1-2-1.43-5.86-3.79-5.86-4.43,0-8.61,1.7-1,3.55-1.72,5.23-2.73,3.55-2.13,6.82-1.93,9.92.82A28,28,0,0,1,429.29,322.09Z"/><path class="cls-153" d="M424.17,320.07c-3.34-2.36-6.6-2.29-10,0a28,28,0,0,1-5,2l-.68-.1c-1.92-1.55-5.54-1.46-5.11-5.29.59-.32,1.37-.69,1.87-.35,6.23,4.17,10.77-.24,15.64-3a41.32,41.32,0,0,0,3.61-2.56,6.83,6.83,0,0,1,2.52-1.09c1.1-.12,1.59.69,2.16,1.4l0,0a30.72,30.72,0,0,1-4.49,2.95c-3.36,1.48-2.85,3.08-.47,5,.34.25.44.49.32.72S424.29,320.07,424.17,320.07Z"/><path class="cls-139" d="M426.16,333.08c1.94-1.16,3.88-2.31,5.81-3.49,2.64-1.63,4.44-3.26.1-5.08a9.87,9.87,0,0,1-1.91-1.44c.82.08,1.84-.11,2.41.31,3.76,2.82,7.27,2,10.84-.38a10.8,10.8,0,0,1,2.76-.92c-1.69,2.64-4.6,3.82-7.2,4.76-4.26,1.53-3,3.08-.78,5.17a.91.91,0,0,1,0,1.26c-3.43-.35-6.86-1-10.14.88C427.41,334.49,425.93,334.9,426.16,333.08Z"/><path class="cls-70" d="M424.17,320.07l0-1.07c2.06.44,3.95,1.14,5.09,3.09C427.32,322.09,425.87,320.77,424.17,320.07Z"/><path class="cls-124" d="M426.16,333.08c1,1,1.92.18,2.58-.31,3.27-2.42,6.35-1.68,9.44.29,2.68-.36,4,2,6,3l2,1c3.62,2.22,2.92,4.08-.46,5.75a9,9,0,0,0-2.19,1.18c-5.07,4.49-10.18,4.73-15.56.5-1-.78-2.43-1-3.67-1.44-.8-.67-1.88-.56-2.75-1-3.69-1.9-3.66-3.49.11-6.1a9,9,0,0,0,3.6-1.95Z"/><path class="cls-154" d="M444.14,336.07c-2.37-.23-3.81-2.33-6-3,0-.35,0-.7,0-1.05C440.73,332.55,442.91,333.62,444.14,336.07Z"/><path class="cls-18" d="M408.16,365c-5,3.84-9.36-.18-14-1-.3-.32-.59-.65-.88-1a51.51,51.51,0,0,0-5.6-3.07c-2-1.51-2.54-3.3-.2-4.73,3.5-2.15,6.89-4.61,10.83-5.95,3.55-1.22,6.42.55,9.21,2.41,2.62,1.68,5.53,3,7.62,5.38a3,3,0,0,1,0,3.91A22.59,22.59,0,0,1,408.16,365Z"/><path class="cls-18" d="M423.13,343.09c2.49,1.56,4.93,3.21,7.48,4.65,2.11,1.2,3,2.12.17,3.55-3.22,1.63-6.31,3.5-9.49,5.2-2.08,1.11-4.14.65-6.12-.4-3.44.06-5.32-3.15-8.35-3.95-6.08-4.34-6-4.22.45-8.37C412.51,340.4,417.63,338.36,423.13,343.09Z"/><path class="cls-75" d="M423.13,343.09c-8.39-4.59-14,1.52-20.5,4.94,1.2,2.08,3.83,1.92,4.56,4,.34.23.45.47.34.7s-.24.34-.35.34c-4.48-4-8.91-3.5-13.46-.05a19.52,19.52,0,0,1-4.77,2.64c-2.95,1.11-2.27,2.62-.77,4.38.35.22.47.44.35.67s-.23.33-.34.33c-2.68-1.62-5.36-2.66-8,0a1.62,1.62,0,0,1-.52-1.2c.46-2.44,2.94-2.9,4.43-4.22-.82-2.08-4.34-1.74-3.7-4.72a2.43,2.43,0,0,1,2.79-.36c5.71,3.86,9.92-.29,14.48-2.57,2.36-1.18,2.35-2.3.14-3.86-2-1.42-5.07-1.81-5.56-5,2-1.71,3.94-.63,5.38.58,5.34,4.51,10.27,3,15.25-.54a47.72,47.72,0,0,1,4.58-3,5.26,5.26,0,0,1,2.05-.59c.94,0,1.94-.3,2.74.48-3.17,2-3.71,3.74.39,5.26.66.24,1.09,1.1,1.62,1.68Z"/><path class="cls-75" d="M408.16,365c1.69-2.42,4.3-3.24,6.95-4l1.07,0c-3.29,2.06-2.7,3.63.46,5.25,2,1,4.37,1.47,5.55,3.69,0,.35,0,.7,0,1.05a88.8,88.8,0,0,1-8.07-4.74,4.94,4.94,0,0,0-5.93-.27C408.17,365.71,408.16,365.37,408.16,365Z"/><path class="cls-155" d="M407.18,353.06c0-.35,0-.69,0-1,3.15.39,5.17,3,8,4.07,0,.35,0,.7,0,1.05C412,356.73,410,354.14,407.18,353.06Z"/><path class="cls-75" d="M362.12,328.06a102.77,102.77,0,0,1,21-12c.08.22.16.44.25.66-1.89,2.41-2.8,4.49,1.12,6a6.86,6.86,0,0,1,4,3.39,1.64,1.64,0,0,1-.41,1.29c-3.13.93-5.45-1.08-7.66-2.56-3.25-2.17-6-1.94-9,.19-2.41,1.67-4.95,3.29-8,3.68A2.22,2.22,0,0,1,362.12,328.06Z"/><path class="cls-153" d="M362.12,328.06l1.07,0c1.81,2.42,4.41,3.77,6.94,5.27,1.43.84,3.52,1.65,1.78,4-2.23.86-3.81-.6-5.47-1.59a28.39,28.39,0,0,0-9.13-3.8,2.82,2.82,0,0,1-1.15-.9A11.47,11.47,0,0,1,362.12,328.06Z"/><path class="cls-90" d="M401.15,305.07c4.2-2.55,8.12-5.64,13-7a.75.75,0,0,1,1.14-.12c-2.11,2.88.32,4.81,1.47,7a2.33,2.33,0,0,1-.45,1.27c-.31.14-.72.33-.94.18-4.23-3-8.61-2-13-.59A2.35,2.35,0,0,1,401.15,305.07Z"/><path class="cls-61" d="M383.14,316.05a30.71,30.71,0,0,1,12-7l.47.44c.78,1.27,2.25,2.19,2,4a1.41,1.41,0,0,1-.92.92,9.55,9.55,0,0,0-9,1.13c-1.29.86-2.87,1.9-4.58.59Z"/><path class="cls-82" d="M356.16,331.07l1,0c-.88,3.9-3.42,4.9-7,4l0-.06C351.45,332.68,354.13,332.37,356.16,331.07Z"/><path class="cls-156" d="M415.19,298.09l-1.07,0c1.33-2.36,4-2.68,6-4l1,1C419.87,297.44,418,298.58,415.19,298.09Z"/><path class="cls-62" d="M401.15,305.07l1.08,0c-.93,3.84-3.41,4.94-7.05,4l0,0C396.45,306.67,399.14,306.38,401.15,305.07Z"/><path class="cls-64" d="M428.19,290.14c0-.34,0-.68,0-1,1.67-.72,3.11-2,5.06-2C432.15,289.06,430.23,289.71,428.19,290.14Z"/><path class="cls-157" d="M337.09,319.49c-.37-2.14,2.41-3.21,1.86-5.52-2.47-.56-4.43.67-6.56,1.56-3.52,1.46-6.21-.09-6.25-3.36l8.28-13.09,20.07-7.79c.8,2.15-1.05,3.21-1.25,4.76a12.44,12.44,0,0,1-5.15,8.9l-7,12Z"/><path class="cls-158" d="M348.09,305l5.15-8.9,18.92-3.93q-11,6.67-22,13.35A1.35,1.35,0,0,1,348.09,305Z"/><path class="cls-159" d="M329.17,273.08a2.2,2.2,0,0,1,1,2.07c-.07,1.61-.15,3.23-.23,4.84-1.55-2.16-.46-4.61-.79-6.91Z"/><path class="cls-160" d="M547.21,321.09l.9,2c-2.15,2.52-4.28,2-6.79.34-1.37-.92-3.3-3.6-4.91,0,1.21,1.68,2.87,3.19,1.93,5.61.16,1.83-1.12,2.69-2.46,3.33-5.22,2.47-10.65,0-16,.54-.66.07-1.21-1-.93-2a.92.92,0,0,1-.1-.63c.24-1.68-1.06-2.78-1.56-4.17,2.2-2.56,4.29-2.87,6.78-.17,1.55,1.67,3.62,2.87,6.17,2.17.62-2.4-1.7-3.82-1.94-5.93-.2-5.22,3.73-5.49,7.16-5.33a40.13,40.13,0,0,0,10.73-.68l-.09-.08c.35.67.69,1.35,1,2A2.86,2.86,0,0,0,547.21,321.09Z"/><path class="cls-161" d="M519,330.88c4.11,2.58,15.83,1.43,19.37-1.89.86,5.36-3.37,5.25-6.59,5.89s-6.61-1.3-10.23.14C519.76,335.73,517.33,333.86,519,330.88Z"/><path class="cls-162" d="M536.41,323.38c-.33-.86-1.27-1.75-.18-2.63,1.69-1.36,3.39-.3,4.44.73,2.26,2.23,4.55,3,7.44,1.58-.68,3.72-2.8,4.72-5.62,2.59C540.68,324.28,539,322.53,536.41,323.38Z"/><path class="cls-163" d="M528.32,322.15c.81,1.92,4.22,3,1.94,5.93C529.45,326.16,527.56,324.59,528.32,322.15Z"/><path class="cls-164" d="M517.31,326.08c.78,1.29,4.31,1.55,1.56,4.17C517.65,329.12,516.81,327.85,517.31,326.08Z"/><path class="cls-165" d="M547.21,321.09c-2-1-2.09-2-.06-3C548,319.07,547.63,320.08,547.21,321.09Z"/><path class="cls-166" d="M486.09,280c1,1.91,2.63,3.59,1.93,6a4.81,4.81,0,0,1-.7,1.28c-3.49,3.7-15.21,4.13-19.22.72a14.53,14.53,0,0,0-.8-2.27c-.88-1.64-1.19-3.32.65-4.29,1.48-.79,3.07-1.6,4.82.35s3.85,4.37,7.16,2.46c.09-2-1.85-3.13-2-5-1.07-5.32,3-5.47,6.31-6,3.15-.5,6.24.6,9.63-.05,3.71-.71,2.66,3.58,3.37,5.87-1.25,3.93-3.48,2.59-5.94,1.25C489.75,279.51,488,276.92,486.09,280Z"/><path class="cls-161" d="M468.1,288.06c6.73.2,13.71,2.89,19.92-2-.25,5.89-4.93,5.24-8.61,5.48-2.67.18-5.23-.9-8.13.22C469.62,292.4,466.91,291.27,468.1,288.06Z"/><path class="cls-167" d="M486.09,280c-.86-.74-1.27-1.78-.29-2.46,1.81-1.23,3.62-.16,4.92.95,2.17,1.83,4.09,3.4,6.56.6,1.33,1.47,1,2.8-.66,3.54-1.4.61-2.92,1.74-4.5.05S488.72,279.5,486.09,280Z"/><path class="cls-168" d="M478,279.3c.91,1.57,3.58,2.45,2,5C478.47,283,477.21,281.52,478,279.3Z"/><path class="cls-18" d="M415.19,298.09l6-3c2.58-2.25,5.19-2.37,8.1-.45,3.16,2.09,6.43,4,9.75,5.86,2.48,1.38,2.12,2.25,0,3.76-3.26,2.3-7.76,2.87-9.82,6.87l-2-1c-1.56.88-3,.14-4.54-.19a6,6,0,0,1-1.2-.64c-1.65-1.54-3.81-2.44-5.22-4.27-.28-.38-.49-1-.86-1.12C410.49,302,411.67,300.11,415.19,298.09Z"/><path class="cls-169" d="M115.31,383l-3.16-1.14c-1.38-4.39,1.38-7.05,4.06-9.75,1.25.29,2.77.23,3,2,.37,2.43-2.32,1.92-3.36,3.53,5.5,1.67,5.06,4.76,2,8.57-.88,1.1-1.18,2.66-1.75,4l-4-1.39c-.75-1.48-.83-2.69,1.15-3.25C114.53,385.23,115.74,384.75,115.31,383Z"/><path class="cls-170" d="M116.21,372.14c-1.41,3.23-4.61,5.71-4.06,9.75-3.65-3.39,1.18-5.61,1.17-8.5C114.13,372.61,114.6,371.06,116.21,372.14Z"/><path class="cls-171" d="M115.31,383c3,1.16.38,2-.3,2.42-1.39.84-3.21,1.11-2.87,3.37-2-1.29-1.61-2.62.16-3.6C113.41,384.6,114.74,384.36,115.31,383Z"/><path class="cls-172" d="M141.19,339.22c1.24.27,2.74.22,3,1.95.31,2.33-2.23,2-3.33,3.49,4.9,1.59,5.24,4.4,2.28,8.24-.94,1.22-1.28,2.92-1.9,4.4l-4.08-1.41c-.88-1.51-.84-2.7,1.09-3.3,1.23-.38,2.49-.77,2-2.53-5.55-1.39-6-3.13-2-7.92C139.47,341.4,139.81,339.79,141.19,339.22Z"/><path class="cls-173" d="M140.22,350.06c2.8.79.71,1.81,0,2.31-1.38.92-3.45,1.09-3.05,3.52-2.47-1.35-1.53-2.73.2-3.65C138.46,351.65,139.72,351.41,140.22,350.06Z"/><path class="cls-174" d="M141.19,339.22c-.82,1.13-1.07,2.83-2.93,2.92a1.83,1.83,0,0,0,0-.93C139,340.28,139.13,338.3,141.19,339.22Z"/><path class="cls-175" d="M318.19,217.23c-4.75.19-5.58-4-7.56-6.82,4.44-2.5,8.9-5,13.31-7.52,2.17-1.25,2.93-.95,3.44,1.76C328.84,212.33,323.18,214.46,318.19,217.23Z"/><path class="cls-176" d="M325.92,157.18a5.78,5.78,0,0,1-2.81,3.94c-6.89,3.95-13.76,7.95-20.66,11.87-.9.51-2.07,1.65-3,.18a2.7,2.7,0,0,1,.52-3.23,9.34,9.34,0,0,1,2.13-2c6.86-4,13.78-7.92,20.65-11.9C324.41,155,325.54,155,325.92,157.18Z"/><path class="cls-177" d="M287.2,155.05c2-2.62.55-5.64,1-8.44.27-1.86-.68-3.92,1-5.53,0,23.64,0,47.28.08,70.92,0,1.75-1.19,4.18,1.71,5.06l-2.73,2.11C288.48,197.79,286.42,176.44,287.2,155.05Z"/><path class="cls-178" d="M320.22,130.72c-2.25-.45-2.19-1.83-1.9-3.16.48-2.16,2.25-3.17,4-4.17,3.47-2,6.91-4,10.38-6a2.31,2.31,0,0,1,2.8,0c1.08,1,.63,2.12.13,3.2-1.32,2.83-4.27,3.57-6.64,5C326,127.45,323,129.13,320.22,130.72Z"/><path class="cls-4" d="M320.51,147.86a2.76,2.76,0,0,1,.08,3.94c-4.25,4-9.46,6.56-14.78,8.71-1.88.77-1.68-1.42-1.39-2.61C304.8,156.28,318.28,147.67,320.51,147.86Z"/><path class="cls-4" d="M326.11,187.09a4.06,4.06,0,0,1-2.3,3.59c-3.51,2.17-7.06,4.3-10.64,6.35-1.08.61-2.44,1.74-3.54.28-1-1.28,0-2.82.84-3.59,4-3.5,8.77-5.81,13.4-8.32C325.14,184.71,326.05,185.61,326.11,187.09Z"/><path class="cls-4" d="M310.81,178.92a1.41,1.41,0,0,1-1.4-2,5.88,5.88,0,0,1,2.45-3.62c3.71-2.17,7.39-4.37,11.11-6.52.87-.5,1.89-.91,2.7,0a2.57,2.57,0,0,1,.13,2.81C325.41,170.51,311.8,179,310.81,178.92Z"/><path class="cls-4" d="M326.1,176.73a4.17,4.17,0,0,1-1.93,3.8,71.05,71.05,0,0,1-12,7c-.94.45-2,.76-2.67-.28a1.87,1.87,0,0,1,.37-2.29c4-4.47,9.6-6.37,14.52-9.36C325.7,174.84,325.93,176.26,326.1,176.73Z"/><path class="cls-179" d="M302.09,204c-1.48,0-2.76-.58-2.52-1.9.44-2.43,1.37-4.84,4.13-5.6a1.73,1.73,0,0,1,2.26,1.9A6.14,6.14,0,0,1,302.09,204Z"/><path class="cls-179" d="M306,179c-.83,2.57-1.08,5.27-4.07,5.86-1.25.25-2.55-.54-2.31-1.83.43-2.41,1.34-4.79,4.06-5.6C305.11,177,305.54,178.18,306,179Z"/><path class="cls-179" d="M303.54,187.15c1.4.2,2.57.82,2.27,2.15a6.85,6.85,0,0,1-4.49,5.37c-1.27.4-2.2-1-2-2.16C299.81,190,300.91,187.88,303.54,187.15Z"/><path class="cls-159" d="M329.17,273.08c-2-3.15-1.83-6.78-2.87-11.27,3.25,4,2.86,7.68,2.87,11.27Z"/><path class="cls-4" d="M352.51,180.25c-1-5,.6-7.42,3.66-9.17,6.45-3.68,12.9-7.37,19.3-11.15,3.18-1.88,4.56-1.63,4.81,2.57.29,4.81-1.51,7.74-5.68,9.92-5.7,3-11.21,6.34-16.79,9.56-1.53.88-3,2.69-4.85,1.54C351.33,182.52,352.58,180.42,352.51,180.25Z"/><path class="cls-180" d="M380,125.92A7.43,7.43,0,0,1,376,131.1c-6.18,3.51-12.29,7.15-18.48,10.66-1.34.76-3,2.44-4.37.59s0-3.87,1.67-5c2.42-1.71,5.06-3.14,7.63-4.63,4.58-2.66,9.18-5.28,13.77-7.91C378.07,123.7,379.59,123.58,380,125.92Z"/><path class="cls-4" d="M380.08,137.05a7.86,7.86,0,0,1-1.22,2.46c-4,3.78-9.11,5.89-13.92,8.4a1.75,1.75,0,0,1-2.5-.93,2.79,2.79,0,0,1,.67-3.22c4.19-3.87,9.57-5.8,14.46-8.52C378.62,134.66,379.84,135.26,380.08,137.05Z"/><path class="cls-4" d="M375.05,118.86c-.58,1.75-1.17,3.25-2.77,4.16-3.74,2.11-7.44,4.3-11.16,6.45-1.24.71-2.67,1.07-3.56-.26a2.66,2.66,0,0,1,.7-3.61,60.29,60.29,0,0,1,14-8.34C373.58,116.72,374.9,117.16,375.05,118.86Z"/><path class="cls-4" d="M377.74,144.28c2,.45,2.51,1.37,1.83,3a7.59,7.59,0,0,1-3.15,3.72c-3.27,1.93-6.49,4-9.81,5.81-1.19.67-2.73,2.17-3.94.51s-.24-3.78,1.22-4.82c2.67-1.92,5.68-3.37,8.54-5C374.27,146.36,376.09,145.26,377.74,144.28Z"/><path class="cls-181" d="M359.14,149.24c-.4,2.75-1.76,4.93-4.68,5.47-1.61.29-2.35-1.16-2.19-2.58.3-2.71,1.31-5.24,4.3-5.83C358.35,146,359.06,147.48,359.14,149.24Z"/><path class="cls-182" d="M354.86,164c-1.73-.26-2.82-1.15-2.48-2.68.55-2.47,1.61-4.82,4.59-5.17,1.77-.21,2.25,1,2.17,2.56C359,161.61,357.11,163,354.86,164Z"/><path class="cls-4" d="M252.17,236.17c-.75-3.63,1.44-6.07,4.72-7.95q9.47-5.41,18.88-10.92c2.48-1.44,3.86-1.67,4.76,1.94,1,4,.09,7.08-3.07,9.06-6.57,4.13-13.35,7.93-20.16,11.68C252.63,242.55,252.18,242.16,252.17,236.17Z"/><path class="cls-180" d="M255.13,200.63c-1.6.32-1.94-.55-2-1.65a4.93,4.93,0,0,1,2.87-4.81c6.73-3.89,13.45-7.79,20.2-11.63,1.05-.59,2.35-1.83,3.49-.31,1,1.36.53,2.89-.5,4.09a8.7,8.7,0,0,1-2.28,1.85q-9.64,5.63-19.31,11.18C256.73,199.84,255.83,200.26,255.13,200.63Z"/><path class="cls-4" d="M280.17,194.45a3.63,3.63,0,0,1-1.64,3.44,84.08,84.08,0,0,1-12.94,7.47c-.91.41-1.88,1-2.76.18-1.11-1-.25-2.15.22-3.18,1.88-4.07,6.56-4.29,9.54-6.88a24.49,24.49,0,0,1,4.69-2.81C279.22,191.63,280,192.56,280.17,194.45Z"/><path class="cls-4" d="M260.12,187.77c-1.6,0-2.24-.43-2.61-1.25a2.55,2.55,0,0,1,.89-3.12c4.27-3.77,9.43-6.17,14.32-8.94,1.61-.91,2.5.34,2.36,2a4,4,0,0,1-.86,2.3C270.13,183.09,264.31,184.65,260.12,187.77Z"/><path class="cls-4" d="M280.13,204.38c-.31,2.22-2,3.52-3.89,4.62-3.26,1.92-6.61,3.7-9.89,5.58-1.09.62-2.07,2-3.4.54-1.49-1.64-.44-3.29.56-4.46,2.41-2.81,6.22-3.57,9.13-5.73a23.23,23.23,0,0,1,4.85-2.45C279.09,201.8,280,202.4,280.13,204.38Z"/><path class="cls-183" d="M256.33,204.14c2.62,0,3,1.3,2.79,2.74-.36,2.53-.92,5.1-4.25,5.11-1.44,0-2.85-.82-2.23-2.49C253.47,207.28,254.05,204.62,256.33,204.14Z"/><path class="cls-4" d="M253.14,218.8a5.23,5.23,0,0,1,4.12-5.4c2.29-.53,1.9,1.74,1.88,3.11a5.05,5.05,0,0,1-4.3,5.27C252.92,222.13,253.31,220.13,253.14,218.8Z"/><path class="cls-43" d="M566.05,102.11c1.19.72,1.14,1.9,1.14,3.06q0,16.1,0,32.2a3.26,3.26,0,0,1-.9,2.71C566.4,127.42,566.82,114.76,566.05,102.11Z"/><path class="cls-184" d="M422,79c-.1-1.8-2.21-1.59-2.84-2.86,0-2.33,0-4.67,0-7,2.58.2,1,4.44,4,4.18a1.32,1.32,0,0,0,1.93.11c1,.33,1.89,1.1,3,.6A20.5,20.5,0,0,1,422,79Z"/><path class="cls-185" d="M425.1,73.43c-.11,1.15-.71,1.89-1.88,1.49-.92-.32-.15-1-.05-1.6Z"/><path class="cls-186" d="M325.16,324.26a9.08,9.08,0,0,1-4.86,2.34c-3.37.73-1.45-1.36-1.16-2.53Z"/><path class="cls-133" d="M376.17,373.07l0-1.06c2.32.88,5.15,1,6,4.07C379.79,375.86,378.34,373.75,376.17,373.07Z"/><path class="cls-59" d="M380.16,351.07a6.52,6.52,0,0,0,1,1c5.24,3.15,5.24,3.13.19,6.5a7,7,0,0,0-1.24,1.45c-1.47,1.37-3.57,1.72-5,3.15l-1,.9-6.95-2c-1.55-1.24-3.56-1.7-5.05-3-1.34-2.54-4.47-2.52-6.42-4.51,2.41-3.24,6.63-3.82,9.42-6.44a4.39,4.39,0,0,1,1.2-1.75c5.75-2.8,9.35,1.45,13.45,4.11Z"/><path class="cls-187" d="M388.19,361c0-.33,0-.66,0-1,2.08.4,4,1.12,5.11,3.07C391.32,363.07,389.86,361.78,388.19,361Z"/><path class="cls-151" d="M375.15,363.17c1-2.13,3-2.69,5-3.14,0,.33,0,.67,0,1Z"/><path class="cls-131" d="M340.16,383c2.39-2.77,5.66-3.95,9-5-2.41,2.89-6,4.06-9,6Z"/><path class="cls-139" d="M298.18,408.14c0-3.42,3.39-2.4,5.22-4.49.07,2.39-1.86,2.32-2.24,3.42Z"/><path class="cls-155" d="M362.19,359c2,.43,3.93,1.09,5.05,3l-1.11,0-4-2Z"/><path class="cls-90" d="M249.16,415c0-.3,0-.59,0-.88.39-3.72,4.1-3.57,6.24-5.17,1.82-1.36,3.26-2.46,2.76-4.91v0a18.59,18.59,0,0,0,10,0c-2.59,1.63-5,3.59-7.82,4.81-4.18,1.82-2.67,3.35-.16,5.13.34.24.45.47.33.7s-.23.35-.35.35C256.51,412.26,252.84,412.38,249.16,415Z"/><path class="cls-188" d="M260.17,415.07c0-.35,0-.7,0-1.05,2,.44,3.91,1.05,5,3v1Z"/><path class="cls-18" d="M366.15,347.17l-1,.9c-7.92,0-13.3-5.3-19.64-8.83,1.29-2.19,3.94-2,4.63-4.13,2.7-.73,5.32-1.57,7-4,4-.41,6.92,2,10.06,3.75,1.59.88,3,2.08,4.91,2.25h.69a4.77,4.77,0,0,1,3.56,3,1.87,1.87,0,0,1-.21,1.29c-1.09,1.12-2.61,1.6-3.82,2.54C370.5,345.35,367.86,345.36,366.15,347.17Z"/><path class="cls-18" d="M258.17,404.07c2.47,1.78,3.28,3.16-.34,4.79-3.06,1.38-5.78,3.5-8.66,5.29-4.47,1.89-7-2.95-10.94-3.1-1.12-1.95-3-2.61-5-3-4.61-2.81,0-4,1-5.9,2.68-.75,5.32-1.57,7-4,4.93-2.41,7.88,2,11.64,3.49C254.64,402.3,256.07,403.92,258.17,404.07Z"/><path class="cls-153" d="M388.15,327.15c0-.35,0-.71,0-1.06,5.83,2.4,10.78.55,15.53-3,1.49-1.12,3.34-2.42,5.48-1h0c-.52.59-.94,1.4-1.59,1.75-3.18,1.68-2.23,2.89.31,4.13,1.4.68,3.18,1.06,3.28,3.14l-.56.42c-.16,0-.39.15-.48.08-6.67-4.89-12.19-1-17.79,2.32a3.26,3.26,0,0,1-1.89.43,1.62,1.62,0,0,1-.81-1.05C390.7,330.87,388.05,329.34,388.15,327.15Z"/><path class="cls-189" d="M419.18,336.06l-1,1c-2.51-1.78-6-2.42-7-6l0,0c3.42-.22,5.61,2.09,8,3.94q.54.34.36.69T419.18,336.06Z"/><path class="cls-190" d="M419.18,336.06v-1c2.13.37,4-.59,6-1.05a3.06,3.06,0,0,1-3,2.12Z"/><path class="cls-18" d="M395.18,309.1c2.71-.71,5.32-1.58,7.05-4,4.88-3,9.54-3,13.94,1,2.69-.37,4,2,6,3h0c.91.79,2.58.45,3,2-3.54,4.32-8.67,6.19-13.42,8.63-1.39.72-2.45-.26-3.54-1a7.38,7.38,0,0,0-5-1.64,3.68,3.68,0,0,1-1.84-.75c-1.39-1.08-3.05-1.83-4.12-3.31C397.05,311.43,393.77,311.48,395.18,309.1Z"/><path class="cls-18" d="M402.28,316.1c.3.32.59.64.88,1,1.62,2.13,4.68,2.54,6,5-3.4.47-6.11,2.48-8.66,4.41-4.41,3.34-8.35,3.11-12.35-.4-3.18-2-6.71-3.43-9.48-6.09,1.14-1.95,3.79-1.8,4.5-3.89,1.78-.74,3.82-1.14,5.27-2.29,3.13-2.48,5.87-2.07,8.71.24C399.27,313.75,400.63,315.3,402.28,316.1Z"/><path class="cls-70" d="M425.14,311.09l-3-2,5,1A2.12,2.12,0,0,1,425.14,311.09Z"/><path class="cls-18" d="M392.17,339.08c2.48,1.58,4.88,3.3,7.46,4.71,3.33,1.82,2.69,3.15-.21,4.65-2.63,1.36-5.22,2.8-7.73,4.37a5.22,5.22,0,0,1-6,.09c-1.68-1-3.41-2.07-5.54-1.83h0a39.3,39.3,0,0,0-6-3.88c-1.49-.8-3.3-1.92-1.38-4.07a26.29,26.29,0,0,0,3.42-2.06l0,0c6.46-5.62,10.62-6.34,15.65-2.71Z"/><path class="cls-18" d="M411.19,331.08c2.18,2.16,5.66,2.82,7,6-1.51,1-3.07,1.95-4.53,3-5.53,4.11-11,5.79-16.82.39a5.78,5.78,0,0,0-4.64-1.42h0a17.88,17.88,0,0,1-3.41-2.63c-1.74-1.86-.54-2.45,1.4-2.39,3.26-1.95,6.55-3.86,9.77-5.86a4.65,4.65,0,0,1,5.55.05C407.25,329.46,408.9,330.92,411.19,331.08Z"/><path class="cls-18" d="M388.15,327.15c.67,2,5.65,2.45,2,5.88-1.89,1.33-3.85,2.55-5.8,3.78-4.16,2.61-8.05,3.44-12.19.26l0,0c-1-3.55-5-3.24-7.12-5.41-1-1.07-3.26-1.32-1.87-3.6C371.26,321.33,379.58,320.9,388.15,327.15Z"/><path class="cls-63" d="M422.17,309.08c-2.39-.23-3.83-2.34-6-3l0-1.07C418.76,305.53,420.92,306.64,422.17,309.08Z"/><path class="cls-70" d="M402.28,316.1c-2,0-3.42-1.31-5.11-2l0-1.05C399.25,313.44,401.15,314.13,402.28,316.1Z"/><path class="cls-79" d="M373.22,343.1c-1.37,2.44.61,3.16,2.13,4,1.86,1,3.89,1.82,4.83,4a61.14,61.14,0,0,1-6.56-3.33,7.36,7.36,0,0,0-7.47-.58c1.2-2.55,4-2.77,6-4.1A.63.63,0,0,1,373.22,343.1Z"/><path class="cls-61" d="M372.16,337.07c7.2,4,12.13-2.06,18-4,0,.34,0,.68,0,1-.82.6-2.32.95-.53,2.29a20,20,0,0,1,2.54,2.73c-6-4.63-10.76.71-16,2C375.5,339.08,373.33,338.58,372.16,337.07Z"/><path class="cls-61" d="M373.22,343.1l-1.07,0a5.68,5.68,0,0,1,4-2A3,3,0,0,1,373.22,343.1Z"/></g></g></svg>