<svg xmlns="http://www.w3.org/2000/svg" width="144.494" height="35.716" viewBox="0 0 144.494 35.716"><defs><style>.a{fill:#707174;}.b{fill:#f07a25;}.c{fill:#0c8d48;}.d{fill:#f8f8f8;}</style></defs><g transform="translate(0 0)"><path class="a" d="M42.692,39.234a2.482,2.482,0,0,1,1.172,3.391c-.694,2.258-1.268,4.554-1.893,6.834A4.159,4.159,0,0,1,37.1,53.209q-14.385,0-28.769.022c-.761,0-1.03-.069-.791-.919q3.7-13.126,7.326-26.271a1.034,1.034,0,0,1,1.179-.909c9.875.025,19.751.017,29.626.032A1.988,1.988,0,0,1,47.9,27.909c-.744,2.923-1.559,5.829-2.406,8.725A4.183,4.183,0,0,1,42.692,39.234ZM29.455,30.657c-3.061,0-6.122.024-9.183-.016a1.173,1.173,0,0,0-1.4,1.117,31.681,31.681,0,0,1-1,3.527c-.254.79-.215,1.2.805,1.195,6.163-.033,12.326,0,18.488-.026a3.661,3.661,0,0,0,3.648-3.016,1.99,1.99,0,0,0-2.177-2.777C35.577,30.652,32.516,30.659,29.455,30.657ZM24.8,47.762h9.048a3.727,3.727,0,0,0,3.379-1.835c1.246-2.021.4-3.985-1.732-3.993-6.154-.024-12.309,0-18.463-.022a1.067,1.067,0,0,0-1.229.888c-.322,1.262-.614,2.539-1.048,3.764-.388,1.1.061,1.221,1,1.209,3.016-.039,6.032-.015,9.048-.011Z" transform="translate(-5.512 -25.116)"/><path class="a" d="M69.053,40.113c-.94.835-1.883,1.649-2.8,2.492q-5.265,4.846-10.507,9.716c-.584.545-.88.634-1.337-.167-2.583-4.534-5.22-9.038-7.842-13.55a2.666,2.666,0,0,0-.286-.329,3.357,3.357,0,0,0-.707,1.752q-1.648,5.888-3.216,11.8A1.243,1.243,0,0,1,40.879,53c-1.176-.091-2.365-.031-3.548-.016-.546.007-.846-.072-.656-.76q3.691-13.319,7.349-26.647a1.183,1.183,0,0,1,.211-.265,4.647,4.647,0,0,1,1.128,1.531q4.977,8.279,9.929,16.574c.742,1.239.722,1.213,1.836.262Q66.1,36.022,75.1,28.388c1.2-1.023,2.4-2.048,3.716-3.168a2.743,2.743,0,0,1-.292,1.735c-2.273,8.338-4.584,16.665-6.846,25.005A1.129,1.129,0,0,1,70.349,53a31.709,31.709,0,0,0-3.426,0c-.98.055-1.056-.306-.817-1.146,1.036-3.646,2.015-7.308,3.015-10.964a.673.673,0,0,0-.067-.773Z" transform="translate(48.992 -24.93)"/><path class="a" d="M41.623,36.448c3.224,0,6.449-.062,9.67.032a1.531,1.531,0,0,0,1.738-1.418c.755-2.876,1.565-5.739,2.274-8.627a1.367,1.367,0,0,1,1.667-1.283,23.082,23.082,0,0,0,3.18,0c.857-.044,1.054.205.814,1.057-1.217,4.316-2.38,8.648-3.561,12.974-1.137,4.166-2.3,8.326-3.393,12.5a1.607,1.607,0,0,1-1.987,1.524,17.6,17.6,0,0,0-3.056-.012c-.82.037-.956-.232-.732-1,.877-3.014,1.675-6.05,2.542-9.067.254-.883.138-1.239-.9-1.232q-9.854.059-19.709,0a1.349,1.349,0,0,0-1.556,1.257c-.761,3.043-1.663,6.052-2.457,9.087a1.069,1.069,0,0,1-1.275.955,29.068,29.068,0,0,0-3.426,0c-1.193.082-1-.536-.792-1.277Q22.6,44.911,24.508,37.89c1.075-3.932,2.156-7.862,3.21-11.8a1,1,0,0,1,1.159-.937c1.221.061,2.449.052,3.671,0,.85-.036.942.279.734,1.018-.873,3.1-1.67,6.218-2.565,9.31-.238.823-.035.984.746.978C34.849,36.433,38.236,36.448,41.623,36.448Z" transform="translate(18.883 -25.119)"/><path class="a" d="M43.706,25.21h1.223c1.623,0,1.633,0,1.219,1.5q-3.408,12.362-6.828,24.72c-.512,1.846-.534,1.84-2.428,1.842-.9,0-1.8-.027-2.69.009-.806.033-.964-.234-.745-1.017q3.247-11.59,6.434-23.2a19.587,19.587,0,0,0,.654-2.476A1.4,1.4,0,0,1,42.362,25.2a10.157,10.157,0,0,0,1.344.01Z" transform="translate(42.918 -25.088)"/><path class="b" d="M56.555,47.225l-6,5.582-.2-.155c.688-2.545,1.367-5.093,2.066-7.635q2.608-9.478,5.235-18.95a.867.867,0,0,1,.434-.814c.415-.071.411.41.555.675.889,1.645,1.565,3.4,2.6,4.966a69.463,69.463,0,0,0,3.38,7.034,1.4,1.4,0,0,1-.415,1.965C61.633,42.3,59.1,44.775,56.555,47.225Z" transform="translate(74.673 -24.883)"/><path class="c" d="M53.293,47.457c2.55-2.45,5.078-4.923,7.664-7.334a1.4,1.4,0,0,0,.415-1.965,69.457,69.457,0,0,1-3.38-7.034l1.786-6c.74,1.433,1.356,2.6,1.952,3.786,1.5,2.983,2.963,5.988,4.51,8.948a1.734,1.734,0,0,1-.489,2.471c-4.25,3.93-8.407,7.96-12.6,11.95a2.225,2.225,0,0,1-1.044.757,37.818,37.818,0,0,0,1.19-5.575Z" transform="translate(77.935 -25.115)"/><path class="a" d="M36.1,36.324a.533.533,0,0,1-.565-.167C35.781,36.019,35.993,36,36.1,36.324Z" transform="translate(46.97 -4.666)"/><path class="d" d="M22.755,27.076c3.061,0,6.122-.006,9.183,0a1.99,1.99,0,0,1,2.177,2.777,3.661,3.661,0,0,1-3.648,3.016c-6.163.023-12.326-.007-18.488.026-1.021.005-1.059-.4-.805-1.195a31.681,31.681,0,0,0,1-3.527,1.173,1.173,0,0,1,1.4-1.117C16.632,27.1,19.694,27.075,22.755,27.076Z" transform="translate(1.189 -21.534)"/><path class="d" d="M20.137,36.83c-3.016,0-6.032-.026-9.048.013-.936.012-1.384-.112-1-1.209.434-1.225.725-2.5,1.048-3.764a1.067,1.067,0,0,1,1.229-.888c6.154.022,12.309,0,18.463.022,2.136.008,2.978,1.972,1.732,3.993a3.727,3.727,0,0,1-3.379,1.835Z" transform="translate(-0.844 -14.186)"/><path class="a" d="M7.984,36.144a.174.174,0,0,1,.154-.121H9.583a.893.893,0,0,1,.992,1.16,1.754,1.754,0,0,1-.981.995.806.806,0,0,1,.524,1.023A1.81,1.81,0,0,1,8.4,40.411H6.868a.088.088,0,0,1-.084-.12Zm.555,3.527a.809.809,0,0,0,.734-.572.44.44,0,0,0-.488-.544H8.1l-.322,1.115h.762Zm.437-1.8a.771.771,0,0,0,.7-.566.376.376,0,0,0-.387-.532H8.617l-.319,1.1h.678Z" transform="translate(-6.778 -4.76)"/><path class="a" d="M9.926,36.136a.181.181,0,0,1,.154-.12h.588a.085.085,0,0,1,.081.12l-.479,1.659h2.057l.479-1.659a.175.175,0,0,1,.157-.12h.58a.087.087,0,0,1,.081.12l-1.2,4.147a.174.174,0,0,1-.151.12h-.58a.088.088,0,0,1-.087-.12l.5-1.729H10.052l-.5,1.729a.168.168,0,0,1-.151.12H8.811a.09.09,0,0,1-.084-.121Z" transform="translate(-3.145 -4.752)"/><path class="a" d="M10.825,40.279l3.18-4.214a.158.158,0,0,1,.126-.07H14.2a.074.074,0,0,1,.084.07l.723,4.214a.153.153,0,0,1-.157.165H14.3a.126.126,0,0,1-.146-.126l-.115-.678H12.153l-.5.678a.268.268,0,0,1-.219.126h-.549C10.792,40.444,10.763,40.363,10.825,40.279Zm3.11-1.331L13.7,37.566h-.02l-1.014,1.381h1.266Z" transform="translate(0.724 -4.793)"/><path class="a" d="M14.249,36.138a.168.168,0,0,1,.154-.12h1.8a.989.989,0,0,1,.986,1.348,2.043,2.043,0,0,1-1.3,1.266l.406,1.589a.162.162,0,0,1-.163.185h-.661a.079.079,0,0,1-.084-.056l-.359-1.661h-.7l-.462,1.6a.177.177,0,0,1-.154.12h-.577a.087.087,0,0,1-.087-.12Zm1.306,1.88a.928.928,0,0,0,.813-.639.453.453,0,0,0-.451-.608H14.891l-.361,1.247Z" transform="translate(4.927 -4.754)"/><path class="a" d="M14.919,40.279l3.18-4.214a.158.158,0,0,1,.126-.07h.067a.074.074,0,0,1,.084.07l.723,4.214a.153.153,0,0,1-.157.165H18.4a.126.126,0,0,1-.146-.126l-.115-.678H16.247l-.5.678a.268.268,0,0,1-.219.126h-.549C14.885,40.444,14.857,40.363,14.919,40.279Zm3.11-1.331L17.8,37.566h-.02l-1.014,1.381h1.266Z" transform="translate(8.376 -4.793)"/><path class="a" d="M18.3,36.769H17.34a.086.086,0,0,1-.084-.12l.146-.513a.175.175,0,0,1,.157-.121h2.754a.088.088,0,0,1,.087.121l-.148.513a.175.175,0,0,1-.157.12H19.13l-1.017,3.513a.174.174,0,0,1-.154.12h-.586a.09.09,0,0,1-.087-.12Z" transform="translate(12.791 -4.752)"/><path class="a" d="M21.026,36.136a.174.174,0,0,1,.154-.121h.586a.089.089,0,0,1,.084.121l-1.2,4.147a.177.177,0,0,1-.154.121h-.586a.089.089,0,0,1-.087-.12Z" transform="translate(17.594 -4.752)"/><path class="a" d="M22.323,36.106a.167.167,0,0,1,.154-.112h.157l1.818,2.768h.006l.748-2.586a.175.175,0,0,1,.157-.121h.58a.087.087,0,0,1,.081.12L24.805,40.39a.167.167,0,0,1-.151.115H24.5L22.7,37.63H22.7l-.782,2.693a.171.171,0,0,1-.154.12h-.572a.089.089,0,0,1-.087-.12Z" transform="translate(19.982 -4.792)"/><path class="a" d="M24.63,36.769h-.964a.086.086,0,0,1-.084-.12l.146-.513a.175.175,0,0,1,.157-.121h2.754a.088.088,0,0,1,.087.121l-.148.513a.175.175,0,0,1-.157.12h-.964l-1.017,3.513a.174.174,0,0,1-.154.12H23.7a.09.09,0,0,1-.087-.12Z" transform="translate(24.615 -4.752)"/><path class="a" d="M26.275,36.136a.174.174,0,0,1,.154-.121H29a.088.088,0,0,1,.087.121l-.148.513a.175.175,0,0,1-.157.121H26.91l-.3,1.025h1.558a.092.092,0,0,1,.087.12l-.151.521a.169.169,0,0,1-.154.118H26.395l-.319,1.1h1.866a.087.087,0,0,1,.087.118l-.149.513a.171.171,0,0,1-.154.121H25.159a.088.088,0,0,1-.084-.121Z" transform="translate(27.408 -4.752)"/><path class="a" d="M28.154,36.138a.174.174,0,0,1,.154-.121h1.8a.987.987,0,0,1,.983,1.348,2.047,2.047,0,0,1-1.3,1.266l.4,1.589a.16.16,0,0,1-.16.185h-.664a.085.085,0,0,1-.087-.056l-.356-1.661h-.7l-.462,1.6a.174.174,0,0,1-.151.121h-.583a.088.088,0,0,1-.084-.121Zm1.311,1.88a.924.924,0,0,0,.807-.639.451.451,0,0,0-.448-.608H28.8l-.361,1.247h1.031Z" transform="translate(30.92 -4.754)"/><path class="a" d="M30.2,36.136a.174.174,0,0,1,.154-.121h2.566a.088.088,0,0,1,.087.121l-.148.513a.175.175,0,0,1-.157.121H30.84L30.5,37.946h1.558a.089.089,0,0,1,.084.121l-.148.513a.177.177,0,0,1-.154.121H30.283l-.459,1.583a.174.174,0,0,1-.151.12h-.583a.088.088,0,0,1-.084-.121Z" transform="translate(34.753 -4.752)"/><path class="a" d="M30.6,40.279l3.18-4.214a.158.158,0,0,1,.126-.07h.067a.074.074,0,0,1,.084.07l.723,4.214a.153.153,0,0,1-.157.165h-.547a.126.126,0,0,1-.146-.126l-.115-.678H31.926l-.5.678a.268.268,0,0,1-.219.126h-.549C30.565,40.444,30.537,40.363,30.6,40.279Zm3.11-1.331-.233-1.381h-.02l-1.014,1.381h1.266Z" transform="translate(37.681 -4.793)"/><path class="a" d="M35.91,36a1.609,1.609,0,0,1,1.359.583.126.126,0,0,1-.045.176l-.5.392a.105.105,0,0,1-.163,0,1.116,1.116,0,0,0-.863-.37,2.047,2.047,0,0,0-1.827,1.463,1.032,1.032,0,0,0,.992,1.446,1.969,1.969,0,0,0,1.067-.356.118.118,0,0,1,.16,0l.274.4a.131.131,0,0,1-.056.168,2.841,2.841,0,0,1-1.709.608,1.635,1.635,0,0,1-1.622-2.25A3.249,3.249,0,0,1,35.91,36Z" transform="translate(41.969 -4.795)"/><path class="a" d="M36.1,36.136a.174.174,0,0,1,.154-.121h2.566a.088.088,0,0,1,.087.121l-.149.513a.175.175,0,0,1-.157.121H36.735l-.3,1.025H38a.092.092,0,0,1,.087.12l-.151.521a.169.169,0,0,1-.154.118H36.219l-.319,1.1h1.866a.087.087,0,0,1,.087.118l-.148.513a.171.171,0,0,1-.154.121H34.984a.088.088,0,0,1-.084-.121Z" transform="translate(45.77 -4.752)"/><path class="a" d="M39.054,36.136a.174.174,0,0,1,.154-.121h2.566a.088.088,0,0,1,.087.121l-.149.513a.175.175,0,0,1-.157.121H39.69l-.339,1.177h1.558a.089.089,0,0,1,.084.121l-.149.513a.177.177,0,0,1-.154.121H39.132l-.459,1.583a.174.174,0,0,1-.151.12h-.583a.088.088,0,0,1-.084-.121Z" transform="translate(51.293 -4.752)"/><path class="a" d="M42.773,36a1.641,1.641,0,0,1,1.617,2.261,3.234,3.234,0,0,1-2.922,2.25,1.629,1.629,0,0,1-1.611-2.25A3.235,3.235,0,0,1,42.773,36Zm-1.07,3.7a2.089,2.089,0,0,0,1.866-1.437,1.057,1.057,0,0,0-1.031-1.446,2.087,2.087,0,0,0-1.86,1.446A1.047,1.047,0,0,0,41.7,39.695Z" transform="translate(54.814 -4.794)"/><path class="a" d="M43.228,36.138a.168.168,0,0,1,.154-.12h1.8a.989.989,0,0,1,.986,1.348,2.043,2.043,0,0,1-1.3,1.266l.406,1.589a.162.162,0,0,1-.163.185h-.661a.079.079,0,0,1-.084-.056l-.359-1.661h-.7l-.462,1.6a.177.177,0,0,1-.154.121h-.577a.087.087,0,0,1-.087-.12Zm1.306,1.88a.928.928,0,0,0,.812-.639.453.453,0,0,0-.451-.608H43.869l-.361,1.247h1.025Z" transform="translate(59.088 -4.754)"/><path class="a" d="M47.028,36.09a.147.147,0,0,1,.143-.1h.1a.08.08,0,0,1,.087.062l.53,2.959h.022l2.239-2.959A.158.158,0,0,1,50.275,36h.1a.075.075,0,0,1,.087.1L49.989,40.3a.151.151,0,0,1-.157.146h-.572a.1.1,0,0,1-.1-.1l.317-2.373h-.02l-1.816,2.463a.152.152,0,0,1-.129.067h-.112a.083.083,0,0,1-.09-.067l-.4-2.463H46.9l-1.056,2.373a.174.174,0,0,1-.14.1h-.566c-.081,0-.118-.056-.078-.146Z" transform="translate(64.739 -4.793)"/><path class="a" d="M50.749,36a1.64,1.64,0,0,1,1.614,2.261,3.234,3.234,0,0,1-2.922,2.25,1.629,1.629,0,0,1-1.611-2.25A3.238,3.238,0,0,1,50.749,36Zm-1.073,3.7a2.089,2.089,0,0,0,1.869-1.437,1.057,1.057,0,0,0-1.034-1.446,2.084,2.084,0,0,0-1.86,1.446,1.046,1.046,0,0,0,1.025,1.438Z" transform="translate(69.716 -4.794)"/><path class="a" d="M51.219,36.106a.167.167,0,0,1,.154-.112h.157l1.818,2.768h.006l.748-2.586a.175.175,0,0,1,.157-.121h.58a.087.087,0,0,1,.081.121L53.7,40.39a.167.167,0,0,1-.151.115H53.4L51.6,37.63h-.006l-.782,2.693a.171.171,0,0,1-.154.12h-.572a.089.089,0,0,1-.087-.12Z" transform="translate(73.99 -4.792)"/><path class="a" d="M53.485,36.136a.168.168,0,0,1,.154-.12H56.2a.086.086,0,0,1,.084.12l-.146.513a.175.175,0,0,1-.157.121H54.119l-.3,1.025h1.558a.089.089,0,0,1,.087.12l-.151.521a.167.167,0,0,1-.154.118H53.6l-.319,1.1H55.15a.086.086,0,0,1,.087.118l-.149.513a.168.168,0,0,1-.154.121H52.371a.087.087,0,0,1-.087-.12Z" transform="translate(78.26 -4.752)"/><path class="a" d="M55.2,38.291,54.365,36.2a.156.156,0,0,1,.154-.182h.644a.09.09,0,0,1,.084.056l.591,1.443,1.426-1.443a.2.2,0,0,1,.118-.056h.647c.1,0,.12.1.048.182l-2.057,2.087-.58,2a.181.181,0,0,1-.154.12h-.58a.088.088,0,0,1-.087-.121Z" transform="translate(82.158 -4.752)"/></g></svg>