<svg xmlns="http://www.w3.org/2000/svg" xmlns:xlink="http://www.w3.org/1999/xlink" width="82.125" height="82.125" viewBox="0 0 82.125 82.125"><defs><style>.a{fill:#fff;}.b{fill:#6e7bf2;}.c{fill:#4285f4;}.d{fill:#34a853;}.e{fill:#fbbc05;}.f{fill:#eb4335;}.g{filter:url(#a);}</style><filter id="a" x="0" y="0" width="82.125" height="82.125" filterUnits="userSpaceOnUse"><feOffset dx="-1" input="SourceAlpha"/><feGaussianBlur stdDeviation="2" result="b"/><feFlood flood-opacity="0.161"/><feComposite operator="in" in2="b"/><feComposite in="SourceGraphic"/></filter></defs><g transform="translate(7 6)"><g class="g" transform="matrix(1, 0, 0, 1, -7, -6)"><path class="a" d="M35.063,0A35.063,35.063,0,1,1,0,35.063,35.063,35.063,0,0,1,35.063,0Z" transform="translate(7 6)"/></g><path class="b" d="M507.745,80.366A34.9,34.9,0,0,1,489.3,75.129L512.786,10.6a35.063,35.063,0,0,1-5.043,69.766Z" transform="translate(-472.683 -10.24)"/><path class="c" d="M447.55,977.955a7.433,7.433,0,0,0-.18-1.755H439.3v3.189h4.738a4.2,4.2,0,0,1-1.755,2.789l-.017.105,2.55,1.977.177.017a8.4,8.4,0,0,0,2.557-6.32" transform="translate(-424.38 -943.046)"/><path class="d" d="M220.975,1079.1a8.2,8.2,0,0,0,5.692-2.082l-2.71-2.1a5.078,5.078,0,0,1-2.978.859,5.18,5.18,0,0,1-4.891-3.573l-.1.01-2.652,2.051-.034.1a8.567,8.567,0,0,0,7.675,4.741" transform="translate(-206.056 -1035.785)"/><path class="e" d="M190,913a5.265,5.265,0,0,1-.285-1.7,5.582,5.582,0,0,1,.279-1.7l0-.112L187.3,907.4l-.088.04a8.575,8.575,0,0,0,0,7.716L190,913" transform="translate(-179.973 -876.583)"/><path class="f" d="M220.783,772.608a4.742,4.742,0,0,1,3.322,1.282l2.426-2.367a8.264,8.264,0,0,0-5.75-2.234,8.585,8.585,0,0,0-7.679,4.738l2.778,2.159a5.2,5.2,0,0,1,4.9-3.573" transform="translate(-205.863 -743.159)"/><path class="a" d="M1023.7,789.152V795.4h-2V779.969h5.294a4.808,4.808,0,0,1,3.43,1.335,4.441,4.441,0,0,1,.255,6.276q-.122.135-.255.254a4.8,4.8,0,0,1-3.43,1.314l-3.3,0Zm0-7.285v5.386h3.345a2.685,2.685,0,0,0,2.044-4.5l-.02-.02a.712.712,0,0,0-.051-.051,2.61,2.61,0,0,0-1.973-.819Zm12.755,2.632a4.963,4.963,0,0,1,3.495,1.175,4.15,4.15,0,0,1,1.282,3.22V795.4h-1.908v-1.467h-.085a3.821,3.821,0,0,1-3.3,1.81,4.289,4.289,0,0,1-2.938-1.036,3.3,3.3,0,0,1-1.182-2.585,3.128,3.128,0,0,1,1.247-2.6,5.293,5.293,0,0,1,3.332-.968,5.951,5.951,0,0,1,2.928.645v-.455a2.244,2.244,0,0,0-.825-1.755,2.835,2.835,0,0,0-1.925-.72,3.069,3.069,0,0,0-2.646,1.4l-1.754-1.1a4.876,4.876,0,0,1,4.286-2.069Zm-2.585,7.669a1.585,1.585,0,0,0,.659,1.294,2.444,2.444,0,0,0,1.552.516,3.179,3.179,0,0,0,2.245-.928,2.888,2.888,0,0,0,.991-2.177,4.1,4.1,0,0,0-2.605-.742,3.384,3.384,0,0,0-2.024.581,1.759,1.759,0,0,0-.815,1.454Zm18.32-7.322-6.664,15.205h-2.062l2.473-5.322-4.387-9.89h2.17l3.172,7.584h.044l3.08-7.584Z" transform="translate(-987 -753.478)"/></g></svg>