<svg xmlns="http://www.w3.org/2000/svg" xmlns:xlink="http://www.w3.org/1999/xlink" width="1211.797" height="356.57" viewBox="0 0 1211.797 356.57">
  <defs>
    <style>
      .cls-1 {
        fill: url(#linear-gradient);
      }

      .cls-2 {
        fill: #fff;
      }
    </style>
    <linearGradient id="linear-gradient" x1="-1.11" y1="1.006" x2="0.302" y2="0.47" gradientUnits="objectBoundingBox">
      <stop offset="0" stop-color="#3ecf8e" stop-opacity="0"/>
      <stop offset="1" stop-color="#3ecf8e"/>
    </linearGradient>
  </defs>
  <g id="Layer_2" data-name="Layer 2" transform="translate(0.002)">
    <g id="Layer_2-2" data-name="Layer 2">
      <path id="Path_1858" data-name="Path 1858" class="cls-1" d="M8.78,0H41.67a8.71,8.71,0,0,1,8.71,8.71v5.23c0,50.69,0,85,.07,135.66,0,14.22,2.74,27.29,17.16,38.68l.34-35.5c.47-47.41,31.81-85.19,78.63-94.87,44.36-9.16,90.38,15.16,108.55,57.37,26.83,62.32-19.28,134-87.25,135.46-13.23.29-26.49.56-39.71,0-8.56-.34-10.95,2.84-10.85,11.15.4,33.28.18,49.49.14,82.77,0,1.21,0,2.42-.11,3.66a8.7,8.7,0,0,1-8.7,8.25h-32a8.71,8.71,0,0,1-8.71-8.71v-4.07c0-34.43-.19-51.76.15-86.18.08-7.32-1.82-11.43-8.88-14.74C19.17,224.14-.24,192.3,0,148.07.27,97.76.07,63.85.07,13.54V8.71A8.71,8.71,0,0,1,8.78,0ZM148.17,200.09h17c25.08-.3,44.59-18,46.48-42.1,2.06-26.23-14.76-47.66-40.51-51.59-23.24-3.56-46.37,11.93-51.8,35.8-2,8.69-1.78,18-1.84,27C117.32,199.91,117.44,199.91,148.17,200.09Z"/>
      <path id="Path_1928" data-name="Path 1928" class="cls-2" d="M35.444-18.824H74.45V0H11.7V-118.374H35.444ZM131.263,1.526a49.487,49.487,0,0,1-24.421-6.02A43.352,43.352,0,0,1,89.8-21.538q-6.19-11.023-6.19-25.438t6.36-25.439A44.194,44.194,0,0,1,107.35-89.459a50.451,50.451,0,0,1,24.591-6.02,50.451,50.451,0,0,1,24.591,6.02,44.194,44.194,0,0,1,17.383,17.044q6.36,11.023,6.36,25.439t-6.529,25.438A45.214,45.214,0,0,1,156.108-4.494,51.287,51.287,0,0,1,131.263,1.526Zm0-20.69A24.7,24.7,0,0,0,143.388-22.3a22.8,22.8,0,0,0,9.073-9.412,31.719,31.719,0,0,0,3.392-15.263q0-13.4-7.038-20.605A23.136,23.136,0,0,0,131.6-74.789a22.591,22.591,0,0,0-17.044,7.208q-6.868,7.208-6.868,20.605t6.7,20.605A22.056,22.056,0,0,0,131.263-19.164Zm90.222-60.2a33.38,33.38,0,0,1,11.956-11.7,33.252,33.252,0,0,1,16.874-4.24v24.93H244.04q-11.193,0-16.874,5.257t-5.681,18.316V0H197.742V-93.953h23.743ZM353.6-49.012a56.032,56.032,0,0,1-.678,9.158H284.233q.848,10.175,7.123,15.941a21.963,21.963,0,0,0,15.433,5.766q13.228,0,18.824-11.363h25.608a42.8,42.8,0,0,1-15.6,22.3Q324.086,1.526,307.3,1.526a49.01,49.01,0,0,1-24.336-6.02,42.375,42.375,0,0,1-16.789-17.044q-6.02-11.023-6.02-25.438,0-14.585,5.936-25.608a41.416,41.416,0,0,1,16.62-16.959A49.789,49.789,0,0,1,307.3-95.479a49.4,49.4,0,0,1,24,5.766,40.581,40.581,0,0,1,16.45,16.365A49.525,49.525,0,0,1,353.6-49.012ZM329-55.8q-.17-9.158-6.614-14.67a23.432,23.432,0,0,0-15.772-5.512,21.551,21.551,0,0,0-14.839,5.342q-6.02,5.342-7.377,14.839ZM422.957-95.31q16.789,0,27.134,10.6t10.345,29.593V0H436.694V-51.895q0-11.193-5.6-17.213t-15.263-6.02q-9.836,0-15.517,6.02t-5.681,17.213V0H370.893V-93.953h23.743v11.7a32.8,32.8,0,0,1,12.126-9.582A37.51,37.51,0,0,1,422.957-95.31Zm147.374,46.3a56.028,56.028,0,0,1-.678,9.158H500.969q.848,10.175,7.123,15.941a21.963,21.963,0,0,0,15.433,5.766q13.228,0,18.825-11.363h25.608a42.8,42.8,0,0,1-15.6,22.3q-11.532,8.734-28.322,8.734A49.01,49.01,0,0,1,499.7-4.494a42.375,42.375,0,0,1-16.789-17.044q-6.02-11.023-6.02-25.438,0-14.585,5.936-25.608a41.416,41.416,0,0,1,16.62-16.959,49.789,49.789,0,0,1,24.591-5.936,49.4,49.4,0,0,1,24,5.766,40.581,40.581,0,0,1,16.45,16.365A49.525,49.525,0,0,1,570.331-49.012ZM545.741-55.8q-.17-9.158-6.614-14.67a23.432,23.432,0,0,0-15.772-5.512,21.551,21.551,0,0,0-14.839,5.342q-6.02,5.342-7.377,14.839Zm128.21-25.947a36.864,36.864,0,0,1-4.494,17.807,33.009,33.009,0,0,1-14.076,13.4Q645.8-45.45,631.214-45.45H611.372V0H587.629V-118.374h43.585q13.737,0,23.4,4.749a33.079,33.079,0,0,1,14.5,13.058A36.746,36.746,0,0,1,673.951-81.742ZM630.2-64.614q9.836,0,14.585-4.494t4.749-12.634q0-17.3-19.333-17.3H611.372v34.427Zm54.438,17.3a54.378,54.378,0,0,1,5.681-25.269,41.641,41.641,0,0,1,15.433-16.959,41.087,41.087,0,0,1,21.792-5.936,38.281,38.281,0,0,1,18.4,4.24,37.338,37.338,0,0,1,12.634,10.684v-13.4h23.912V0H758.576V-13.737A35.316,35.316,0,0,1,745.942-2.8a38.657,38.657,0,0,1-18.57,4.325,39.927,39.927,0,0,1-21.623-6.105,42.728,42.728,0,0,1-15.433-17.213Q684.635-32.9,684.635-47.316Zm73.941.339a30.454,30.454,0,0,0-3.392-14.839,23.914,23.914,0,0,0-9.158-9.5,24.476,24.476,0,0,0-12.38-3.307,24.046,24.046,0,0,0-12.21,3.222,24.264,24.264,0,0,0-9.073,9.412,29.484,29.484,0,0,0-3.477,14.67,30.456,30.456,0,0,0,3.477,14.839,25.03,25.03,0,0,0,9.158,9.751,23.264,23.264,0,0,0,12.126,3.392,24.476,24.476,0,0,0,12.38-3.307,23.914,23.914,0,0,0,9.158-9.5A30.454,30.454,0,0,0,758.576-46.976ZM895.6-93.953,837.435,44.433H812.166L832.517-2.374,794.868-93.953h26.626l24.251,65.631,24.591-65.631Z" transform="translate(316.19 247.9)"/>
    </g>
  </g>
</svg>
