<svg xmlns="http://www.w3.org/2000/svg" xmlns:xlink="http://www.w3.org/1999/xlink" viewBox="0 0 262.89 356.6"><defs><style>.cls-1{fill:url(#linear-gradient);}</style><linearGradient id="linear-gradient" x1="-291.76" y1="358.57" x2="79.39" y2="167.67" gradientUnits="userSpaceOnUse"><stop offset="0" stop-color="#3ecf8e" stop-opacity="0"/><stop offset="1" stop-color="#3ecf8e"/></linearGradient></defs><title>logoFinal</title><g id="Layer_2" data-name="Layer 2"><g id="Layer_2-2" data-name="Layer 2"><path class="cls-1" d="M8.78,0H41.67a8.71,8.71,0,0,1,8.71,8.71v5.23c0,50.69,0,85,.07,135.66,0,14.22,2.74,27.29,17.16,38.68l.34-35.5c.47-47.41,31.81-85.19,78.63-94.87,44.36-9.16,90.38,15.16,108.55,57.37,26.83,62.32-19.28,134-87.25,135.46-13.23.29-26.49.56-39.71,0-8.56-.34-10.95,2.84-10.85,11.15.4,33.28.18,49.49.14,82.77,0,1.21,0,2.42-.11,3.66a8.7,8.7,0,0,1-8.7,8.25h-32a8.71,8.71,0,0,1-8.71-8.71v-4.07c0-34.43-.19-51.76.15-86.18.08-7.32-1.82-11.43-8.88-14.74C19.17,224.14-.24,192.3,0,148.07.27,97.76.07,63.85.07,13.54V8.71A8.71,8.71,0,0,1,8.78,0ZM148.17,200.09c5.67,0,11.35,0,17,0,25.08-.3,44.59-18,46.48-42.1,2.06-26.23-14.76-47.66-40.51-51.59-23.24-3.56-46.37,11.93-51.8,35.8-2,8.69-1.78,18-1.84,27C117.32,199.91,117.44,199.91,148.17,200.09Z"/></g></g></svg>