<svg xmlns="http://www.w3.org/2000/svg" xmlns:xlink="http://www.w3.org/1999/xlink" width="753" height="163" viewBox="0 0 753 163"><defs><style>.a{fill:#fff;}.b{opacity:0.92;}.c{fill:#151948;}.d{fill:none;}.e{fill:#2fabf7;}.f{fill:#228fe0;}.g{fill:#0571c1;}.h{fill:#3c58bf;}.i{fill:#293688;}.j{fill:#ffbc00;}.k{fill:#f7981d;}.l{fill:#ed7c00;}.m{fill:#051244;}.n{fill:#ff5f00;}.o{fill:#eb001b;}.p{fill:#f79e1b;}.q{fill:#3d3d3c;}.r{fill:#70706e;}.s{fill:#098041;}.t{fill:#e97626;}.u{filter:url(#a);}</style><filter id="a" x="0" y="0" width="753" height="163" filterUnits="userSpaceOnUse"><feOffset input="SourceAlpha"/><feGaussianBlur stdDeviation="11" result="b"/><feFlood flood-color="#3ecf8e" flood-opacity="0.471"/><feComposite operator="in" in2="b"/><feComposite in="SourceGraphic"/></filter></defs><g transform="translate(-123 -605)"><g class="u" transform="matrix(1, 0, 0, 1, 123, 605)"><rect class="a" width="687" height="97" rx="14" transform="translate(33 33)"/></g><g class="b" transform="translate(-170 -179)"><path class="c" d="M-31.389,0h-1.82L-37.33-6.227V0h-1.82V-9.087h1.82l4.121,6.24v-6.24h1.82ZM-22.9-3.757a4.3,4.3,0,0,1-.052.7h-5.265a1.791,1.791,0,0,0,.546,1.222,1.684,1.684,0,0,0,1.183.442,1.486,1.486,0,0,0,1.443-.871h1.963a3.281,3.281,0,0,1-1.2,1.71,3.492,3.492,0,0,1-2.171.67,3.757,3.757,0,0,1-1.865-.462A3.248,3.248,0,0,1-29.6-1.651a4,4,0,0,1-.461-1.95,4.078,4.078,0,0,1,.455-1.963,3.175,3.175,0,0,1,1.274-1.3,3.817,3.817,0,0,1,1.885-.455,3.786,3.786,0,0,1,1.84.442,3.111,3.111,0,0,1,1.261,1.255A3.8,3.8,0,0,1-22.9-3.757Zm-1.885-.52A1.443,1.443,0,0,0-25.292-5.4,1.8,1.8,0,0,0-26.5-5.824a1.652,1.652,0,0,0-1.138.41A1.8,1.8,0,0,0-28.2-4.277Zm5.33-1.43v3.484a.689.689,0,0,0,.175.526.862.862,0,0,0,.592.162h.845V0h-1.144a2.006,2.006,0,0,1-2.3-2.236V-5.707h-.858V-7.2h.858V-8.983h1.833V-7.2h1.612v1.495ZM-8.288-4.654a2.039,2.039,0,0,1,1.261.767,2.24,2.24,0,0,1,.494,1.43A2.3,2.3,0,0,1-6.89-1.177a2.381,2.381,0,0,1-1.034.865A3.786,3.786,0,0,1-9.523,0h-3.913V-9.074h3.744a3.883,3.883,0,0,1,1.592.3,2.268,2.268,0,0,1,1.014.832A2.178,2.178,0,0,1-6.74-6.734a2.068,2.068,0,0,1-.423,1.326A2.26,2.26,0,0,1-8.288-4.654Zm-3.328-.676h1.664a1.523,1.523,0,0,0,1-.293A1.03,1.03,0,0,0-8.6-6.461a1.049,1.049,0,0,0-.351-.845,1.5,1.5,0,0,0-1-.3h-1.664Zm1.833,3.848a1.557,1.557,0,0,0,1.033-.312,1.092,1.092,0,0,0,.371-.884,1.138,1.138,0,0,0-.39-.917,1.573,1.573,0,0,0-1.053-.331h-1.794v2.444Zm4.238-2.145a4.168,4.168,0,0,1,.436-1.937,3.192,3.192,0,0,1,1.183-1.3,3.15,3.15,0,0,1,1.671-.455,2.934,2.934,0,0,1,1.41.325,2.862,2.862,0,0,1,.969.819V-7.2H1.957V0H.124V-1.053a2.707,2.707,0,0,1-.969.838A2.963,2.963,0,0,1-2.268.117,3.061,3.061,0,0,1-3.926-.351a3.275,3.275,0,0,1-1.183-1.32A4.238,4.238,0,0,1-5.544-3.627ZM.124-3.6a2.334,2.334,0,0,0-.26-1.138,1.833,1.833,0,0,0-.7-.728,1.876,1.876,0,0,0-.949-.253,1.843,1.843,0,0,0-.936.247,1.86,1.86,0,0,0-.7.722,2.26,2.26,0,0,0-.266,1.125A2.335,2.335,0,0,0-3.419-2.49a1.919,1.919,0,0,0,.7.747,1.783,1.783,0,0,0,.93.26,1.876,1.876,0,0,0,.949-.253,1.833,1.833,0,0,0,.7-.728A2.334,2.334,0,0,0,.124-3.6Zm7.6-3.705a2.776,2.776,0,0,1,2.08.813A3.111,3.111,0,0,1,10.6-4.225V0H8.781V-3.978A1.867,1.867,0,0,0,8.352-5.3a1.519,1.519,0,0,0-1.17-.461,1.557,1.557,0,0,0-1.19.461,1.85,1.85,0,0,0-.436,1.32V0H3.737V-7.2h1.82v.9a2.514,2.514,0,0,1,.93-.734A2.875,2.875,0,0,1,7.728-7.306ZM16.595,0,14.151-3.068V0h-1.82V-9.62h1.82v5.473L16.569-7.2h2.366L15.763-3.588,18.961,0Zm4.251-8.06a1.109,1.109,0,0,1-.8-.306,1.011,1.011,0,0,1-.319-.76,1.011,1.011,0,0,1,.319-.76,1.109,1.109,0,0,1,.8-.306,1.109,1.109,0,0,1,.8.306,1.011,1.011,0,0,1,.319.76,1.011,1.011,0,0,1-.319.76A1.109,1.109,0,0,1,20.846-8.06Zm.9.858V0h-1.82V-7.2Zm5.785-.1a2.776,2.776,0,0,1,2.08.813A3.111,3.111,0,0,1,30.4-4.225V0H28.58V-3.978a1.867,1.867,0,0,0-.429-1.32,1.519,1.519,0,0,0-1.17-.461,1.557,1.557,0,0,0-1.19.461,1.85,1.85,0,0,0-.436,1.32V0h-1.82V-7.2h1.82v.9a2.514,2.514,0,0,1,.93-.734A2.875,2.875,0,0,1,27.528-7.306Zm7.423-.013A3.023,3.023,0,0,1,36.368-7a2.609,2.609,0,0,1,.962.826V-7.2h1.833V.052a3.864,3.864,0,0,1-.4,1.788A2.992,2.992,0,0,1,37.55,3.088a3.865,3.865,0,0,1-1.95.461,4.165,4.165,0,0,1-2.515-.715A2.65,2.65,0,0,1,31.973.884H33.78a1.345,1.345,0,0,0,.618.786,2.151,2.151,0,0,0,1.151.293,1.78,1.78,0,0,0,1.287-.474A1.906,1.906,0,0,0,37.329.052V-1.066a2.765,2.765,0,0,1-.968.845A2.889,2.889,0,0,1,34.95.117a3.093,3.093,0,0,1-1.664-.468,3.259,3.259,0,0,1-1.19-1.32,4.238,4.238,0,0,1-.435-1.957A4.168,4.168,0,0,1,32.1-5.564a3.192,3.192,0,0,1,1.183-1.3A3.15,3.15,0,0,1,34.95-7.319ZM37.329-3.6a2.334,2.334,0,0,0-.26-1.138,1.833,1.833,0,0,0-.7-.728,1.876,1.876,0,0,0-.949-.253,1.843,1.843,0,0,0-.936.247,1.86,1.86,0,0,0-.7.722,2.26,2.26,0,0,0-.266,1.125,2.335,2.335,0,0,0,.266,1.138,1.919,1.919,0,0,0,.7.747,1.783,1.783,0,0,0,.93.26,1.876,1.876,0,0,0,.949-.253,1.833,1.833,0,0,0,.7-.728A2.334,2.334,0,0,0,37.329-3.6Z" transform="translate(413 887)"/><g transform="translate(396 839)"><path class="d" d="M0,0H34.756V34.756H0Z"/><path class="c" d="M6.9,15.034V25.171h4.345V15.034Zm8.689,0V25.171H19.93V15.034ZM4,32.412H31.515V28.067H4ZM24.274,15.034V25.171h4.345V15.034ZM17.758,2,4,9.241v2.9H31.515v-2.9Z" transform="translate(-1.104 -0.552)"/></g></g><g class="b" transform="translate(693.5 647.9)"><path class="e" d="M5.9,28.234H9.462L7.681,23.7Z" transform="translate(3.344 1.61)"/><path class="f" d="M34.934,24.162a3.157,3.157,0,0,0-1.3-.162H30.4v2.591h3.238a3.156,3.156,0,0,0,1.3-.162,1.261,1.261,0,0,0,.486-1.133A.9.9,0,0,0,34.934,24.162Z" transform="translate(18.514 1.796)"/><path class="g" d="M88.1,21.1v1.943L87.126,21.1h-7.61v1.943L78.545,21.1H68.182a9.858,9.858,0,0,0-4.534.972V21.1H56.362v.972a4.669,4.669,0,0,0-3.076-.972H27.216l-1.781,4.048L23.654,21.1H15.4v1.943L14.425,21.1H7.462L4.224,28.71.5,37.13H8.758l.972-2.591H12l.972,2.591h9.391V35.187l.81,1.943h4.7l.81-1.943V37.13H51.18V32.92H51.5c.324,0,.324,0,.324.486v3.562H63.486V36a9.7,9.7,0,0,0,4.372.972h4.858l.972-2.591h2.267l.972,2.591h9.391V34.539l1.457,2.429h7.61V21.1H88.1ZM33.369,34.7H30.617V25.8L26.731,34.7H24.3L20.416,25.8V34.7H14.911l-1.133-2.429H8.272L7.3,34.863H4.224l4.858-11.5H13.13l4.534,10.849V23.367h4.372L25.6,31.139l3.238-7.772h4.534ZM44.38,25.8H38.065v2.1h6.153v2.267H38.065v2.267H44.38v2.429H35.312v-11.5H44.38Zm12.144,4.7a4.051,4.051,0,0,1,.486,2.1v2.267H54.257V33.406a3.857,3.857,0,0,0-.486-2.267c-.486-.486-.972-.486-1.943-.486H48.914v4.21H46.161v-11.5h6.153a6.207,6.207,0,0,1,3.238.486,2.759,2.759,0,0,1,1.3,2.591A3.224,3.224,0,0,1,54.9,29.52,3.079,3.079,0,0,1,56.524,30.491Zm4.858,4.21H58.629V23.2h2.753Zm31.9,0H89.393l-5.181-8.582V34.7H78.706l-.971-2.429H72.068L71.1,34.863H68.02a5.654,5.654,0,0,1-3.886-1.3A5.691,5.691,0,0,1,62.677,29.2a6.637,6.637,0,0,1,1.457-4.534c.81-.972,2.267-1.3,4.048-1.3h2.591V25.8H68.182a2.986,2.986,0,0,0-2.1.648,3.8,3.8,0,0,0-.81,2.591,3.522,3.522,0,0,0,.81,2.753,2.581,2.581,0,0,0,1.943.648h1.133l3.724-8.905h4.048l4.534,10.849V23.529h4.048l4.7,7.934V23.529h2.753V34.7Z" transform="translate(0)"/><path class="f" d="M45.3,28.234h3.724L47.243,23.7Z" transform="translate(27.739 1.61)"/><path class="f" d="M29.91,44.429V35.2L25.7,39.734Z" transform="translate(15.603 8.73)"/><path class="e" d="M17.6,35.9V38h5.991v2.267H17.6V42.7h6.639l3.076-3.4L24.4,35.9Z" transform="translate(10.588 9.164)"/><path class="f" d="M33.4,35.9H30v2.915h3.562c.972,0,1.619-.486,1.619-1.457A1.633,1.633,0,0,0,33.4,35.9Z" transform="translate(18.266 9.164)"/><path class="g" d="M93.092,40.386V33.1h-6.8a5.313,5.313,0,0,0-3.4.972V33.1H75.443a5.138,5.138,0,0,0-3.238.972V33.1H59.089v.972a6.259,6.259,0,0,0-3.562-.972H46.784v.972c-.81-.81-2.753-.972-3.724-.972H33.344l-2.267,2.429-2.1-2.429H14.4V48.968H28.649l2.267-2.429,2.1,2.429h8.744V45.244H42.9a9.85,9.85,0,0,0,3.724-.486V49.13h7.286V44.92h.324c.486,0,.486,0,.486.486V49.13H76.738a6.348,6.348,0,0,0,3.724-.972v.972h6.962a7.272,7.272,0,0,0,3.886-.81h0A5.512,5.512,0,0,0,93.9,43.463,6.2,6.2,0,0,0,93.092,40.386ZM42.9,42.977H39.659v3.886H34.478l-3.238-3.724-3.4,3.724H17.153v-11.5H28l3.238,3.724,3.4-3.724h8.582c2.1,0,4.534.648,4.534,3.724C47.593,42.329,45.326,42.977,42.9,42.977Zm16.192-.648a3.674,3.674,0,0,1,.486,2.1V46.7H56.823V45.244a3.615,3.615,0,0,0-.486-2.267c-.324-.486-.972-.486-1.943-.486H51.479V46.7H48.727V35.2H54.88a6.519,6.519,0,0,1,3.238.486,2.864,2.864,0,0,1,1.457,2.591,3.224,3.224,0,0,1-1.943,3.076A2.769,2.769,0,0,1,59.089,42.329Zm11.172-4.7H63.947v2.1H70.1v2.267H63.947v2.267h6.315V46.7H61.194V35.2h9.067Zm6.8,9.067H71.881V44.272h5.181a1.366,1.366,0,0,0,1.133-.324,1.174,1.174,0,0,0,0-1.619,1.369,1.369,0,0,0-.972-.324c-2.591-.162-5.667,0-5.667-3.562,0-1.619.972-3.4,3.886-3.4h5.343V37.8H75.767a2.4,2.4,0,0,0-1.133.162c-.324.162-.324.486-.324.81,0,.486.324.648.648.81a2.054,2.054,0,0,0,.971.162h1.457a4.122,4.122,0,0,1,3.076.972,3.352,3.352,0,0,1,.81,2.429C81.272,45.568,79.815,46.7,77.062,46.7Zm13.925-1.133a4.722,4.722,0,0,1-3.4,1.133H82.406V44.272h5.181a1.366,1.366,0,0,0,1.133-.324,1.174,1.174,0,0,0,0-1.619,1.369,1.369,0,0,0-.972-.324c-2.591-.162-5.667,0-5.667-3.562,0-1.619.972-3.4,3.886-3.4h5.343V37.8H86.454a2.4,2.4,0,0,0-1.133.162c-.324.162-.324.486-.324.81,0,.486.162.648.648.81a2.054,2.054,0,0,0,.972.162h1.457a4.122,4.122,0,0,1,3.076.972.159.159,0,0,1,.162.162,3.718,3.718,0,0,1,.648,2.267A3.3,3.3,0,0,1,90.987,45.568Z" transform="translate(8.607 7.43)"/><path class="f" d="M41.934,36.162a3.157,3.157,0,0,0-1.3-.162H37.4v2.591h3.238a3.157,3.157,0,0,0,1.3-.162,1.261,1.261,0,0,0,.486-1.133A.9.9,0,0,0,41.934,36.162Z" transform="translate(22.848 9.226)"/><g transform="translate(41.303 25.31)"><path class="f" d="M34.934,24.162a3.157,3.157,0,0,0-1.3-.162H30.4v2.591h3.238a3.156,3.156,0,0,0,1.3-.162,1.261,1.261,0,0,0,.486-1.133A.9.9,0,0,0,34.934,24.162Z" transform="translate(-22.79 -23.514)"/><path class="f" d="M45.3,28.234h3.724L47.243,23.7Z" transform="translate(-13.564 -23.7)"/><g transform="translate(0 18.621)"><path class="f" d="M29.91,44.429V35.2L25.7,39.734Z" transform="translate(-25.7 -35.2)"/><path class="f" d="M33.4,35.9H30v2.915h3.562c.972,0,1.619-.486,1.619-1.457A1.633,1.633,0,0,0,33.4,35.9Zm13.115.324a3.157,3.157,0,0,0-1.3-.162H41.982v2.591H45.22a3.157,3.157,0,0,0,1.3-.162A1.261,1.261,0,0,0,47,37.357.9.9,0,0,0,46.516,36.224Z" transform="translate(-23.038 -34.767)"/></g></g><g transform="translate(23.007 40.53)"><path class="e" d="M41.926,46.377l-2.267-2.429V46.7H34.316l-3.238-3.724L27.515,46.7H16.829V35.367H27.677l3.4,3.724L32.7,37.148,28.649,33.1H14.4V48.968H28.649l2.429-2.429,2.1,2.429h8.744Z" transform="translate(-14.4 -33.1)"/></g><g transform="translate(0.5 21.1)"><path class="e" d="M33.693,36.968l-2.1-2.267h-.972V33.73L28.188,31.3l-1.619,3.4H24.3L20.416,25.8V34.7H14.911l-1.133-2.429H8.272L7.139,34.7H4.224L9.082,23.367H13.13l4.534,10.849V23.367h2.429L17.825,21.1H15.4v1.943l-.81-1.943H7.462L4.224,28.71.5,36.968H8.92l.972-2.429h2.267l1.133,2.429h9.067V35.025l.81,1.943h4.7l.81-1.943v1.943Z" transform="translate(-0.5 -21.1)"/><path class="e" d="M17.391,27.291,14.8,24.7l1.943,4.21Z" transform="translate(8.354 -18.871)"/></g><g transform="translate(35.798 40.044)"><path class="f" d="M86.42,48.344a5.923,5.923,0,0,0,2.591-4.372l-2.267-2.267a4.79,4.79,0,0,1,.324,1.619,3.3,3.3,0,0,1-.972,2.429,4.722,4.722,0,0,1-3.4,1.133H77.514V44.458H82.7a1.366,1.366,0,0,0,1.133-.324,1.174,1.174,0,0,0,0-1.619,1.369,1.369,0,0,0-.972-.324c-2.591-.162-5.667,0-5.667-3.562,0-1.619.972-3.076,3.4-3.4l-1.781-1.781c-.324.162-.486.324-.648.324V32.8H70.714a5.138,5.138,0,0,0-3.238.972V32.8H54.2v.972a6.259,6.259,0,0,0-3.562-.972H41.892v.972c-.81-.81-2.753-.972-3.724-.972H28.453l-2.267,2.429-2.1-2.429H22.3l4.858,4.858,2.429-2.591h8.582c2.1,0,4.534.648,4.534,3.724,0,3.238-2.267,3.886-4.7,3.886H34.768v2.429L37.2,47.535V45.106h.81a9.85,9.85,0,0,0,3.724-.486v4.372h7.286v-4.21h.324c.486,0,.486,0,.486.486v3.724H71.847a6.348,6.348,0,0,0,3.724-.972v.972h6.962a6.424,6.424,0,0,0,3.886-.648ZM54.2,42.515a3.674,3.674,0,0,1,.486,2.1v2.267H51.931V45.43a3.615,3.615,0,0,0-.486-2.267c-.324-.486-.972-.486-1.943-.486H46.588v4.21H43.835v-11.5h6.153a6.519,6.519,0,0,1,3.238.486,2.864,2.864,0,0,1,1.457,2.591,3.224,3.224,0,0,1-1.943,3.076A2.769,2.769,0,0,1,54.2,42.515Zm11.172-4.7H59.055v2.1h6.153v2.267H59.055v2.267H65.37v2.429H56.3v-11.5H65.37Zm6.8,9.067H66.989V44.458h5.181a1.366,1.366,0,0,0,1.133-.324,1.174,1.174,0,0,0,0-1.619,1.369,1.369,0,0,0-.972-.324c-2.591-.162-5.667,0-5.667-3.562,0-1.619.972-3.4,3.886-3.4h5.343v2.753H70.875a2.4,2.4,0,0,0-1.133.162c-.324.162-.324.486-.324.81,0,.486.324.648.648.81a2.054,2.054,0,0,0,.972.162h1.457a4.122,4.122,0,0,1,3.076.972,3.352,3.352,0,0,1,.81,2.429C76.381,45.753,74.923,46.887,72.171,46.887Z" transform="translate(-22.3 -32.8)"/><path class="f" d="M57.9,36.972c0,.486.162.648.648.81a2.054,2.054,0,0,0,.972.162h1.457a4.7,4.7,0,0,1,2.267.486L60.815,36H59.357a2.4,2.4,0,0,0-1.133.162A1.237,1.237,0,0,0,57.9,36.972Z" transform="translate(-0.257 -30.819)"/></g><g transform="translate(16.53 21.262)"><path class="f" d="M54.4,30.6l.324.486h.162Z" transform="translate(16.844 -15.38)"/><path class="f" d="M48.9,25.1l2.753,6.639V27.853Z" transform="translate(13.438 -18.785)"/><path class="f" d="M45.05,32.858h.324c.324,0,.324,0,.324.486v3.562H57.356v-.972a9.7,9.7,0,0,0,4.372.972h4.858l.972-2.591h2.267l.972,2.591h9.391V35.287L77.92,33.02V34.8H72.415l-.81-2.591H65.938L64.966,34.8H61.89A5.654,5.654,0,0,1,58,33.506a5.691,5.691,0,0,1-1.457-4.372A6.637,6.637,0,0,1,58,24.6c.81-.972,2.267-1.3,4.048-1.3h2.591v2.429H62.052a2.986,2.986,0,0,0-2.1.648,3.8,3.8,0,0,0-.81,2.591,3.522,3.522,0,0,0,.81,2.753,2.581,2.581,0,0,0,1.943.648h1.133l3.724-8.905h1.619L66.1,21.2H61.89a9.858,9.858,0,0,0-4.534.972V21.2H50.232v.972a4.668,4.668,0,0,0-3.076-.972H21.087l-1.781,4.048L17.524,21.2H10.4l2.267,2.267h3.238l2.753,5.991.972.972L22.544,23.3h4.534V34.8H24.325V25.9l-2.753,6.477,4.7,4.7H44.889ZM52.5,23.3h2.753V34.8H52.5ZM38.25,25.734H31.935v2.1h6.153v2.267H31.935v2.267H38.25V34.8H29.182V23.3H38.25Zm4.534,8.905H40.031v-11.5h6.153a6.207,6.207,0,0,1,3.238.486,2.759,2.759,0,0,1,1.3,2.591A3.224,3.224,0,0,1,48.775,29.3a2.12,2.12,0,0,1,1.3.972,4.051,4.051,0,0,1,.486,2.1v2.267H47.8V33.182a3.857,3.857,0,0,0-.486-2.267c-.162-.324-.648-.324-1.619-.324H42.784v4.048Z" transform="translate(-10.4 -21.2)"/></g></g><g transform="translate(314.5 651.397)"><path class="h" d="M23.6,46.942,27.856,23h6.651L30.384,46.942Z" transform="translate(7.626 0.198)"/><path class="i" d="M23.6,46.942,29.053,23h5.453L30.384,46.942Z" transform="translate(7.626 0.198)"/><path class="h" d="M51.851,23.464A16.871,16.871,0,0,0,45.732,22.4c-6.651,0-11.439,3.325-11.439,8.114,0,3.591,3.325,5.453,5.985,6.651s3.458,2,3.458,3.059c0,1.6-2.128,2.394-3.99,2.394a14.457,14.457,0,0,1-6.385-1.33l-.931-.4L31.5,46.342a21.567,21.567,0,0,0,7.582,1.33c7.05,0,11.7-3.325,11.7-8.38,0-2.793-1.729-4.921-5.719-6.651-2.394-1.2-3.857-1.862-3.857-3.059,0-1.064,1.2-2.128,3.857-2.128a12.2,12.2,0,0,1,5.054.931l.665.266,1.064-5.187Z" transform="translate(10.233)"/><path class="i" d="M51.851,23.464A16.871,16.871,0,0,0,45.732,22.4c-6.651,0-10.242,3.325-10.242,8.114,0,3.591,2.128,5.453,4.788,6.651s3.458,2,3.458,3.059c0,1.6-2.128,2.394-3.99,2.394a14.457,14.457,0,0,1-6.385-1.33l-.931-.4L31.5,46.342a21.567,21.567,0,0,0,7.582,1.33c7.05,0,11.7-3.325,11.7-8.38,0-2.793-1.729-4.921-5.719-6.651-2.394-1.2-3.857-1.862-3.857-3.059,0-1.064,1.2-2.128,3.857-2.128a12.2,12.2,0,0,1,5.054.931l.665.266,1.064-5.187Z" transform="translate(10.233)"/><path class="h" d="M58.734,23c-1.6,0-2.793.133-3.458,1.729L45.3,46.942h7.183l1.33-3.99h8.513l.8,3.99h6.385L63.922,23ZM55.675,38.961c.4-1.2,2.66-7.05,2.66-7.05s.532-1.463.931-2.394l.4,2.261s1.33,5.986,1.6,7.316H55.675Z" transform="translate(14.789 0.198)"/><path class="i" d="M60.33,23c-1.6,0-2.793.133-3.458,1.729L45.3,46.942h7.183l1.33-3.99h8.513l.8,3.99h6.385L63.922,23ZM55.675,38.961c.532-1.33,2.66-7.05,2.66-7.05s.532-1.463.931-2.394l.4,2.261s1.33,5.986,1.6,7.316H55.675Z" transform="translate(14.789 0.198)"/><path class="h" d="M16.876,39.726l-.665-3.458c-1.2-3.99-5.054-8.38-9.311-10.508l5.985,21.282h7.183L30.842,23.1H23.659Z" transform="translate(2.113 0.231)"/><path class="i" d="M16.876,39.726l-.665-3.458c-1.2-3.99-5.054-8.38-9.311-10.508l5.985,21.282h7.183L30.842,23.1H24.99Z" transform="translate(2.113 0.231)"/><path class="j" d="M.5,23l1.2.266c8.513,2,14.365,7.05,16.626,13.035L15.929,25c-.4-1.6-1.6-2-3.059-2Z" transform="translate(0 0.198)"/><path class="k" d="M.5,23h0c8.513,2,15.562,7.183,17.823,13.168l-2.261-9.444A3.247,3.247,0,0,0,12.87,24.2Z" transform="translate(0 0.198)"/><path class="l" d="M.5,23h0c8.513,2,15.562,7.183,17.823,13.168l-1.6-5.187c-.4-1.6-.931-3.192-2.793-3.857Z" transform="translate(0 0.198)"/><g transform="translate(9.146 25.858)"><path class="m" d="M23.493,38.3l-4.522-4.522-2.128,5.054-.532-3.325C15.114,31.518,11.256,27.128,7,25l5.986,21.282h7.183Z" transform="translate(-7 -25)"/></g><g transform="translate(31.226 41.288)"><path class="m" d="M30.384,42.452,24.664,36.6,23.6,42.452Z" transform="translate(-23.6 -36.6)"/></g><g transform="translate(41.733 38.893)"><path class="m" d="M43.072,34.8h0c.532.532.8.931.665,1.463,0,1.6-2.128,2.394-3.99,2.394a14.457,14.457,0,0,1-6.385-1.33l-.931-.4L31.5,42.382a21.567,21.567,0,0,0,7.582,1.33c4.256,0,7.715-1.2,9.71-3.325Z" transform="translate(-31.5 -34.8)"/></g><g transform="translate(61.02 29.716)"><path class="m" d="M46,45.324h6.252l1.33-3.99h8.513l.8,3.99h6.385l-2.261-9.71L59.035,27.9l.4,2.128s1.33,5.985,1.6,7.316H55.444c.532-1.33,2.66-7.05,2.66-7.05s.532-1.463.931-2.394" transform="translate(-46 -27.9)"/></g></g><g transform="translate(1 -3)"><g class="b" transform="translate(-60 -177)"><path class="c" d="M-27.514-9.074V0h-1.82V-5.9L-31.765,0h-1.378l-2.444-5.9V0h-1.82V-9.074h2.067l2.886,6.747,2.886-6.747Zm1.326,5.447a4.168,4.168,0,0,1,.435-1.937,3.192,3.192,0,0,1,1.183-1.3,3.15,3.15,0,0,1,1.67-.455,2.934,2.934,0,0,1,1.41.325,2.862,2.862,0,0,1,.969.819V-7.2h1.833V0h-1.833V-1.053a2.707,2.707,0,0,1-.969.838,2.963,2.963,0,0,1-1.424.332A3.061,3.061,0,0,1-24.57-.351a3.275,3.275,0,0,1-1.183-1.32A4.238,4.238,0,0,1-26.188-3.627Zm5.668.026a2.334,2.334,0,0,0-.26-1.138,1.833,1.833,0,0,0-.7-.728,1.876,1.876,0,0,0-.949-.253,1.843,1.843,0,0,0-.936.247,1.86,1.86,0,0,0-.7.722,2.26,2.26,0,0,0-.267,1.125,2.335,2.335,0,0,0,.267,1.138,1.919,1.919,0,0,0,.7.747,1.783,1.783,0,0,0,.93.26,1.876,1.876,0,0,0,.949-.253,1.833,1.833,0,0,0,.7-.728A2.334,2.334,0,0,0-20.521-3.6Zm6.37,3.718A3.8,3.8,0,0,1-15.737-.2a2.8,2.8,0,0,1-1.112-.864A2.191,2.191,0,0,1-17.3-2.275h1.833a1,1,0,0,0,.41.689,1.424,1.424,0,0,0,.891.273,1.383,1.383,0,0,0,.813-.208.63.63,0,0,0,.292-.533.562.562,0,0,0-.357-.526,6.727,6.727,0,0,0-1.138-.384,9.64,9.64,0,0,1-1.319-.4A2.291,2.291,0,0,1-16.757-4a1.71,1.71,0,0,1-.37-1.157,1.867,1.867,0,0,1,.344-1.092,2.313,2.313,0,0,1,.988-.78,3.7,3.7,0,0,1,1.515-.286,3.092,3.092,0,0,1,2.054.643,2.384,2.384,0,0,1,.845,1.735h-1.742a.943.943,0,0,0-.358-.682,1.329,1.329,0,0,0-.851-.253,1.342,1.342,0,0,0-.76.182.58.58,0,0,0-.267.507A.6.6,0,0,0-15-4.635a5.652,5.652,0,0,0,1.131.384,9.6,9.6,0,0,1,1.287.4A2.274,2.274,0,0,1-11.7-3.2a1.767,1.767,0,0,1,.383,1.151,1.908,1.908,0,0,1-.344,1.118,2.269,2.269,0,0,1-.988.774A3.743,3.743,0,0,1-14.151.117ZM-7.7-5.707v3.484a.689.689,0,0,0,.176.526.862.862,0,0,0,.591.162h.845V0H-7.235a2.006,2.006,0,0,1-2.3-2.236V-5.707h-.858V-7.2h.858V-8.983H-7.7V-7.2h1.612v1.495Zm9.62,1.95a4.3,4.3,0,0,1-.052.7H-3.4a1.791,1.791,0,0,0,.546,1.222,1.684,1.684,0,0,0,1.183.442A1.486,1.486,0,0,0-.228-2.262H1.735a3.281,3.281,0,0,1-1.2,1.71,3.492,3.492,0,0,1-2.171.67A3.757,3.757,0,0,1-3.5-.345,3.248,3.248,0,0,1-4.784-1.651,4,4,0,0,1-5.246-3.6a4.078,4.078,0,0,1,.455-1.963,3.175,3.175,0,0,1,1.274-1.3,3.817,3.817,0,0,1,1.885-.455,3.786,3.786,0,0,1,1.839.442A3.111,3.111,0,0,1,1.469-5.623,3.8,3.8,0,0,1,1.917-3.757ZM.032-4.277A1.443,1.443,0,0,0-.475-5.4a1.8,1.8,0,0,0-1.209-.423,1.652,1.652,0,0,0-1.138.41,1.8,1.8,0,0,0-.566,1.137ZM5.063-6.084a2.559,2.559,0,0,1,.917-.9,2.549,2.549,0,0,1,1.293-.325V-5.4H6.792a1.844,1.844,0,0,0-1.293.4,1.858,1.858,0,0,0-.436,1.4V0H3.243V-7.2h1.82ZM8.027-3.6a4.04,4.04,0,0,1,.455-1.956,3.252,3.252,0,0,1,1.261-1.3,3.648,3.648,0,0,1,1.846-.461,3.549,3.549,0,0,1,2.217.67,3.257,3.257,0,0,1,1.177,1.878H13.019a1.436,1.436,0,0,0-.526-.734,1.529,1.529,0,0,0-.917-.266,1.5,1.5,0,0,0-1.235.565A2.5,2.5,0,0,0,9.886-3.6a2.48,2.48,0,0,0,.455,1.592,1.5,1.5,0,0,0,1.235.566,1.38,1.38,0,0,0,1.443-.988h1.963A3.322,3.322,0,0,1,13.8-.572a3.486,3.486,0,0,1-2.21.689A3.648,3.648,0,0,1,9.743-.345a3.252,3.252,0,0,1-1.261-1.3A4.04,4.04,0,0,1,8.027-3.6Zm7.826-.026a4.168,4.168,0,0,1,.436-1.937,3.192,3.192,0,0,1,1.183-1.3,3.15,3.15,0,0,1,1.67-.455,2.934,2.934,0,0,1,1.41.325,2.862,2.862,0,0,1,.969.819V-7.2h1.833V0H21.521V-1.053a2.707,2.707,0,0,1-.969.838,2.963,2.963,0,0,1-1.424.332,3.061,3.061,0,0,1-1.657-.468,3.275,3.275,0,0,1-1.183-1.32A4.238,4.238,0,0,1,15.853-3.627Zm5.668.026a2.334,2.334,0,0,0-.26-1.138,1.833,1.833,0,0,0-.7-.728,1.876,1.876,0,0,0-.949-.253,1.843,1.843,0,0,0-.936.247,1.86,1.86,0,0,0-.7.722,2.26,2.26,0,0,0-.267,1.125,2.335,2.335,0,0,0,.267,1.138,1.919,1.919,0,0,0,.7.747,1.783,1.783,0,0,0,.93.26,1.876,1.876,0,0,0,.949-.253,1.833,1.833,0,0,0,.7-.728A2.334,2.334,0,0,0,21.521-3.6Zm5.434-2.483a2.559,2.559,0,0,1,.917-.9,2.549,2.549,0,0,1,1.294-.325V-5.4h-.481a1.844,1.844,0,0,0-1.293.4,1.858,1.858,0,0,0-.436,1.4V0h-1.82V-7.2h1.82Zm2.964,2.457a4.168,4.168,0,0,1,.435-1.937,3.177,3.177,0,0,1,1.19-1.3,3.183,3.183,0,0,1,1.677-.455,3.059,3.059,0,0,1,1.339.306,2.677,2.677,0,0,1,1.014.813V-9.62H37.42V0H35.574V-1.066a2.466,2.466,0,0,1-.949.858,2.973,2.973,0,0,1-1.417.325,3.093,3.093,0,0,1-1.664-.468,3.259,3.259,0,0,1-1.19-1.32A4.238,4.238,0,0,1,29.919-3.627Zm5.668.026a2.334,2.334,0,0,0-.26-1.138,1.833,1.833,0,0,0-.7-.728,1.876,1.876,0,0,0-.949-.253,1.843,1.843,0,0,0-.936.247,1.86,1.86,0,0,0-.7.722,2.26,2.26,0,0,0-.267,1.125,2.335,2.335,0,0,0,.267,1.138,1.919,1.919,0,0,0,.7.747,1.783,1.783,0,0,0,.93.26,1.876,1.876,0,0,0,.949-.253,1.833,1.833,0,0,0,.7-.728A2.334,2.334,0,0,0,35.587-3.6Z" transform="translate(540 885)"/></g><g transform="translate(461.394 661.417)"><path class="n" d="M18.818,24.251H8.755V6.168H18.818Z" transform="translate(4.82 0.873)"/><path class="o" d="M14.213,16.083a11.48,11.48,0,0,1,4.393-9.041,11.5,11.5,0,1,0,0,18.082,11.483,11.483,0,0,1-4.391-9.041Z" transform="translate(0 0)"/><path class="p" d="M30.606,16.083A11.5,11.5,0,0,1,12,25.124,11.5,11.5,0,0,0,12,7.042a11.5,11.5,0,0,1,18.606,9.041Z" transform="translate(6.606 0)"/></g></g><g transform="translate(471.854 585.134)"><path class="q" d="M92.078,339.273h.681l-.637,2.647a1.123,1.123,0,0,0,.054.886.8.8,0,0,0,.724.292,1.288,1.288,0,0,0,.864-.292,1.662,1.662,0,0,0,.475-.886l.637-2.647h.691l-.648,2.712a2.3,2.3,0,0,1-.756,1.318,2.174,2.174,0,0,1-1.415.443,1.407,1.407,0,0,1-1.2-.432A1.573,1.573,0,0,1,91.43,342Zm3.393,4.354,1.08-4.527,2.053,2.658c.054.076.108.151.162.238s.108.184.173.292l.724-3.014h.637l-1.08,4.516-2.1-2.712-.162-.227a1.163,1.163,0,0,1-.13-.259l-.724,3.025h-.637Zm4.776,0,1.037-4.354h.691l-1.037,4.354Zm1.675,0,1.037-4.354h2.366l-.14.605h-1.675l-.259,1.08h1.675l-.151.616H103.1l-.486,2.042h-.691Zm3.133,0,1.037-4.354h.691l-1.037,4.354Zm1.675,0,1.037-4.354h2.366l-.14.605h-1.675l-.259,1.091h1.675l-.151.616h-1.675l-.335,1.4h1.675l-.151.637Zm3.166,0,1.037-4.354h.929a5.354,5.354,0,0,1,1.253.1,1.287,1.287,0,0,1,.573.313,1.375,1.375,0,0,1,.378.735,2.6,2.6,0,0,1-.054,1.026,3.377,3.377,0,0,1-.432,1.026,2.506,2.506,0,0,1-.735.735,2.113,2.113,0,0,1-.713.313,4.82,4.82,0,0,1-1.124.1h-1.113Zm.843-.648h.583a3.222,3.222,0,0,0,.735-.065,1.409,1.409,0,0,0,.465-.216,1.76,1.76,0,0,0,.486-.529,2.375,2.375,0,0,0,.292-.735,1.926,1.926,0,0,0,.054-.724,1,1,0,0,0-.238-.529.73.73,0,0,0-.378-.216,3.221,3.221,0,0,0-.767-.065h-.5Zm6.45-1.307-.465,1.956h-.648l1.037-4.354h1.048a3.151,3.151,0,0,1,.67.054.663.663,0,0,1,.335.173.72.72,0,0,1,.216.411,1.428,1.428,0,0,1-.022.562,1.808,1.808,0,0,1-.248.573,1.483,1.483,0,0,1-.411.411,1.443,1.443,0,0,1-.421.173,3.549,3.549,0,0,1-.691.054h-.4Zm.184-.583h.173a1.755,1.755,0,0,0,.8-.13.674.674,0,0,0,.3-.454.465.465,0,0,0-.086-.486,1.214,1.214,0,0,0-.713-.14h-.173Zm4.333,2.539-.216-1.124H119.8l-.756,1.124h-.724l3.133-4.527.972,4.527Zm-1.491-1.718h1.178l-.194-.994a1.329,1.329,0,0,1-.022-.216,2.17,2.17,0,0,1-.011-.27,7.123,7.123,0,0,1-.27.5Zm3.209,1.718.475-1.988-.864-2.355h.724l.54,1.48c.011.043.022.086.043.151s.032.13.054.194l.13-.194c.043-.065.086-.119.13-.173l1.264-1.459h.691l-2.02,2.345-.475,1.988h-.691Zm6.58-2.15c0-.032.011-.13.032-.281.011-.13.022-.227.032-.313-.043.1-.086.194-.14.3a2.376,2.376,0,0,1-.194.3l-1.664,2.323-.54-2.366c-.022-.1-.043-.194-.054-.281a2.274,2.274,0,0,1-.022-.27c-.022.086-.054.184-.086.292a2.415,2.415,0,0,1-.13.313l-.972,2.139h-.637l2.085-4.538.594,2.744a1.923,1.923,0,0,1,.032.216c.011.1.032.227.054.378.076-.13.173-.281.3-.475a.976.976,0,0,0,.076-.119l1.88-2.744-.065,4.538h-.637Zm1.145,2.15,1.037-4.354h2.366l-.14.605h-1.675l-.259,1.091h1.675l-.151.616h-1.675l-.335,1.4h1.675l-.151.637Zm3.155,0,1.08-4.527,2.053,2.658c.054.076.108.151.162.238s.108.184.173.292l.724-3.014h.637l-1.08,4.516-2.1-2.712-.162-.227a1.164,1.164,0,0,1-.13-.259l-.724,3.025H134.3Zm7.034-3.76-.9,3.749h-.691l.9-3.749h-1.124l.14-.605H142.6l-.14.605Zm.724,2.885.616-.259a.582.582,0,0,0,.184.443.758.758,0,0,0,.5.151.821.821,0,0,0,.529-.173.786.786,0,0,0,.292-.465q.1-.389-.454-.681a.691.691,0,0,0-.119-.065,2.081,2.081,0,0,1-.778-.637.927.927,0,0,1-.065-.691,1.5,1.5,0,0,1,.562-.864,1.63,1.63,0,0,1,1-.335,1.358,1.358,0,0,1,.746.184.716.716,0,0,1,.313.529l-.605.281a.651.651,0,0,0-.205-.3.525.525,0,0,0-.324-.1.78.78,0,0,0-.475.151.687.687,0,0,0-.259.4c-.065.259.119.508.54.735a.624.624,0,0,0,.076.043,1.756,1.756,0,0,1,.724.583.972.972,0,0,1,.065.713,1.717,1.717,0,0,1-.616.983,1.789,1.789,0,0,1-1.113.367,1.218,1.218,0,0,1-.832-.259A.847.847,0,0,1,142.06,342.752Zm5.089.875,1.037-4.354h.691l-1.037,4.354Zm1.686,0,1.08-4.527,2.053,2.658c.054.076.108.151.162.238s.108.184.173.292l.724-3.014h.637l-1.08,4.516-2.1-2.712-.162-.227a1.163,1.163,0,0,1-.13-.259l-.724,3.025h-.637Zm7.034-3.76-.9,3.749h-.691l.9-3.749h-1.124l.14-.605h2.939l-.14.605Zm.746,3.76,1.037-4.354h2.377l-.14.605h-1.675l-.259,1.091h1.675l-.151.616H157.8l-.335,1.4h1.675l-.151.637Zm4.268-1.956-.465,1.945h-.648l1.037-4.354h.962a3.021,3.021,0,0,1,.637.054.7.7,0,0,1,.357.184.744.744,0,0,1,.205.411,1.38,1.38,0,0,1-.022.551,1.591,1.591,0,0,1-.443.821,1.468,1.468,0,0,1-.81.357l.983,1.977H161.9l-.94-1.945Zm.173-.551h.13a1.548,1.548,0,0,0,.756-.13.7.7,0,0,0,.292-.465c.054-.238.032-.411-.076-.508a1.08,1.08,0,0,0-.681-.151h-.13Zm2.042,2.507,1.037-4.354H166.5l-.14.605h-1.675l-.259,1.08H166.1l-.151.616h-1.675l-.486,2.042H163.1Zm5.7,0-.216-1.124H166.9l-.756,1.124h-.724l3.133-4.527.972,4.527Zm-1.5-1.718h1.178l-.194-.994a1.329,1.329,0,0,1-.022-.216,2.17,2.17,0,0,1-.011-.27,7.123,7.123,0,0,1-.27.5Zm6.72-1.577a1.372,1.372,0,0,0-.529-.378,1.6,1.6,0,0,0-.659-.13,1.9,1.9,0,0,0-1.243.454,2.155,2.155,0,0,0-.724,1.189,1.412,1.412,0,0,0,.151,1.167,1.084,1.084,0,0,0,.962.454,2.025,2.025,0,0,0,.745-.14,3.081,3.081,0,0,0,.756-.411l-.194.8a2.389,2.389,0,0,1-.681.3,2.741,2.741,0,0,1-.735.1,2.164,2.164,0,0,1-.864-.162,1.509,1.509,0,0,1-.616-.486,1.542,1.542,0,0,1-.3-.735,2.192,2.192,0,0,1,.054-.908,2.987,2.987,0,0,1,.378-.9,2.849,2.849,0,0,1,.659-.735,2.761,2.761,0,0,1,.843-.486,2.7,2.7,0,0,1,.918-.162,2.062,2.062,0,0,1,.691.108,1.812,1.812,0,0,1,.573.335Zm.065,3.3,1.037-4.354h2.366l-.14.605h-1.675l-.259,1.091h1.675l-.151.616h-1.675l-.335,1.4H176.6l-.151.637Z" transform="translate(0 -226.378)"/><g transform="translate(93.744 85.3)"><path class="r" d="M181.283,109.1h-4.743l6.591-23.8h4.743Zm-2.463-23.057a1.744,1.744,0,0,0-1.523-.681H151.235l-1.286,4.668h23.705l-1.383,4.981H153.31V95h-4.743l-3.933,14.208h4.743l2.636-9.53H173.33A3.005,3.005,0,0,0,175.21,99a3.166,3.166,0,0,0,1.156-1.686L179,87.785A1.933,1.933,0,0,0,178.819,86.046Zm-36.952,21.566a2.185,2.185,0,0,1-2.1,1.6H115.321a1.709,1.709,0,0,1-1.491-.681,1.871,1.871,0,0,1-.205-1.686l5.964-21.479h4.743l-5.327,19.189h18.973L143.3,85.365h4.743Z" transform="translate(-113.518 -85.3)"/><g transform="translate(71.708 0.043)"><path class="s" d="M822.912,85.7l6,11.928L816.3,109.556Z" transform="translate(-812.075 -85.7)"/><path class="t" d="M783.823,85.7l6,11.928L777.2,109.556Z" transform="translate(-777.2 -85.7)"/></g></g></g></g></svg>