<svg xmlns="http://www.w3.org/2000/svg" width="114.891" height="37.042" viewBox="0 0 114.891 37.042"><defs><style>.a{fill:#02b9ef;}.b{fill:#06306f;}</style></defs><g transform="translate(0 0)"><path class="a" d="M204.027,234.655l.95-.76a7.009,7.009,0,0,1,10.36.832c.285.333.428.356.713.071.19-.214.4-.38.594-.594a7.192,7.192,0,0,1,12.309,5.109c.048,6.82.024,13.616.024,20.435a3.644,3.644,0,0,1-3.9,3.944c-.95,0-1.9-.071-2.851.024-.974.1-1.259-.214-1.259-1.236.048-6.653.024-13.307.024-19.96v-.832c-.024-1.545-.642-2.186-2.115-2.257a2.168,2.168,0,0,0-2.4,2.091c-.024.309,0,.642,0,.95V259.7a3.6,3.6,0,0,1-3.968,3.968c-1.283-.024-3.018.57-3.754-.261-.642-.713-.214-2.4-.214-3.659v-17.7c0-2.091-1.354-3.16-3.113-2.447a2.361,2.361,0,0,0-1.449,2.471c.024,5.513,0,11,0,16.515v1.307a3.63,3.63,0,0,1-3.826,3.778c-.95.024-1.9-.071-2.851.024-1.022.1-1.331-.19-1.307-1.283.048-9.338.024-18.677.024-28.039,0-.4.024-.784,0-1.188-.048-.523.166-.689.689-.689,2.186.024,4.348.024,6.535,0,.547,0,.808.143.76.737A9.86,9.86,0,0,0,204.027,234.655Z" transform="translate(-114.093 -226.831)"/><path class="b" d="M-42.735,249.035v9.742c-.024,4.23-2.234,6.416-6.463,6.439-1.853,0-3.731.024-5.584,0a6.445,6.445,0,0,1-6.7-6.3,76.36,76.36,0,0,1-.024-8.079,6.841,6.841,0,0,1,7.034-6.606c1.022-.024,2.067,0,3.089,0,1-.024,1.378-.594,1.354-1.545,0-.95-.428-1.378-1.378-1.331q-1.6.036-3.208,0c-2.614-.048-4.063-1.473-4.04-4.04,0-1.046-.475-2.447.214-3.065.594-.523,1.948-.19,2.97-.19,2.661-.024,5.3,0,7.96,0a4.553,4.553,0,0,1,4.776,4.776C-42.712,242.216-42.735,245.637-42.735,249.035Zm-7.271,5.394v-1.188c0-2.424,0-2.424-2.424-2.329a1.756,1.756,0,0,0-1.9,1.925c-.024,1-.024,1.972,0,2.97.024,1.711.784,2.162,3.255,2.234,1.83.048.9-1.236,1.069-1.948A12.948,12.948,0,0,0-50.007,254.429Z" transform="translate(82.295 -228.333)"/><path class="b" d="M46.389,246.767c0,3.636.048,7.295-.024,10.931-.048,2.8-.713,5.346-3.422,6.843a7.638,7.638,0,0,1-3.517.951c-2.733.048-5.465,0-8.2.048-.665,0-.808-.238-.784-.832.048-1-.024-1.972.024-2.97a3.465,3.465,0,0,1,3.4-3.422c1.236-.048,2.447-.024,3.683,0,1,0,1.545-.4,1.545-1.473,0-1.093-.523-1.473-1.521-1.5a19.338,19.338,0,0,1-4.966-.285,6.62,6.62,0,0,1-4.966-6.107c-.143-4.634-.048-9.267-.071-13.9,0-.523.166-.689.689-.665,1.948.024,3.873.048,5.822,0,.855-.024.737.451.737.974v10.455c0,1.521.713,2.329,2.044,2.376,1.568.048,2.257-.594,2.257-2.186,0-3.517.024-7.057-.024-10.574,0-.832.214-1.069,1.046-1.046,1.735.071,3.493.1,5.228,0,.95-.048,1.093.309,1.069,1.141C46.366,239.258,46.389,243.012,46.389,246.767Z" transform="translate(14.318 -228.654)"/><path class="b" d="M-148.522,251.927V240.284c0-3.8,2.329-6.178,6.154-6.131,2.495.024,4.99-.285,7.461.19a6.2,6.2,0,0,1,5.18,6.321c.024,3.445,0,6.891,0,10.336,0,4.325-2.543,6.962-6.867,7.081-1.307.047-2.614.024-3.921,0-.594-.024-.855.166-.832.808.048.951.024,1.9,0,2.851a3.47,3.47,0,0,1-3.517,3.541c-1.188.024-2.685.5-3.445-.19-.713-.642-.19-2.162-.214-3.3C-148.546,258.509-148.522,255.206-148.522,251.927Zm7.176-5.822v2.257c0,2.685,0,2.685,2.685,2.448a1.648,1.648,0,0,0,1.735-1.83c.024-1.331-.048-2.685.024-4.016.143-3.849-.57-3.469-3.707-3.493-.57,0-.76.166-.76.737C-141.322,243.492-141.346,244.8-141.346,246.105Z" transform="translate(148.684 -228.421)"/><path class="a" d="M120.889,233.83c0-3.16-.024-6.344.024-9.5,0-.737-.166-1.046-.974-1.022-1.069.048-2.495.356-3.089-.166-.737-.689-.166-2.162-.261-3.3V219.6c0-1.117-.356-2.424.119-3.255s1.925-.309,2.946-.57a8.609,8.609,0,0,0,4.776-3.3,5.438,5.438,0,0,1,3.3-2.139c.737-.143,1.188-.048,1.141.9-.071,1.331,0,2.685-.024,4.04-.024.57.19.76.76.737.95-.024,1.9.024,2.851-.024.57-.024.76.19.737.76-.024,1.948-.024,3.873,0,5.822,0,.547-.143.832-.737.76a1.787,1.787,0,0,0-.356,0c-1.046.1-2.495-.475-3.042.238-.523.665-.19,2.044-.19,3.113,0,6.463-.024,12.9.024,19.366,0,.9-.238,1.188-1.141,1.117-.855-.071-1.735,0-2.614-.024a4.169,4.169,0,0,1-4.253-4.4Z" transform="translate(-53.457 -210.276)"/></g></svg>