<svg xmlns="http://www.w3.org/2000/svg" xmlns:xlink="http://www.w3.org/1999/xlink" width="691" height="163" viewBox="0 0 691 163"><defs><style>.a{fill:#fff;}.b{opacity:0.92;}.c{fill:#151948;}.d{fill:#3c58bf;}.e{fill:#293688;}.f{fill:#ffbc00;}.g{fill:#f7981d;}.h{fill:#ed7c00;}.i{fill:#051244;}.j{fill:#ff5f00;}.k{fill:#eb001b;}.l{fill:#f79e1b;}.m{fill:#3d3d3c;}.n{fill:#70706e;}.o{fill:#098041;}.p{fill:#e97626;}.q{filter:url(#a);}</style><filter id="a" x="0" y="0" width="691" height="163" filterUnits="userSpaceOnUse"><feOffset input="SourceAlpha"/><feGaussianBlur stdDeviation="11" result="b"/><feFlood flood-color="#3ecf8e" flood-opacity="0.471"/><feComposite operator="in" in2="b"/><feComposite in="SourceGraphic"/></filter></defs><g transform="translate(-123 -605)"><g class="q" transform="matrix(1, 0, 0, 1, 123, 605)"><rect class="a" width="625" height="97" rx="14" transform="translate(33 33)"/></g><g class="b" transform="translate(-340 -199)"><path class="c" d="M-50.941-6.358a7.269,7.269,0,0,1-.088,1.188h-8.91A3.03,3.03,0,0,0-59.015-3.1a2.849,2.849,0,0,0,2,.748,2.515,2.515,0,0,0,2.442-1.474h3.322A5.552,5.552,0,0,1-53.273-.935,5.909,5.909,0,0,1-56.947.2,6.358,6.358,0,0,1-60.1-.583a5.5,5.5,0,0,1-2.178-2.211,6.775,6.775,0,0,1-.781-3.3,6.9,6.9,0,0,1,.77-3.322,5.373,5.373,0,0,1,2.156-2.2,6.459,6.459,0,0,1,3.19-.77,6.408,6.408,0,0,1,3.113.748A5.264,5.264,0,0,1-51.7-9.515,6.425,6.425,0,0,1-50.941-6.358Zm-3.19-.88a2.443,2.443,0,0,0-.858-1.9,3.04,3.04,0,0,0-2.046-.715,2.8,2.8,0,0,0-1.925.693,3.047,3.047,0,0,0-.957,1.925Zm14.806-1.914v2.6h-9.328v-2.6Zm20.2-6.2V0h-3.08V-9.988L-26.323,0h-2.332l-4.136-9.988V0h-3.08V-15.356h3.5l4.884,11.418L-22.6-15.356Zm2.244,9.218a7.054,7.054,0,0,1,.737-3.278,5.4,5.4,0,0,1,2-2.2,5.33,5.33,0,0,1,2.827-.77,4.966,4.966,0,0,1,2.387.55A4.844,4.844,0,0,1-7.293-10.45v-1.738h3.1V0h-3.1V-1.782A4.581,4.581,0,0,1-8.932-.363,5.015,5.015,0,0,1-11.341.2a5.18,5.18,0,0,1-2.805-.792,5.543,5.543,0,0,1-2-2.233A7.171,7.171,0,0,1-16.885-6.138Zm9.592.044a3.951,3.951,0,0,0-.44-1.925A3.1,3.1,0,0,0-8.921-9.251a3.175,3.175,0,0,0-1.606-.429,3.119,3.119,0,0,0-1.584.418,3.148,3.148,0,0,0-1.177,1.221,3.825,3.825,0,0,0-.451,1.9,3.951,3.951,0,0,0,.451,1.925A3.247,3.247,0,0,0-12.1-2.948a3.018,3.018,0,0,0,1.573.44,3.175,3.175,0,0,0,1.606-.429A3.1,3.1,0,0,0-7.733-4.169,3.951,3.951,0,0,0-7.293-6.094Zm12.87-6.27A4.7,4.7,0,0,1,9.1-10.989,5.264,5.264,0,0,1,10.439-7.15V0H7.359V-6.732a3.16,3.16,0,0,0-.726-2.233,2.571,2.571,0,0,0-1.98-.781,2.635,2.635,0,0,0-2.013.781A3.13,3.13,0,0,0,1.9-6.732V0h-3.08V-12.188H1.9v1.518a4.255,4.255,0,0,1,1.573-1.243A4.866,4.866,0,0,1,5.577-12.364Zm7,6.226a7.054,7.054,0,0,1,.737-3.278,5.376,5.376,0,0,1,2.013-2.2,5.387,5.387,0,0,1,2.838-.77,5.177,5.177,0,0,1,2.266.517,4.531,4.531,0,0,1,1.716,1.375V-16.28h3.124V0H22.143V-1.8A4.174,4.174,0,0,1,20.537-.352a5.031,5.031,0,0,1-2.4.55,5.235,5.235,0,0,1-2.816-.792A5.515,5.515,0,0,1,13.31-2.827,7.171,7.171,0,0,1,12.573-6.138Zm9.592.044a3.951,3.951,0,0,0-.44-1.925,3.1,3.1,0,0,0-1.188-1.232,3.175,3.175,0,0,0-1.606-.429,3.119,3.119,0,0,0-1.584.418A3.148,3.148,0,0,0,16.17-8.041a3.825,3.825,0,0,0-.451,1.9,3.951,3.951,0,0,0,.451,1.925,3.247,3.247,0,0,0,1.188,1.265,3.018,3.018,0,0,0,1.573.44,3.175,3.175,0,0,0,1.606-.429,3.1,3.1,0,0,0,1.188-1.232A3.951,3.951,0,0,0,22.165-6.094Zm5.324-.044a7.054,7.054,0,0,1,.737-3.278,5.4,5.4,0,0,1,2-2.2,5.33,5.33,0,0,1,2.827-.77,4.966,4.966,0,0,1,2.387.55,4.844,4.844,0,0,1,1.639,1.386v-1.738h3.1V0h-3.1V-1.782A4.581,4.581,0,0,1,35.442-.363,5.015,5.015,0,0,1,33.033.2a5.18,5.18,0,0,1-2.805-.792,5.543,5.543,0,0,1-2-2.233A7.171,7.171,0,0,1,27.489-6.138Zm9.592.044a3.951,3.951,0,0,0-.44-1.925,3.1,3.1,0,0,0-1.188-1.232,3.175,3.175,0,0,0-1.606-.429,3.119,3.119,0,0,0-1.584.418,3.148,3.148,0,0,0-1.177,1.221,3.825,3.825,0,0,0-.451,1.9,3.951,3.951,0,0,0,.451,1.925,3.247,3.247,0,0,0,1.188,1.265,3.018,3.018,0,0,0,1.573.44,3.175,3.175,0,0,0,1.606-.429,3.1,3.1,0,0,0,1.188-1.232A3.951,3.951,0,0,0,37.081-6.094Zm9.7-3.564v5.9a1.165,1.165,0,0,0,.3.891,1.459,1.459,0,0,0,1,.275h1.43V0H47.575q-3.894,0-3.894-3.784V-9.658H42.229v-2.53h1.452V-15.2h3.1v3.014h2.728v2.53Zm16.28,3.3a7.269,7.269,0,0,1-.088,1.188h-8.91A3.03,3.03,0,0,0,54.989-3.1a2.849,2.849,0,0,0,2,.748,2.515,2.515,0,0,0,2.442-1.474h3.322A5.552,5.552,0,0,1,60.731-.935,5.909,5.909,0,0,1,57.057.2,6.358,6.358,0,0,1,53.9-.583a5.5,5.5,0,0,1-2.178-2.211,6.775,6.775,0,0,1-.781-3.3,6.9,6.9,0,0,1,.77-3.322,5.373,5.373,0,0,1,2.156-2.2,6.459,6.459,0,0,1,3.19-.77,6.408,6.408,0,0,1,3.113.748A5.264,5.264,0,0,1,62.3-9.515,6.425,6.425,0,0,1,63.063-6.358Zm-3.19-.88a2.443,2.443,0,0,0-.858-1.9,3.04,3.04,0,0,0-2.046-.715,2.8,2.8,0,0,0-1.925.693,3.047,3.047,0,0,0-.957,1.925Z" transform="translate(587 893)"/></g><g class="b" transform="translate(123 -195)"><path class="c" d="M-32.648-6.358a7.269,7.269,0,0,1-.088,1.188h-8.91A3.03,3.03,0,0,0-40.722-3.1a2.849,2.849,0,0,0,2,.748,2.515,2.515,0,0,0,2.442-1.474h3.322A5.552,5.552,0,0,1-34.98-.935,5.909,5.909,0,0,1-38.654.2a6.358,6.358,0,0,1-3.157-.781,5.5,5.5,0,0,1-2.178-2.211,6.775,6.775,0,0,1-.781-3.3A6.9,6.9,0,0,1-44-9.416a5.373,5.373,0,0,1,2.156-2.2,6.459,6.459,0,0,1,3.19-.77,6.408,6.408,0,0,1,3.113.748,5.264,5.264,0,0,1,2.134,2.123A6.425,6.425,0,0,1-32.648-6.358Zm-3.19-.88a2.443,2.443,0,0,0-.858-1.9,3.04,3.04,0,0,0-2.046-.715,2.8,2.8,0,0,0-1.925.693,3.047,3.047,0,0,0-.957,1.925Zm14.806-1.914v2.6H-30.36v-2.6ZM-4.444,0h-3.08L-14.5-10.538V0h-3.08V-15.378h3.08l6.974,10.56v-10.56h3.08ZM8.008-2.926H1.892L.88,0H-2.354L3.168-15.378H6.754L12.276,0H9.02ZM7.172-5.39,4.95-11.814,2.728-5.39ZM13.6-7.7a8.044,8.044,0,0,1,1.023-4.059,7.3,7.3,0,0,1,2.794-2.794,7.928,7.928,0,0,1,3.971-1,7.811,7.811,0,0,1,4.51,1.32A6.9,6.9,0,0,1,28.6-10.582H25.058a3.671,3.671,0,0,0-1.485-1.65,4.358,4.358,0,0,0-2.211-.55,4.549,4.549,0,0,0-2.387.627,4.279,4.279,0,0,0-1.628,1.771A5.838,5.838,0,0,0,16.764-7.7a5.855,5.855,0,0,0,.583,2.673,4.264,4.264,0,0,0,1.628,1.782,4.549,4.549,0,0,0,2.387.627,4.291,4.291,0,0,0,2.211-.561A3.738,3.738,0,0,0,25.058-4.84H28.6A6.865,6.865,0,0,1,25.9-1.177,7.845,7.845,0,0,1,21.384.132a7.928,7.928,0,0,1-3.971-1,7.327,7.327,0,0,1-2.794-2.783A7.983,7.983,0,0,1,13.6-7.7Zm30.382-7.656V0H40.9V-6.534H34.32V0H31.24V-15.356h3.08v6.314H40.9v-6.314Z" transform="translate(587 889)"/></g><g transform="translate(328.435 650.839)"><path class="d" d="M23.6,46.942,27.856,23h6.651L30.384,46.942Z" transform="translate(7.626 0.198)"/><path class="e" d="M23.6,46.942,29.053,23h5.453L30.384,46.942Z" transform="translate(7.626 0.198)"/><path class="d" d="M51.851,23.464A16.871,16.871,0,0,0,45.732,22.4c-6.651,0-11.439,3.325-11.439,8.114,0,3.591,3.325,5.453,5.985,6.651s3.458,2,3.458,3.059c0,1.6-2.128,2.394-3.99,2.394a14.457,14.457,0,0,1-6.385-1.33l-.931-.4L31.5,46.342a21.567,21.567,0,0,0,7.582,1.33c7.05,0,11.7-3.325,11.7-8.38,0-2.793-1.729-4.921-5.719-6.651-2.394-1.2-3.857-1.862-3.857-3.059,0-1.064,1.2-2.128,3.857-2.128a12.2,12.2,0,0,1,5.054.931l.665.266,1.064-5.187Z" transform="translate(10.233)"/><path class="e" d="M51.851,23.464A16.871,16.871,0,0,0,45.732,22.4c-6.651,0-10.242,3.325-10.242,8.114,0,3.591,2.128,5.453,4.788,6.651s3.458,2,3.458,3.059c0,1.6-2.128,2.394-3.99,2.394a14.457,14.457,0,0,1-6.385-1.33l-.931-.4L31.5,46.342a21.567,21.567,0,0,0,7.582,1.33c7.05,0,11.7-3.325,11.7-8.38,0-2.793-1.729-4.921-5.719-6.651-2.394-1.2-3.857-1.862-3.857-3.059,0-1.064,1.2-2.128,3.857-2.128a12.2,12.2,0,0,1,5.054.931l.665.266,1.064-5.187Z" transform="translate(10.233)"/><path class="d" d="M58.734,23c-1.6,0-2.793.133-3.458,1.729L45.3,46.942h7.183l1.33-3.99h8.513l.8,3.99h6.385L63.922,23ZM55.675,38.961c.4-1.2,2.66-7.05,2.66-7.05s.532-1.463.931-2.394l.4,2.261s1.33,5.986,1.6,7.316H55.675Z" transform="translate(14.789 0.198)"/><path class="e" d="M60.33,23c-1.6,0-2.793.133-3.458,1.729L45.3,46.942h7.183l1.33-3.99h8.513l.8,3.99h6.385L63.922,23ZM55.675,38.961c.532-1.33,2.66-7.05,2.66-7.05s.532-1.463.931-2.394l.4,2.261s1.33,5.986,1.6,7.316H55.675Z" transform="translate(14.789 0.198)"/><path class="d" d="M16.876,39.726l-.665-3.458c-1.2-3.99-5.054-8.38-9.311-10.508l5.985,21.282h7.183L30.842,23.1H23.659Z" transform="translate(2.113 0.231)"/><path class="e" d="M16.876,39.726l-.665-3.458c-1.2-3.99-5.054-8.38-9.311-10.508l5.985,21.282h7.183L30.842,23.1H24.99Z" transform="translate(2.113 0.231)"/><path class="f" d="M.5,23l1.2.266c8.513,2,14.365,7.05,16.626,13.035L15.929,25c-.4-1.6-1.6-2-3.059-2Z" transform="translate(0 0.198)"/><path class="g" d="M.5,23h0c8.513,2,15.562,7.183,17.823,13.168l-2.261-9.444A3.247,3.247,0,0,0,12.87,24.2Z" transform="translate(0 0.198)"/><path class="h" d="M.5,23h0c8.513,2,15.562,7.183,17.823,13.168l-1.6-5.187c-.4-1.6-.931-3.192-2.793-3.857Z" transform="translate(0 0.198)"/><g transform="translate(9.146 25.858)"><path class="i" d="M23.493,38.3l-4.522-4.522-2.128,5.054-.532-3.325C15.114,31.518,11.256,27.128,7,25l5.986,21.282h7.183Z" transform="translate(-7 -25)"/></g><g transform="translate(31.226 41.288)"><path class="i" d="M30.384,42.452,24.664,36.6,23.6,42.452Z" transform="translate(-23.6 -36.6)"/></g><g transform="translate(41.733 38.893)"><path class="i" d="M43.072,34.8h0c.532.532.8.931.665,1.463,0,1.6-2.128,2.394-3.99,2.394a14.457,14.457,0,0,1-6.385-1.33l-.931-.4L31.5,42.382a21.567,21.567,0,0,0,7.582,1.33c4.256,0,7.715-1.2,9.71-3.325Z" transform="translate(-31.5 -34.8)"/></g><g transform="translate(61.02 29.716)"><path class="i" d="M46,45.324h6.252l1.33-3.99h8.513l.8,3.99h6.385l-2.261-9.71L59.035,27.9l.4,2.128s1.33,5.985,1.6,7.316H55.444c.532-1.33,2.66-7.05,2.66-7.05s.532-1.463.931-2.394" transform="translate(-46 -27.9)"/></g></g><g transform="translate(-0.925 -0.558)"><g class="b" transform="translate(-60 -177)"><path class="c" d="M-27.514-9.074V0h-1.82V-5.9L-31.765,0h-1.378l-2.444-5.9V0h-1.82V-9.074h2.067l2.886,6.747,2.886-6.747Zm1.326,5.447a4.168,4.168,0,0,1,.435-1.937,3.192,3.192,0,0,1,1.183-1.3,3.15,3.15,0,0,1,1.67-.455,2.934,2.934,0,0,1,1.41.325,2.862,2.862,0,0,1,.969.819V-7.2h1.833V0h-1.833V-1.053a2.707,2.707,0,0,1-.969.838,2.963,2.963,0,0,1-1.424.332A3.061,3.061,0,0,1-24.57-.351a3.275,3.275,0,0,1-1.183-1.32A4.238,4.238,0,0,1-26.188-3.627Zm5.668.026a2.334,2.334,0,0,0-.26-1.138,1.833,1.833,0,0,0-.7-.728,1.876,1.876,0,0,0-.949-.253,1.843,1.843,0,0,0-.936.247,1.86,1.86,0,0,0-.7.722,2.26,2.26,0,0,0-.267,1.125,2.335,2.335,0,0,0,.267,1.138,1.919,1.919,0,0,0,.7.747,1.783,1.783,0,0,0,.93.26,1.876,1.876,0,0,0,.949-.253,1.833,1.833,0,0,0,.7-.728A2.334,2.334,0,0,0-20.521-3.6Zm6.37,3.718A3.8,3.8,0,0,1-15.737-.2a2.8,2.8,0,0,1-1.112-.864A2.191,2.191,0,0,1-17.3-2.275h1.833a1,1,0,0,0,.41.689,1.424,1.424,0,0,0,.891.273,1.383,1.383,0,0,0,.813-.208.63.63,0,0,0,.292-.533.562.562,0,0,0-.357-.526,6.727,6.727,0,0,0-1.138-.384,9.64,9.64,0,0,1-1.319-.4A2.291,2.291,0,0,1-16.757-4a1.71,1.71,0,0,1-.37-1.157,1.867,1.867,0,0,1,.344-1.092,2.313,2.313,0,0,1,.988-.78,3.7,3.7,0,0,1,1.515-.286,3.092,3.092,0,0,1,2.054.643,2.384,2.384,0,0,1,.845,1.735h-1.742a.943.943,0,0,0-.358-.682,1.329,1.329,0,0,0-.851-.253,1.342,1.342,0,0,0-.76.182.58.58,0,0,0-.267.507A.6.6,0,0,0-15-4.635a5.652,5.652,0,0,0,1.131.384,9.6,9.6,0,0,1,1.287.4A2.274,2.274,0,0,1-11.7-3.2a1.767,1.767,0,0,1,.383,1.151,1.908,1.908,0,0,1-.344,1.118,2.269,2.269,0,0,1-.988.774A3.743,3.743,0,0,1-14.151.117ZM-7.7-5.707v3.484a.689.689,0,0,0,.176.526.862.862,0,0,0,.591.162h.845V0H-7.235a2.006,2.006,0,0,1-2.3-2.236V-5.707h-.858V-7.2h.858V-8.983H-7.7V-7.2h1.612v1.495Zm9.62,1.95a4.3,4.3,0,0,1-.052.7H-3.4a1.791,1.791,0,0,0,.546,1.222,1.684,1.684,0,0,0,1.183.442A1.486,1.486,0,0,0-.228-2.262H1.735a3.281,3.281,0,0,1-1.2,1.71,3.492,3.492,0,0,1-2.171.67A3.757,3.757,0,0,1-3.5-.345,3.248,3.248,0,0,1-4.784-1.651,4,4,0,0,1-5.246-3.6a4.078,4.078,0,0,1,.455-1.963,3.175,3.175,0,0,1,1.274-1.3,3.817,3.817,0,0,1,1.885-.455,3.786,3.786,0,0,1,1.839.442A3.111,3.111,0,0,1,1.469-5.623,3.8,3.8,0,0,1,1.917-3.757ZM.032-4.277A1.443,1.443,0,0,0-.475-5.4a1.8,1.8,0,0,0-1.209-.423,1.652,1.652,0,0,0-1.138.41,1.8,1.8,0,0,0-.566,1.137ZM5.063-6.084a2.559,2.559,0,0,1,.917-.9,2.549,2.549,0,0,1,1.293-.325V-5.4H6.792a1.844,1.844,0,0,0-1.293.4,1.858,1.858,0,0,0-.436,1.4V0H3.243V-7.2h1.82ZM8.027-3.6a4.04,4.04,0,0,1,.455-1.956,3.252,3.252,0,0,1,1.261-1.3,3.648,3.648,0,0,1,1.846-.461,3.549,3.549,0,0,1,2.217.67,3.257,3.257,0,0,1,1.177,1.878H13.019a1.436,1.436,0,0,0-.526-.734,1.529,1.529,0,0,0-.917-.266,1.5,1.5,0,0,0-1.235.565A2.5,2.5,0,0,0,9.886-3.6a2.48,2.48,0,0,0,.455,1.592,1.5,1.5,0,0,0,1.235.566,1.38,1.38,0,0,0,1.443-.988h1.963A3.322,3.322,0,0,1,13.8-.572a3.486,3.486,0,0,1-2.21.689A3.648,3.648,0,0,1,9.743-.345a3.252,3.252,0,0,1-1.261-1.3A4.04,4.04,0,0,1,8.027-3.6Zm7.826-.026a4.168,4.168,0,0,1,.436-1.937,3.192,3.192,0,0,1,1.183-1.3,3.15,3.15,0,0,1,1.67-.455,2.934,2.934,0,0,1,1.41.325,2.862,2.862,0,0,1,.969.819V-7.2h1.833V0H21.521V-1.053a2.707,2.707,0,0,1-.969.838,2.963,2.963,0,0,1-1.424.332,3.061,3.061,0,0,1-1.657-.468,3.275,3.275,0,0,1-1.183-1.32A4.238,4.238,0,0,1,15.853-3.627Zm5.668.026a2.334,2.334,0,0,0-.26-1.138,1.833,1.833,0,0,0-.7-.728,1.876,1.876,0,0,0-.949-.253,1.843,1.843,0,0,0-.936.247,1.86,1.86,0,0,0-.7.722,2.26,2.26,0,0,0-.267,1.125,2.335,2.335,0,0,0,.267,1.138,1.919,1.919,0,0,0,.7.747,1.783,1.783,0,0,0,.93.26,1.876,1.876,0,0,0,.949-.253,1.833,1.833,0,0,0,.7-.728A2.334,2.334,0,0,0,21.521-3.6Zm5.434-2.483a2.559,2.559,0,0,1,.917-.9,2.549,2.549,0,0,1,1.294-.325V-5.4h-.481a1.844,1.844,0,0,0-1.293.4,1.858,1.858,0,0,0-.436,1.4V0h-1.82V-7.2h1.82Zm2.964,2.457a4.168,4.168,0,0,1,.435-1.937,3.177,3.177,0,0,1,1.19-1.3,3.183,3.183,0,0,1,1.677-.455,3.059,3.059,0,0,1,1.339.306,2.677,2.677,0,0,1,1.014.813V-9.62H37.42V0H35.574V-1.066a2.466,2.466,0,0,1-.949.858,2.973,2.973,0,0,1-1.417.325,3.093,3.093,0,0,1-1.664-.468,3.259,3.259,0,0,1-1.19-1.32A4.238,4.238,0,0,1,29.919-3.627Zm5.668.026a2.334,2.334,0,0,0-.26-1.138,1.833,1.833,0,0,0-.7-.728,1.876,1.876,0,0,0-.949-.253,1.843,1.843,0,0,0-.936.247,1.86,1.86,0,0,0-.7.722,2.26,2.26,0,0,0-.267,1.125,2.335,2.335,0,0,0,.267,1.138,1.919,1.919,0,0,0,.7.747,1.783,1.783,0,0,0,.93.26,1.876,1.876,0,0,0,.949-.253,1.833,1.833,0,0,0,.7-.728A2.334,2.334,0,0,0,35.587-3.6Z" transform="translate(540 885)"/></g><g transform="translate(461.394 661.417)"><path class="j" d="M18.818,24.251H8.755V6.168H18.818Z" transform="translate(4.82 0.873)"/><path class="k" d="M14.213,16.083a11.48,11.48,0,0,1,4.393-9.041,11.5,11.5,0,1,0,0,18.082,11.483,11.483,0,0,1-4.391-9.041Z" transform="translate(0 0)"/><path class="l" d="M30.606,16.083A11.5,11.5,0,0,1,12,25.124,11.5,11.5,0,0,0,12,7.042a11.5,11.5,0,0,1,18.606,9.041Z" transform="translate(6.606 0)"/></g></g><g transform="translate(454.082 587.575)"><path class="m" d="M92.078,339.273h.681l-.637,2.647a1.123,1.123,0,0,0,.054.886.8.8,0,0,0,.724.292,1.288,1.288,0,0,0,.864-.292,1.662,1.662,0,0,0,.475-.886l.637-2.647h.691l-.648,2.712a2.3,2.3,0,0,1-.756,1.318,2.174,2.174,0,0,1-1.415.443,1.407,1.407,0,0,1-1.2-.432A1.573,1.573,0,0,1,91.43,342Zm3.393,4.354,1.08-4.527,2.053,2.658c.054.076.108.151.162.238s.108.184.173.292l.724-3.014h.637l-1.08,4.516-2.1-2.712-.162-.227a1.163,1.163,0,0,1-.13-.259l-.724,3.025h-.637Zm4.776,0,1.037-4.354h.691l-1.037,4.354Zm1.675,0,1.037-4.354h2.366l-.14.605h-1.675l-.259,1.08h1.675l-.151.616H103.1l-.486,2.042h-.691Zm3.133,0,1.037-4.354h.691l-1.037,4.354Zm1.675,0,1.037-4.354h2.366l-.14.605h-1.675l-.259,1.091h1.675l-.151.616h-1.675l-.335,1.4h1.675l-.151.637Zm3.166,0,1.037-4.354h.929a5.354,5.354,0,0,1,1.253.1,1.287,1.287,0,0,1,.573.313,1.375,1.375,0,0,1,.378.735,2.6,2.6,0,0,1-.054,1.026,3.377,3.377,0,0,1-.432,1.026,2.506,2.506,0,0,1-.735.735,2.113,2.113,0,0,1-.713.313,4.82,4.82,0,0,1-1.124.1h-1.113Zm.843-.648h.583a3.222,3.222,0,0,0,.735-.065,1.409,1.409,0,0,0,.465-.216,1.76,1.76,0,0,0,.486-.529,2.375,2.375,0,0,0,.292-.735,1.926,1.926,0,0,0,.054-.724,1,1,0,0,0-.238-.529.73.73,0,0,0-.378-.216,3.221,3.221,0,0,0-.767-.065h-.5Zm6.45-1.307-.465,1.956h-.648l1.037-4.354h1.048a3.151,3.151,0,0,1,.67.054.663.663,0,0,1,.335.173.72.72,0,0,1,.216.411,1.428,1.428,0,0,1-.022.562,1.808,1.808,0,0,1-.248.573,1.483,1.483,0,0,1-.411.411,1.443,1.443,0,0,1-.421.173,3.549,3.549,0,0,1-.691.054h-.4Zm.184-.583h.173a1.755,1.755,0,0,0,.8-.13.674.674,0,0,0,.3-.454.465.465,0,0,0-.086-.486,1.214,1.214,0,0,0-.713-.14h-.173Zm4.333,2.539-.216-1.124H119.8l-.756,1.124h-.724l3.133-4.527.972,4.527Zm-1.491-1.718h1.178l-.194-.994a1.329,1.329,0,0,1-.022-.216,2.17,2.17,0,0,1-.011-.27,7.123,7.123,0,0,1-.27.5Zm3.209,1.718.475-1.988-.864-2.355h.724l.54,1.48c.011.043.022.086.043.151s.032.13.054.194l.13-.194c.043-.065.086-.119.13-.173l1.264-1.459h.691l-2.02,2.345-.475,1.988h-.691Zm6.58-2.15c0-.032.011-.13.032-.281.011-.13.022-.227.032-.313-.043.1-.086.194-.14.3a2.376,2.376,0,0,1-.194.3l-1.664,2.323-.54-2.366c-.022-.1-.043-.194-.054-.281a2.274,2.274,0,0,1-.022-.27c-.022.086-.054.184-.086.292a2.415,2.415,0,0,1-.13.313l-.972,2.139h-.637l2.085-4.538.594,2.744a1.923,1.923,0,0,1,.032.216c.011.1.032.227.054.378.076-.13.173-.281.3-.475a.976.976,0,0,0,.076-.119l1.88-2.744-.065,4.538h-.637Zm1.145,2.15,1.037-4.354h2.366l-.14.605h-1.675l-.259,1.091h1.675l-.151.616h-1.675l-.335,1.4h1.675l-.151.637Zm3.155,0,1.08-4.527,2.053,2.658c.054.076.108.151.162.238s.108.184.173.292l.724-3.014h.637l-1.08,4.516-2.1-2.712-.162-.227a1.164,1.164,0,0,1-.13-.259l-.724,3.025H134.3Zm7.034-3.76-.9,3.749h-.691l.9-3.749h-1.124l.14-.605H142.6l-.14.605Zm.724,2.885.616-.259a.582.582,0,0,0,.184.443.758.758,0,0,0,.5.151.821.821,0,0,0,.529-.173.786.786,0,0,0,.292-.465q.1-.389-.454-.681a.691.691,0,0,0-.119-.065,2.081,2.081,0,0,1-.778-.637.927.927,0,0,1-.065-.691,1.5,1.5,0,0,1,.562-.864,1.63,1.63,0,0,1,1-.335,1.358,1.358,0,0,1,.746.184.716.716,0,0,1,.313.529l-.605.281a.651.651,0,0,0-.205-.3.525.525,0,0,0-.324-.1.78.78,0,0,0-.475.151.687.687,0,0,0-.259.4c-.065.259.119.508.54.735a.624.624,0,0,0,.076.043,1.756,1.756,0,0,1,.724.583.972.972,0,0,1,.065.713,1.717,1.717,0,0,1-.616.983,1.789,1.789,0,0,1-1.113.367,1.218,1.218,0,0,1-.832-.259A.847.847,0,0,1,142.06,342.752Zm5.089.875,1.037-4.354h.691l-1.037,4.354Zm1.686,0,1.08-4.527,2.053,2.658c.054.076.108.151.162.238s.108.184.173.292l.724-3.014h.637l-1.08,4.516-2.1-2.712-.162-.227a1.163,1.163,0,0,1-.13-.259l-.724,3.025h-.637Zm7.034-3.76-.9,3.749h-.691l.9-3.749h-1.124l.14-.605h2.939l-.14.605Zm.746,3.76,1.037-4.354h2.377l-.14.605h-1.675l-.259,1.091h1.675l-.151.616H157.8l-.335,1.4h1.675l-.151.637Zm4.268-1.956-.465,1.945h-.648l1.037-4.354h.962a3.021,3.021,0,0,1,.637.054.7.7,0,0,1,.357.184.744.744,0,0,1,.205.411,1.38,1.38,0,0,1-.022.551,1.591,1.591,0,0,1-.443.821,1.468,1.468,0,0,1-.81.357l.983,1.977H161.9l-.94-1.945Zm.173-.551h.13a1.548,1.548,0,0,0,.756-.13.7.7,0,0,0,.292-.465c.054-.238.032-.411-.076-.508a1.08,1.08,0,0,0-.681-.151h-.13Zm2.042,2.507,1.037-4.354H166.5l-.14.605h-1.675l-.259,1.08H166.1l-.151.616h-1.675l-.486,2.042H163.1Zm5.7,0-.216-1.124H166.9l-.756,1.124h-.724l3.133-4.527.972,4.527Zm-1.5-1.718h1.178l-.194-.994a1.329,1.329,0,0,1-.022-.216,2.17,2.17,0,0,1-.011-.27,7.123,7.123,0,0,1-.27.5Zm6.72-1.577a1.372,1.372,0,0,0-.529-.378,1.6,1.6,0,0,0-.659-.13,1.9,1.9,0,0,0-1.243.454,2.155,2.155,0,0,0-.724,1.189,1.412,1.412,0,0,0,.151,1.167,1.084,1.084,0,0,0,.962.454,2.025,2.025,0,0,0,.745-.14,3.081,3.081,0,0,0,.756-.411l-.194.8a2.389,2.389,0,0,1-.681.3,2.741,2.741,0,0,1-.735.1,2.164,2.164,0,0,1-.864-.162,1.509,1.509,0,0,1-.616-.486,1.542,1.542,0,0,1-.3-.735,2.192,2.192,0,0,1,.054-.908,2.987,2.987,0,0,1,.378-.9,2.849,2.849,0,0,1,.659-.735,2.761,2.761,0,0,1,.843-.486,2.7,2.7,0,0,1,.918-.162,2.062,2.062,0,0,1,.691.108,1.812,1.812,0,0,1,.573.335Zm.065,3.3,1.037-4.354h2.366l-.14.605h-1.675l-.259,1.091h1.675l-.151.616h-1.675l-.335,1.4H176.6l-.151.637Z" transform="translate(0 -226.378)"/><g transform="translate(93.744 85.3)"><path class="n" d="M181.283,109.1h-4.743l6.591-23.8h4.743Zm-2.463-23.057a1.744,1.744,0,0,0-1.523-.681H151.235l-1.286,4.668h23.705l-1.383,4.981H153.31V95h-4.743l-3.933,14.208h4.743l2.636-9.53H173.33A3.005,3.005,0,0,0,175.21,99a3.166,3.166,0,0,0,1.156-1.686L179,87.785A1.933,1.933,0,0,0,178.819,86.046Zm-36.952,21.566a2.185,2.185,0,0,1-2.1,1.6H115.321a1.709,1.709,0,0,1-1.491-.681,1.871,1.871,0,0,1-.205-1.686l5.964-21.479h4.743l-5.327,19.189h18.973L143.3,85.365h4.743Z" transform="translate(-113.518 -85.3)"/><g transform="translate(71.708 0.043)"><path class="o" d="M822.912,85.7l6,11.928L816.3,109.556Z" transform="translate(-812.075 -85.7)"/><path class="p" d="M783.823,85.7l6,11.928L777.2,109.556Z" transform="translate(-777.2 -85.7)"/></g></g></g></g></svg>